<svg width="30" height="28" viewBox="0 0 30 28" fill="none" xmlns="http://www.w3.org/2000/svg">
<path d="M18.9317 15.8308C15.0813 16.1426 11.231 16.4686 7.37595 16.7521C5.54291 16.8891 3.70514 16.9174 1.8721 17.0355C1.14455 17.0828 0.823292 16.9033 0.846914 16.0859C0.898882 13.9742 0.889433 11.8577 0.846914 9.74588C0.832741 9.00889 1.07368 8.81046 1.79651 8.86243C5.73661 9.15534 9.60584 9.92541 13.494 10.5726C15.1664 10.8514 16.8388 11.1679 18.5537 11.3474C16.9664 10.1097 15.3601 8.95692 14.0609 7.44041C11.7696 4.77115 11.7554 4.78533 14.7506 3.07512C16.2435 2.22474 17.7553 1.4027 19.2104 0.486179C19.9427 0.0279176 20.1269 0.202718 20.3821 0.958613C21.6813 4.80422 23.8686 8.10181 27.2512 10.3459C28.8056 11.3758 29.1693 12.4624 29.0985 14.1442C29.0512 15.3017 28.8008 15.9867 27.752 16.667C24.3033 18.9064 21.9789 22.1048 20.5569 25.9504C20.023 27.3913 20.0655 27.396 18.6907 26.6023C16.7632 25.4827 14.8499 24.3441 12.894 23.2811C12.1712 22.889 12.0719 22.5866 12.5444 21.8922C14.2262 19.4261 16.4183 17.5316 18.9222 15.8308H18.9317Z" fill="white"/>
</svg>
