<svg width="40" height="39" viewBox="0 0 40 39" fill="none" xmlns="http://www.w3.org/2000/svg">
<path d="M18.7322 0.850559C18.9122 -0.0774417 20.2401 -0.0774412 20.4202 0.85056L22.2773 10.4235C22.4009 11.0605 23.1585 11.3363 23.6626 10.9278L31.2387 4.78817C31.9731 4.193 32.9903 5.04658 32.5317 5.87319L27.801 14.4003C27.4862 14.9676 27.8894 15.6659 28.5381 15.677L38.2881 15.8436C39.2333 15.8597 39.4639 17.1675 38.5812 17.5059L29.4762 20.9972C28.8704 21.2295 28.7304 22.0235 29.2202 22.449L36.5821 28.8438C37.2957 29.4637 36.6318 30.6137 35.7381 30.3056L26.5191 27.1275C25.9056 26.916 25.288 27.4343 25.3898 28.0751L26.9188 37.7059C27.067 38.6395 25.8191 39.0937 25.3326 38.2833L20.3133 29.9228C19.9793 29.3665 19.173 29.3665 18.8391 29.9228L13.8198 38.2833C13.3332 39.0937 12.0854 38.6395 12.2336 37.7059L13.7626 28.0751C13.8643 27.4343 13.2467 26.916 12.6333 27.1275L3.41427 30.3056C2.52058 30.6137 1.85661 29.4637 2.57027 28.8438L9.93215 22.449C10.422 22.0235 10.282 21.2295 9.67616 20.9972L0.571096 17.5059C-0.311545 17.1675 -0.08095 15.8597 0.864214 15.8436L10.6143 15.677C11.263 15.6659 11.6661 14.9676 11.3514 14.4003L6.62061 5.87319C6.16201 5.04658 7.17927 4.193 7.91369 4.78817L15.4897 10.9278C15.9938 11.3363 16.7515 11.0605 16.875 10.4235L18.7322 0.850559Z" fill="#2E2E2E"/>
</svg>
