<svg viewBox="0 0 50 49" fill="none" xmlns="http://www.w3.org/2000/svg">
  <path d="M14.2564 6.49402V11.0441M35.4903 6.49402V11.0441M6.67285 38.3448V15.5943C6.67285 14.3875 7.15224 13.2301 8.00555 12.3768C8.85886 11.5235 10.0162 11.0441 11.223 11.0441H38.5237C39.7304 11.0441 40.8878 11.5235 41.7411 12.3768C42.5944 13.2301 43.0738 14.3875 43.0738 15.5943V38.3448M6.67285 38.3448C6.67285 39.5516 7.15224 40.709 8.00555 41.5623C8.85886 42.4156 10.0162 42.895 11.223 42.895H38.5237C39.7304 42.895 40.8878 42.4156 41.7411 41.5623C42.5944 40.709 43.0738 39.5516 43.0738 38.3448M6.67285 38.3448V23.1778C6.67285 21.971 7.15224 20.8137 8.00555 19.9604C8.85886 19.1071 10.0162 18.6277 11.223 18.6277H38.5237C39.7304 18.6277 40.8878 19.1071 41.7411 19.9604C42.5944 20.8137 43.0738 21.971 43.0738 23.1778V38.3448" stroke="#3967D1" stroke-width="3.03341" stroke-linecap="round" stroke-linejoin="round"/>
</svg>
