<svg viewBox="0 0 40 40" fill="none" xmlns="http://www.w3.org/2000/svg">
  <path d="M19.8733 7.7398V19.8734H28.9736M38.0738 19.8734C38.0738 22.2636 37.603 24.6303 36.6884 26.8385C35.7737 29.0467 34.4331 31.0531 32.743 32.7431C31.0529 34.4332 29.0465 35.7738 26.8383 36.6885C24.6302 37.6032 22.2634 38.0739 19.8733 38.0739C17.4832 38.0739 15.1165 37.6032 12.9083 36.6885C10.7001 35.7738 8.69372 34.4332 7.00365 32.7431C5.31358 31.0531 3.97294 29.0467 3.05828 26.8385C2.14362 24.6303 1.67285 22.2636 1.67285 19.8734C1.67285 15.0464 3.5904 10.417 7.00365 7.00377C10.4169 3.59052 15.0463 1.67297 19.8733 1.67297C24.7004 1.67297 29.3298 3.59052 32.743 7.00377C36.1563 10.417 38.0738 15.0464 38.0738 19.8734Z" stroke="#3967D1" stroke-width="3.03341" stroke-linecap="round" stroke-linejoin="round"/>
</svg>
