<svg width="74" height="75" viewBox="0 0 74 75" fill="none" xmlns="http://www.w3.org/2000/svg">
  <rect x="0.283691" y="7.97412" width="66.3492" height="66.3492" fill="#2E2E2E"/>
  <rect x="7.65576" y="0.602051" width="66.3492" height="66.3492" fill="#ABC2FB"/>
  <path d="M47.0816 20.9244C48.8904 20.9296 50.6236 21.6239 51.9027 22.8556C53.1817 24.0872 53.9026 25.7562 53.9081 27.4981V40.6439C53.9026 42.3857 53.1817 44.0548 51.9027 45.2864C50.6236 46.5181 48.8904 47.2123 47.0816 47.2175H33.4301C31.6213 47.2123 29.8881 46.5181 28.6091 45.2864C27.33 44.0548 26.6091 42.3857 26.6037 40.6439L26.6037 27.4981C26.6091 25.7562 27.33 24.0872 28.6091 22.8556C29.8881 21.6239 31.6213 20.9296 33.4301 20.9244L47.0816 20.9244ZM47.0816 18.2954L33.4301 18.2954C28.1739 18.2954 23.8735 22.4365 23.8735 27.4981L23.8735 40.6439C23.8735 45.7055 28.1739 49.8466 33.4301 49.8466H47.0816C52.3378 49.8466 56.6382 45.7055 56.6382 40.6439L56.6382 27.4981C56.6382 22.4365 52.3378 18.2954 47.0816 18.2954Z" fill="#2E2E2E"/>
  <path d="M49.1296 27.4976C48.7246 27.4976 48.3287 27.382 47.9919 27.1653C47.6552 26.9486 47.3927 26.6406 47.2377 26.2803C47.0827 25.92 47.0422 25.5235 47.1212 25.141C47.2002 24.7584 47.3952 24.4071 47.6816 24.1313C47.968 23.8555 48.3329 23.6677 48.7301 23.5916C49.1274 23.5155 49.5391 23.5546 49.9133 23.7038C50.2875 23.8531 50.6073 24.1058 50.8323 24.4301C51.0573 24.7544 51.1774 25.1356 51.1774 25.5257C51.178 25.7848 51.1254 26.0415 51.0227 26.2809C50.92 26.5204 50.7692 26.7381 50.5789 26.9213C50.3887 27.1045 50.1627 27.2497 49.914 27.3486C49.6653 27.4475 49.3987 27.4982 49.1296 27.4976ZM40.2561 28.8118C41.3362 28.8118 42.392 29.1202 43.2901 29.698C44.1881 30.2759 44.8881 31.0972 45.3014 32.0581C45.7148 33.019 45.8229 34.0764 45.6122 35.0965C45.4015 36.1166 44.8814 37.0536 44.1176 37.789C43.3539 38.5245 42.3808 39.0253 41.3215 39.2282C40.2622 39.4312 39.1641 39.327 38.1663 38.929C37.1684 38.531 36.3155 37.8569 35.7154 36.9921C35.1154 36.1273 34.7951 35.1106 34.7951 34.0705C34.7966 32.6763 35.3725 31.3396 36.3963 30.3537C37.4201 29.3678 38.8082 28.8133 40.2561 28.8118ZM40.2561 26.1827C38.636 26.1827 37.0524 26.6454 35.7053 27.5121C34.3583 28.3788 33.3084 29.6107 32.6885 31.052C32.0685 32.4933 31.9063 34.0793 32.2223 35.6094C32.5384 37.1394 33.3185 38.5449 34.4641 39.648C35.6096 40.7512 37.0692 41.5024 38.6581 41.8068C40.247 42.1111 41.894 41.9549 43.3907 41.3579C44.8875 40.7609 46.1668 39.7499 47.0668 38.4528C47.9669 37.1556 48.4473 35.6306 48.4473 34.0705C48.4473 31.9786 47.5843 29.9723 46.0481 28.493C44.512 27.0138 42.4285 26.1827 40.2561 26.1827Z" fill="#2E2E2E"/>
</svg>
