<?xml version="1.0" encoding="UTF-8" standalone="no"?>
<svg
   width="584"
   height="426"
   viewBox="0 0 584 426"
   fill="none"
   version="1.1"
   id="svg56"
   sodipodi:docname="logos.svg"
   inkscape:version="1.3.2 (091e20e, 2023-11-25)"
   xmlns:inkscape="http://www.inkscape.org/namespaces/inkscape"
   xmlns:sodipodi="http://sodipodi.sourceforge.net/DTD/sodipodi-0.dtd"
   xmlns="http://www.w3.org/2000/svg"
   xmlns:svg="http://www.w3.org/2000/svg">
  <defs
     id="defs56">
    <inkscape:path-effect
       effect="powermask"
       id="path-effect1"
       is_visible="true"
       lpeversion="1"
       uri="#mask-powermask-path-effect1"
       invert="false"
       hide_mask="false"
       background="true"
       background_color="#ffffffff" />
    <clipPath
       clipPathUnits="userSpaceOnUse"
       id="clipPath102">
      <g
         inkscape:label="Clip"
         id="use102" />
    </clipPath>
    <filter
       id="mask-powermask-path-effect1_inverse"
       inkscape:label="filtermask-powermask-path-effect1"
       style="color-interpolation-filters:sRGB"
       height="100"
       width="100"
       x="-50"
       y="-50">
      <feColorMatrix
         id="mask-powermask-path-effect1_primitive1"
         values="1"
         type="saturate"
         result="fbSourceGraphic" />
      <feColorMatrix
         id="mask-powermask-path-effect1_primitive2"
         values="-1 0 0 0 1 0 -1 0 0 1 0 0 -1 0 1 0 0 0 1 0 "
         in="fbSourceGraphic" />
    </filter>
  </defs>
  <sodipodi:namedview
     id="namedview56"
     pagecolor="#505050"
     bordercolor="#eeeeee"
     borderopacity="1"
     inkscape:showpageshadow="0"
     inkscape:pageopacity="0"
     inkscape:pagecheckerboard="0"
     inkscape:deskcolor="#505050"
     showguides="true"
     inkscape:zoom="1.2429078"
     inkscape:cx="217.63481"
     inkscape:cy="255.85164"
     inkscape:window-width="1920"
     inkscape:window-height="1027"
     inkscape:window-x="0"
     inkscape:window-y="25"
     inkscape:window-maximized="0"
     inkscape:current-layer="svg56">
    <sodipodi:guide
       position="575.45581,351.32573"
       orientation="0,-1"
       id="guide100"
       inkscape:locked="false" />
    <sodipodi:guide
       position="566.63765,351.32573"
       orientation="0,-1"
       id="guide101"
       inkscape:locked="false" />
  </sodipodi:namedview>
  <mask
     id="mask-powermask-path-effect1"
     maskUnits="userSpaceOnUse"
     x="-0.552734"
     y="0.152832"
     width="1580"
     height="423"
     fill="#000000">
    <path
       id="mask-powermask-path-effect1_box"
       style="fill:#ffffff;fill-opacity:1"
       d="M -1.2619902,-0.55642192 H 567.43939 V 424.39302 H -1.2619902 Z" />
    <rect
       fill="#ffffff"
       x="-0.55273402"
       y="0.152832"
       width="560"
       height="423"
       id="rect1"
       d="M -0.55273402,0.152832 H 559.44727 V 423.15283 H -0.55273402 Z"
       style="" />
    <path
       fill-rule="evenodd"
       clip-rule="evenodd"
       d="m 203.098,172.433 -14.266,5.997 -8.378,5.543 -18.229,12.446 L 92.4786,94.7054 V 94.5922 L 89.648,90.406 Z"
       id="path1"
       style="" />
    <path
       fill-rule="evenodd"
       clip-rule="evenodd"
       d="m 314.624,157.725 -27.06,0.226 -28.759,0.34 0.453,-2.15 28.419,-147.98817 26.721,147.42217 0.339,2.15 z"
       id="path2"
       style="" />
    <path
       fill-rule="evenodd"
       clip-rule="evenodd"
       d="m 483.781,90.406 -68.614,99.903 -18.682,-11.993 -3.283,-2.036 -18.909,-6.789 z"
       id="path3"
       style="" />
    <path
       fill-rule="evenodd"
       clip-rule="evenodd"
       d="M 193.474,321.892 7.44727,288.289 137.089,267.245 l 21.626,21.044 z"
       id="path4"
       style="" />
    <path
       fill-rule="evenodd"
       clip-rule="evenodd"
       d="m 551.791,288.828 -172.101,29.303 29.099,-29.303 19.474,-20.026 z"
       id="path5"
       style="" />
    <path
       fill-rule="evenodd"
       clip-rule="evenodd"
       d="m 120.219,241.336 c -9.171,-4.865 -20.2674,-8.825 -32.8353,-9.843 -32.6085,-2.602 -47.554,-37.902 -51.5169,-49.216 -0.4529,-1.245 -0.7925,-2.376 -1.1322,-3.508 0,0 28.7589,32.132 58.9897,23.194 17.2097,-5.091 40.0817,-1.584 56.6117,2.263"
       id="path6"
       style="" />
    <path
       fill-rule="evenodd"
       clip-rule="evenodd"
       d="m 205.476,171.528 c 0,0 2.944,-32.584 -23.664,-71.6178 -26.72,-39.0336 4.756,-66.5268 4.756,-66.5268 0,0 -5.435,43.4461 28.645,59.5121 34.081,16.0655 44.158,63.2455 44.158,63.2455"
       id="path7"
       style="" />
    <path
       fill-rule="evenodd"
       clip-rule="evenodd"
       d="m 366.028,166.21 c 6.567,-16.066 14.945,-43.219 8.718,-65.395 -9.398,-33.716 22.532,-63.2458 22.532,-63.2458 0,0 -45.743,6.1096 -48.46,45.7089 -2.604,39.5989 -34.42,72.2969 -34.42,72.2969"
       id="path8"
       style="" />
    <path
       fill-rule="evenodd"
       clip-rule="evenodd"
       d="m 433.283,201.963 c 11.436,-3.281 25.362,-8.938 39.855,-18.329 36.798,-23.759 69.519,3.621 69.519,3.621 0,0 -44.61,-6.788 -63.066,30.548 -4.302,8.825 -10.643,15.953 -17.662,21.61"
       id="path9"
       style="" />
    <path
       d="m 337.744,153.992 51.29,18.895 68.501,43.785 0.339,28.399 -168.59,170.616 -173.12,-167.901 -0.226,-26.814 68.84,-45.822 47.215,-20.026 z"
       id="path10"
       style="" />
  </mask>
  <g
     id="g1"
     transform="translate(10.69999,1.3004219)">
    <path
       d="m 203.098,172.433 2.794,6.646 c 2.402,-1.009 4.072,-3.237 4.369,-5.825 0.296,-2.589 -0.827,-5.136 -2.939,-6.663 z m -14.266,5.997 -2.793,-6.646 c -0.414,0.173 -0.811,0.386 -1.185,0.633 z m -8.378,5.543 -3.979,-6.012 c -0.029,0.019 -0.058,0.039 -0.086,0.059 z m -18.229,12.446 -5.946,4.077 c 2.248,3.279 6.727,4.119 10.011,1.877 z M 92.4786,94.7054 h -7.2092 c 0,1.4554 0.4405,2.8767 1.2635,4.077 z m 0,-0.1132 h 7.2093 c 0,-1.4393 -0.4309,-2.8458 -1.2372,-4.0382 z M 89.648,90.406 93.872,84.5639 c -2.8339,-2.049 -6.7296,-1.7687 -9.2409,0.6649 -2.5113,2.4335 -2.914,6.3185 -0.9552,9.2154 z m 224.976,67.319 v -7.209 h -0.06 z m -27.06,0.226 -0.061,-7.209 c -0.008,0 -0.016,0 -0.024,0.001 z m -28.759,0.34 -7.055,-1.487 c -0.451,2.141 0.095,4.371 1.483,6.062 1.388,1.69 3.469,2.659 5.657,2.633 z m 0.453,-2.15 7.054,1.486 c 0.009,-0.042 0.017,-0.084 0.026,-0.126 z M 287.677,8.15283 294.771,6.86708 c -0.62,-3.4158 -3.585,-5.905316 -7.057,-5.923403 -3.471,-0.018086 -6.462,2.440393 -7.117,5.849553 z m 27.06,149.57217 v 7.209 c 2.109,0 4.112,-0.923 5.482,-2.526 1.369,-1.603 1.968,-3.725 1.639,-5.808 z m 169.044,-67.319 5.942,4.0815 c 1.985,-2.8903 1.603,-6.7896 -0.905,-9.2393 -2.509,-2.4497 -6.416,-2.7394 -9.259,-0.6863 z m -68.614,99.903 -3.895,6.067 c 3.278,2.104 7.633,1.225 9.838,-1.985 z m -18.682,-11.993 3.895,-6.066 c -0.032,-0.02 -0.063,-0.04 -0.095,-0.06 z m -3.283,-2.036 3.799,-6.127 c -0.43,-0.266 -0.887,-0.487 -1.363,-0.658 z m -18.909,-6.789 -4.221,-5.844 c -2.169,1.567 -3.292,4.205 -2.917,6.854 0.374,2.648 2.185,4.872 4.702,5.776 z m -180.819,152.401 -1.281,7.095 c 3.124,0.564 6.249,-0.982 7.697,-3.807 1.448,-2.825 0.877,-6.265 -1.405,-8.471 z M 7.44727,288.289 6.29214,281.173 c -3.46608,0.563 -6.022616,3.541 -6.053842,7.052 -0.031225,3.512 2.471942,6.535 5.927472,7.159 z m 129.64173,-21.044 5.028,-5.166 c -1.637,-1.593 -3.93,-2.316 -6.183,-1.95 z m 21.626,21.044 -5.028,5.167 c 0.005,0.006 0.011,0.011 0.017,0.017 z m 393.076,0.539 1.21,7.107 c 3.475,-0.592 12.95237,-3.81114 12.93837,-7.33714 -0.014,-3.525 -9.51537,-6.32186 -12.99537,-6.88586 z m -172.101,29.303 -5.115,-5.079 c -2.209,2.223 -2.727,5.619 -1.283,8.401 1.443,2.781 4.519,4.311 7.608,3.785 z m 29.099,-29.303 5.115,5.08 c 0.018,-0.018 0.036,-0.036 0.053,-0.054 z m 19.474,-20.026 1.154,-7.116 c -2.322,-0.377 -4.682,0.403 -6.322,2.09 z M 116.84,247.705 c 3.518,1.866 7.882,0.527 9.747,-2.99 1.866,-3.518 0.527,-7.882 -2.99,-9.747 z m -29.4563,-16.212 0.5822,-7.186 h -0.0087 z m -51.5169,-49.216 6.804,-2.383 c -0.0096,-0.028 -0.0194,-0.055 -0.0294,-0.083 z m -1.1322,-3.508 5.3718,-4.808 c -2.2525,-2.516 -5.9503,-3.132 -8.8966,-1.48 -2.9463,1.651 -4.3512,5.126 -3.38,8.361 z m 58.9897,23.194 2.044,6.914 0.0011,-0.001 z m 54.9777,9.285 c 3.878,0.902 7.753,-1.51 8.656,-5.388 0.902,-3.878 -1.51,-7.753 -5.388,-8.656 z m 49.594,-40.368 c -0.358,3.965 2.566,7.47 6.532,7.828 3.965,0.359 7.47,-2.566 7.828,-6.531 z m -16.484,-70.9698 5.957,-4.0606 c -0.002,-0.0039 -0.005,-0.0078 -0.008,-0.0117 z m 4.756,-66.5268 7.153,0.8949 c 0.372,-2.9677 -1.128,-5.8564 -3.769,-7.2604 -2.641,-1.404 -5.874,-1.0316 -8.127,0.9359 z m 65.753,124.2636 c 0.831,3.894 4.662,6.376 8.556,5.544 3.893,-0.831 6.376,-4.662 5.544,-8.556 z m 107.033,5.836 c -1.506,3.685 0.26,7.894 3.946,9.401 3.686,1.506 7.895,-0.26 9.401,-3.946 z m 15.392,-62.668 -6.945,1.936 0.004,0.013 z m 22.532,-63.2458 4.895,5.2927 c 2.307,-2.1339 2.966,-5.5166 1.628,-8.3606 -1.337,-2.844 -4.363,-4.4939 -7.478,-4.0779 z m -48.46,45.7089 -7.193,-0.4935 c 0,0.0068 -10e-4,0.0136 -10e-4,0.0204 z m 82.477,111.7559 c -3.828,1.098 -6.04,5.09 -4.942,8.918 1.098,3.827 5.091,6.039 8.918,4.941 z m 41.843,-11.4 -3.911,-6.056 -0.01,0.006 z m 69.519,3.621 -1.084,7.127 c 3.196,0.487 6.326,-1.215 7.656,-4.162 1.329,-2.947 0.534,-6.419 -1.945,-8.494 z m -63.066,30.548 -6.462,-3.195 -0.018,0.036 z m -22.186,15.996 c -3.1,2.499 -3.588,7.037 -1.09,10.137 2.498,3.101 7.037,3.589 10.137,1.09 z m -119.661,-79.807 2.492,-6.765 c -0.822,-0.303 -1.693,-0.453 -2.569,-0.444 z m 51.29,18.895 3.883,-6.075 c -0.437,-0.279 -0.904,-0.511 -1.391,-0.69 z m 68.501,43.785 7.209,-0.086 c -0.029,-2.429 -1.28,-4.68 -3.326,-5.988 z m 0.339,28.399 5.129,5.067 c 1.354,-1.371 2.103,-3.227 2.08,-5.154 z m -168.59,170.616 -5.019,5.175 c 2.839,2.754 7.367,2.705 10.147,-0.108 z m -173.12,-167.901 -7.209,0.061 c 0.017,1.929 0.806,3.771 2.19,5.114 z m -0.226,-26.814 -3.995,-6.002 c -2.026,1.349 -3.235,3.629 -3.214,6.062 z m 68.84,-45.822 -2.815,-6.637 c -0.412,0.174 -0.807,0.387 -1.179,0.635 z m 47.215,-20.026 -0.077,-7.209 c -0.942,0.01 -1.872,0.204 -2.738,0.572 z m -31.688,10.663 -14.266,5.997 5.587,13.292 14.266,-5.997 z m -15.451,6.63 -8.379,5.544 7.957,12.025 8.378,-5.544 z m -8.465,5.603 -18.229,12.445 8.13,11.908 18.229,-12.446 z M 168.17,192.342 98.4243,90.6284 86.5329,98.7824 156.279,200.496 Z M 99.6879,94.7054 V 94.5922 H 85.2694 v 0.1132 z m -1.2372,-4.1514 -2.8306,-4.1862 -11.9442,8.0764 2.8306,4.1862 z m -13.0267,5.6942 113.45,82.0268 8.448,-11.684 -113.45,-82.0271 z m 229.14,54.2678 -27.061,0.226 0.121,14.418 27.06,-0.226 z m -27.085,0.227 -28.759,0.339 0.17,14.417 28.759,-0.339 z m -21.62,9.034 0.453,-2.15 -14.109,-2.972 -0.453,2.149 z m 0.479,-2.276 L 294.757,9.51243 280.597,6.79323 252.178,154.781 Z M 280.583,9.43859 307.304,156.861 321.491,154.29 294.771,6.86708 Z M 307.277,156.7 l 0.339,2.15 14.242,-2.25 -0.339,-2.15 z m 7.46,-6.184 h -0.113 v 14.418 h 0.113 z m 163.101,-64.1914 -68.614,99.9034 11.886,8.163 68.613,-99.9035 z m -58.776,97.9184 -18.682,-11.993 -7.789,12.133 18.681,11.993 z m -18.777,-12.053 -3.284,-2.037 -7.599,12.253 3.283,2.037 z m -4.647,-2.695 -18.909,-6.789 -4.872,13.571 18.909,6.788 z M 378.515,175.336 488.002,96.2501 479.559,84.5619 370.072,163.647 Z M 194.756,314.798 8.72876,281.195 6.16577,295.384 192.193,328.987 Z M 8.60239,295.406 138.244,274.361 135.934,260.129 6.29214,281.173 Z m 123.45861,-22.994 21.626,21.044 10.055,-10.333 -21.625,-21.044 z m 21.643,21.061 34.76,33.603 10.021,-10.367 -34.76,-33.603 z m 396.877,-11.752 -172.101,29.303 2.42,14.214 172.101,-29.303 z m -165.775,41.49 29.098,-29.303 -10.231,-10.16 -29.098,29.304 z m 29.151,-29.357 19.475,-20.026 -10.337,-10.052 -19.475,20.026 z m 13.153,-17.936 123.527,20.026 2.307,-14.232 -123.527,-20.026 z m -303.513,-40.95 c -9.855,-5.228 -21.898,-9.548 -35.6311,-10.661 l -1.1644,14.372 c 11.4025,0.924 21.5515,4.523 30.0385,9.026 z M 87.9572,224.307 C 74.3741,223.223 64.1431,215.351 56.5501,205.695 48.9374,196.015 44.5279,185.196 42.6708,179.894 l -13.6079,4.766 c 2.1057,6.012 7.1504,18.5 16.1533,29.948 9.0226,11.474 22.5686,22.553 41.594,24.071 z M 42.6414,179.811 c -0.3725,-1.023 -0.6576,-1.967 -1.002,-3.115 l -13.8096,4.146 c 0.3349,1.116 0.7292,2.435 1.2624,3.9 z m -7.9068,-1.042 c -5.3719,4.808 -5.3702,4.81 -5.3684,4.812 7e-4,0.001 0.0026,0.003 0.0041,0.005 0.0029,0.003 0.0063,0.007 0.0102,0.011 0.0077,0.009 0.0172,0.019 0.0284,0.032 0.0225,0.024 0.052,0.057 0.0885,0.097 0.073,0.08 0.1738,0.189 0.3017,0.326 0.2557,0.273 0.6198,0.656 1.0858,1.131 0.9311,0.949 2.2734,2.267 3.9733,3.808 3.3866,3.071 8.2604,7.087 14.1897,10.825 11.6244,7.33 28.6408,14.406 46.7204,9.061 L 91.6802,195.05 c -12.1512,3.592 -24.6296,-0.928 -34.9423,-7.43 -5.0393,-3.178 -9.2447,-6.636 -12.1951,-9.311 -1.4686,-1.331 -2.6092,-2.453 -3.369,-3.227 -0.3794,-0.386 -0.6627,-0.685 -0.843,-0.878 -0.0902,-0.096 -0.1545,-0.166 -0.1922,-0.207 -0.0188,-0.021 -0.031,-0.034 -0.0364,-0.04 -0.0027,-0.003 -0.0037,-0.004 -0.003,-0.004 3e-4,0.001 0.0011,0.002 0.0023,0.003 6e-4,0.001 0.0019,0.002 0.0022,0.002 0.0013,0.002 0.0027,0.003 -5.3691,4.811 z m 61.0348,30.107 C 111,204.37 132.211,207.41 148.702,211.248 l 3.268,-14.044 c -16.569,-3.855 -41.102,-7.831 -60.2909,-2.154 z M 205.476,171.528 c 7.18,0.649 7.181,0.646 7.181,0.642 v -0.007 c 10e-4,-0.006 10e-4,-0.011 0.002,-0.018 0.001,-0.012 0.002,-0.027 0.004,-0.044 0.002,-0.033 0.006,-0.074 0.01,-0.123 0.007,-0.098 0.016,-0.228 0.026,-0.388 0.019,-0.321 0.041,-0.765 0.058,-1.325 0.033,-1.121 0.044,-2.709 -0.033,-4.713 -0.152,-4.005 -0.655,-9.679 -2.031,-16.601 -2.756,-13.858 -9.01,-32.69 -22.924,-53.1014 l -11.914,8.1214 c 12.694,18.622 18.272,35.599 20.696,47.792 1.214,6.103 1.639,11.015 1.765,14.339 0.064,1.661 0.053,2.924 0.029,3.737 -0.012,0.407 -0.028,0.702 -0.038,0.877 -0.006,0.088 -0.01,0.146 -0.012,0.173 -10e-4,0.014 -10e-4,0.02 -10e-4,0.019 V 170.9 c 10e-4,-0.003 10e-4,-0.006 10e-4,-0.009 0,-0.002 0.001,-0.004 0.001,-0.005 0,-0.003 0,-0.006 7.18,0.642 z M 187.761,95.8379 c -11.92,-17.4127 -10.606,-31.5277 -6.864,-41.2363 1.937,-5.0277 4.61,-9.0535 6.814,-11.8267 1.095,-1.3781 2.055,-2.4213 2.715,-3.0973 0.329,-0.3373 0.582,-0.5809 0.736,-0.7268 0.078,-0.0729 0.131,-0.1211 0.156,-0.1443 0.013,-0.0116 0.019,-0.0169 0.018,-0.0158 -0.001,5e-4 -0.003,0.0027 -0.007,0.0064 -0.003,0.0019 -0.005,0.0041 -0.008,0.0068 -0.002,0.0013 -0.004,0.0036 -0.005,0.0043 -0.003,0.0024 -0.006,0.0049 -4.748,-5.4248 -4.743,-5.4296 -4.746,-5.4269 -4.749,-5.4241 -10e-4,0.0011 -0.005,0.004 -0.007,0.0062 -0.005,0.0043 -0.011,0.0091 -0.016,0.0143 -0.012,0.0105 -0.026,0.0226 -0.042,0.0365 -0.031,0.0278 -0.07,0.0626 -0.116,0.1042 -0.092,0.0833 -0.212,0.1941 -0.359,0.3321 -0.293,0.2759 -0.69,0.6611 -1.17,1.1519 -0.957,0.98 -2.248,2.3897 -3.686,4.1989 -2.862,3.6015 -6.389,8.8887 -8.98,15.6135 -5.317,13.7963 -6.38,32.9448 8.42,54.5661 z m -1.193,-62.4545 c -7.154,-0.8948 -7.154,-0.8918 -7.155,-0.8886 v 0.0072 c -0.001,0.0052 -0.002,0.011 -0.003,0.0175 -0.001,0.013 -0.003,0.0287 -0.005,0.047 -0.005,0.0366 -0.01,0.0838 -0.016,0.1412 -0.013,0.115 -0.03,0.2711 -0.049,0.4663 -0.038,0.3902 -0.086,0.9373 -0.132,1.6237 -0.092,1.3712 -0.179,3.3066 -0.166,5.6636 0.025,4.6937 0.442,11.1676 2.036,18.2389 3.183,14.1188 11.291,31.3963 31.061,40.7163 l 6.149,-13.042 c -14.311,-6.746 -20.525,-19.2246 -23.145,-30.8452 -1.307,-5.7985 -1.662,-11.1903 -1.683,-15.1447 -0.01,-1.9671 0.062,-3.5515 0.134,-4.619 0.036,-0.533 0.071,-0.935 0.096,-1.189 0.013,-0.127 0.022,-0.2168 0.028,-0.2672 0.003,-0.0253 0.004,-0.0406 0.005,-0.0459 v -3e-4 c 0,0.0012 0,0.0031 -0.001,0.0056 v 0.0043 c 0,0.0025 -0.001,0.0052 -7.154,-0.8897 z m 25.571,66.0331 c 14.882,7.0155 24.982,21.1105 31.462,34.3045 3.194,6.503 5.392,12.552 6.789,16.97 0.696,2.203 1.188,3.986 1.502,5.198 0.157,0.606 0.269,1.068 0.339,1.368 0.035,0.149 0.06,0.258 0.075,0.324 0.007,0.033 0.012,0.055 0.015,0.066 0.001,0.006 0.001,0.009 0.001,0.009 v -0.003 l -0.001,-0.002 c 0,-0.002 0,-0.004 7.05,-1.51 7.05,-1.506 7.05,-1.508 7.049,-1.51 0,-0.002 -0.001,-0.004 -0.001,-0.006 -10e-4,-0.005 -0.002,-0.01 -0.004,-0.015 -0.002,-0.012 -0.005,-0.026 -0.009,-0.043 -0.007,-0.035 -0.018,-0.081 -0.03,-0.137 -0.026,-0.114 -0.062,-0.272 -0.109,-0.472 -0.094,-0.399 -0.231,-0.966 -0.417,-1.682 -0.37,-1.431 -0.931,-3.459 -1.712,-5.93 -1.558,-4.93 -4.009,-11.681 -7.595,-18.981 -7.078,-14.412 -19.057,-31.94 -38.255,-40.9905 z m 160.562,69.5215 c 3.399,-8.317 7.318,-19.615 9.573,-31.825 2.243,-12.142 2.938,-25.693 -0.587,-38.2471 l -13.882,3.8981 c 2.702,9.621 2.322,20.735 0.29,31.73 -2.018,10.928 -5.573,21.239 -8.741,28.989 z m 8.989,-70.0587 c -3.949,-14.17 0.674,-27.8798 7.015,-38.6811 3.129,-5.3305 6.546,-9.7197 9.186,-12.7754 1.315,-1.5219 2.423,-2.6971 3.185,-3.4763 0.381,-0.3892 0.675,-0.6784 0.864,-0.8615 0.094,-0.0915 0.162,-0.1564 0.202,-0.1939 0.019,-0.0187 0.032,-0.0305 0.037,-0.0354 0.003,-0.0025 0.004,-0.0032 0.003,-0.0022 -0.001,6e-4 -0.002,0.0015 -0.004,0.0029 0,7e-4 -0.002,0.0021 -0.002,0.0024 -0.002,0.0015 -0.003,0.0031 -4.898,-5.2896 -4.895,-5.2927 -4.897,-5.2908 -4.899,-5.2889 -0.001,8e-4 -0.004,0.0029 -0.005,0.0045 -0.004,0.0032 -0.008,0.0068 -0.012,0.0109 -0.009,0.0083 -0.02,0.0183 -0.032,0.0302 -0.026,0.0237 -0.059,0.0547 -0.099,0.0929 -0.081,0.0764 -0.191,0.1814 -0.328,0.3144 -0.274,0.266 -0.658,0.6441 -1.131,1.1282 -0.947,0.9674 -2.26,2.3626 -3.792,4.136 -3.054,3.5347 -7.031,8.6352 -10.71,14.9016 -7.274,12.3926 -13.917,30.3057 -8.469,49.852 z m 15.588,-61.3101 c -0.955,-7.1458 -0.958,-7.1453 -0.961,-7.1449 -0.002,2e-4 -0.005,7e-4 -0.008,0.001 -0.005,7e-4 -0.011,0.0016 -0.018,0.0025 -0.013,0.0018 -0.03,0.0041 -0.049,0.0068 -0.038,0.0053 -0.087,0.0123 -0.147,0.0212 -0.12,0.0176 -0.282,0.0425 -0.485,0.0754 -0.406,0.0657 -0.973,0.1638 -1.68,0.3014 -1.412,0.2747 -3.39,0.7085 -5.755,1.359 -4.704,1.2944 -11.068,3.4817 -17.583,7.0657 -13.08,7.1948 -27.383,20.4531 -28.967,43.5273 l 14.385,0.9871 c 1.134,-16.5251 11.06,-26.1213 21.531,-31.8811 5.26,-2.8934 10.502,-4.7084 14.459,-5.797 1.966,-0.541 3.583,-0.8939 4.684,-1.108 0.549,-0.1068 0.967,-0.1787 1.233,-0.2217 0.132,-0.0215 0.227,-0.0358 0.28,-0.0437 0.027,-0.004 0.044,-0.0063 0.05,-0.0071 0.002,-4e-4 0.003,-5e-4 0,-10e-5 -0.001,10e-5 -0.003,4e-4 -0.005,7e-4 -0.002,2e-4 -0.004,5e-4 -0.005,6e-4 -0.002,4e-4 -0.005,7e-4 -0.959,-7.1451 z M 341.624,82.805 c -1.191,18.11 -9.124,34.997 -17.09,47.625 -3.949,6.26 -7.823,11.341 -10.697,14.844 -1.435,1.749 -2.616,3.097 -3.424,3.994 -0.403,0.448 -0.714,0.783 -0.916,0.999 -0.101,0.108 -0.175,0.185 -0.22,0.233 -0.022,0.023 -0.038,0.039 -0.045,0.047 -0.004,0.004 -0.006,0.006 -0.007,0.006 0,0 10e-4,0 0.002,-0.001 l 0.001,-0.002 c 0.002,-0.001 0.003,-0.002 5.17,5.025 5.167,5.028 5.168,5.026 5.17,5.025 0.001,-0.001 0.002,-0.003 0.004,-0.004 0.002,-0.003 0.006,-0.007 0.01,-0.011 0.007,-0.007 0.017,-0.017 0.028,-0.029 0.023,-0.024 0.053,-0.055 0.091,-0.095 0.076,-0.079 0.181,-0.19 0.313,-0.331 0.265,-0.283 0.641,-0.689 1.112,-1.212 0.942,-1.046 2.268,-2.562 3.857,-4.497 3.172,-3.865 7.415,-9.434 11.746,-16.298 8.592,-13.621 17.869,-32.883 19.282,-54.3718 z m 93.647,126.088 c 12.046,-3.456 26.636,-9.391 41.787,-19.208 l -7.841,-12.101 c -13.834,8.965 -27.097,14.344 -37.922,17.45 z m 41.777,-19.202 c 16.232,-10.481 31.317,-9.665 42.557,-6.257 5.688,1.725 10.379,4.121 13.643,6.088 1.624,0.98 2.874,1.84 3.694,2.435 0.409,0.298 0.709,0.528 0.894,0.672 0.092,0.072 0.155,0.123 0.187,0.149 0.017,0.014 0.026,0.021 0.027,0.022 0.001,0 -10e-4,-0.001 -0.004,-0.003 -0.001,-0.002 -0.003,-0.003 -0.006,-0.005 -10e-4,-0.001 -0.004,-0.003 -0.004,-0.004 -0.003,-0.002 -0.005,-0.004 4.621,-5.533 4.627,-5.529 4.624,-5.531 4.621,-5.534 -10e-4,-0.001 -0.004,-0.003 -0.006,-0.005 -0.005,-0.004 -0.01,-0.008 -0.016,-0.013 -0.011,-0.009 -0.024,-0.02 -0.039,-0.033 -0.031,-0.025 -0.069,-0.056 -0.116,-0.094 -0.093,-0.075 -0.218,-0.176 -0.375,-0.298 -0.313,-0.246 -0.752,-0.581 -1.309,-0.986 -1.114,-0.809 -2.708,-1.902 -4.726,-3.118 -4.022,-2.424 -9.81,-5.388 -16.902,-7.538 -14.321,-4.342 -33.996,-5.337 -54.562,7.942 z m 65.609,-2.436 c 1.085,-7.127 1.082,-7.128 1.078,-7.128 -10e-4,0 -0.005,-0.001 -0.007,-0.001 -0.006,-0.001 -0.012,-0.002 -0.019,-0.003 -0.014,-0.002 -0.03,-0.005 -0.049,-0.007 -0.038,-0.006 -0.088,-0.013 -0.147,-0.021 -0.12,-0.017 -0.282,-0.038 -0.484,-0.063 -0.404,-0.049 -0.97,-0.112 -1.68,-0.176 -1.419,-0.128 -3.421,-0.258 -5.865,-0.287 -4.868,-0.058 -11.593,0.286 -18.992,1.919 -14.852,3.277 -32.874,11.899 -43.363,33.12 l 12.925,6.39 c 7.966,-16.116 21.477,-22.768 33.545,-25.43 6.06,-1.338 11.641,-1.63 15.714,-1.582 2.027,0.024 3.654,0.132 4.747,0.231 0.546,0.049 0.956,0.095 1.215,0.127 0.129,0.015 0.22,0.027 0.27,0.034 0.025,0.004 0.04,0.006 0.045,0.007 h -10e-4 c -0.001,-0.001 -0.003,-0.001 -0.006,-0.001 -10e-4,0 -0.004,-10e-4 -0.005,-10e-4 -0.002,0 -0.005,-0.001 1.079,-7.128 z m -69.546,27.389 c -3.745,7.681 -9.327,14.015 -15.706,19.155 l 9.047,11.227 c 7.661,-6.173 14.76,-14.095 19.62,-24.064 z m -137.859,-53.887 51.29,18.895 4.984,-13.53 -51.29,-18.895 z m 49.9,18.204 68.5,43.786 7.766,-12.149 -68.501,-43.786 z m 65.174,37.797 0.34,28.399 14.417,-0.173 -0.339,-28.398 z m 2.42,23.245 -168.59,170.617 10.256,10.134 168.591,-170.616 z M 294.303,410.512 121.184,242.611 l -10.039,10.35 173.12,167.901 z m -170.93,-162.787 -0.226,-26.814 -14.418,0.121 0.226,26.815 z m -3.44,-20.752 68.84,-45.822 -7.989,-12.003 -68.841,45.822 z m 67.66,-45.187 47.215,-20.025 -5.63,-13.274 -47.215,20.026 z m 44.477,-19.454 105.751,-1.131 -0.154,-14.418 -105.751,1.132 z"
       fill="#ffffff"
       mask="url(#mask-powermask-path-effect1)"
       id="path21"
       style="display:inline;fill:#ffffff;fill-opacity:1;stroke:#ffffff;stroke-opacity:1"
       inkscape:label="mask"
       sodipodi:nodetypes="cccccccccccccccccccccccccccccccccccccccccccccccccscccccccccccccccccccccccccccccccsccccsccccccccccccsccccccccccccccccccccccccccccccccccccccccccccccccccscccccccccccccccccccccccccccccccccccccccccccccccccccccccccccccccccccccccccccccccccccccccccccccccccccccccccccccccccccccccccccccccccccccccccccccccccccccccccccccccccccccccccccccccccccccccccccccccccccccccccccccccccccccccccccccccccccccccccccccscccccccccccsccccccccccsccccccccccccscsscsscccccccccccccccccccccccccccccscccccccccscccsccccsccccccsccccccccccccccccccccccccccccscccccsccccccsccccccccccscscscsccccsscsccccccccsccssccccccccccccccccccccscccccccccccscscccscccccscccccssccccccccccccccccccccccccccccccccccccccccccccccccccc"
       inkscape:path-effect="#path-effect1"
       inkscape:original-d="m 203.098,172.433 2.794,6.646 c 2.402,-1.009 4.072,-3.237 4.369,-5.825 0.296,-2.589 -0.827,-5.136 -2.939,-6.663 z m -14.266,5.997 -2.793,-6.646 c -0.414,0.173 -0.811,0.386 -1.185,0.633 z m -8.378,5.543 -3.979,-6.012 c -0.029,0.019 -0.058,0.039 -0.086,0.059 z m -18.229,12.446 -5.946,4.077 c 2.248,3.279 6.727,4.119 10.011,1.877 z M 92.4786,94.7054 h -7.2092 c 0,1.4554 0.4405,2.8767 1.2635,4.077 z m 0,-0.1132 h 7.2093 c 0,-1.4393 -0.4309,-2.8458 -1.2372,-4.0382 z M 89.648,90.406 93.872,84.5639 c -2.8339,-2.049 -6.7296,-1.7687 -9.2409,0.6649 -2.5113,2.4335 -2.914,6.3185 -0.9552,9.2154 z m 224.976,67.319 v -7.209 h -0.06 z m -27.06,0.226 -0.061,-7.209 c -0.008,0 -0.016,0 -0.024,0.001 z m -28.759,0.34 -7.055,-1.487 c -0.451,2.141 0.095,4.371 1.483,6.062 1.388,1.69 3.469,2.659 5.657,2.633 z m 0.453,-2.15 7.054,1.486 c 0.009,-0.042 0.017,-0.084 0.026,-0.126 z M 287.677,8.15283 294.771,6.86708 c -0.62,-3.4158 -3.585,-5.905316 -7.057,-5.923403 -3.471,-0.018086 -6.462,2.440393 -7.117,5.849553 z m 27.06,149.57217 v 7.209 c 2.109,0 4.112,-0.923 5.482,-2.526 1.369,-1.603 1.968,-3.725 1.639,-5.808 z m 169.044,-67.319 5.942,4.0815 c 1.985,-2.8903 1.603,-6.7896 -0.905,-9.2393 -2.509,-2.4497 -6.416,-2.7394 -9.259,-0.6863 z m -68.614,99.903 -3.895,6.067 c 3.278,2.104 7.633,1.225 9.838,-1.985 z m -18.682,-11.993 3.895,-6.066 c -0.032,-0.02 -0.063,-0.04 -0.095,-0.06 z m -3.283,-2.036 3.799,-6.127 c -0.43,-0.266 -0.887,-0.487 -1.363,-0.658 z m -18.909,-6.789 -4.221,-5.844 c -2.169,1.567 -3.292,4.205 -2.917,6.854 0.374,2.648 2.185,4.872 4.702,5.776 z m -180.819,152.401 -1.281,7.095 c 3.124,0.564 6.249,-0.982 7.697,-3.807 1.448,-2.825 0.877,-6.265 -1.405,-8.471 z M 7.44727,288.289 6.29214,281.173 c -3.46608,0.563 -6.022616,3.541 -6.053842,7.052 -0.031225,3.512 2.471942,6.535 5.927472,7.159 z m 129.64173,-21.044 5.028,-5.166 c -1.637,-1.593 -3.93,-2.316 -6.183,-1.95 z m 21.626,21.044 -5.028,5.167 c 0.005,0.006 0.011,0.011 0.017,0.017 z m 393.076,0.539 1.21,7.107 c 3.475,-0.592 12.95237,-3.81114 12.93837,-7.33714 -0.014,-3.525 -9.51537,-6.32186 -12.99537,-6.88586 z m -172.101,29.303 -5.115,-5.079 c -2.209,2.223 -2.727,5.619 -1.283,8.401 1.443,2.781 4.519,4.311 7.608,3.785 z m 29.099,-29.303 5.115,5.08 c 0.018,-0.018 0.036,-0.036 0.053,-0.054 z m 19.474,-20.026 1.154,-7.116 c -2.322,-0.377 -4.682,0.403 -6.322,2.09 z M 116.84,247.705 c 3.518,1.866 7.882,0.527 9.747,-2.99 1.866,-3.518 0.527,-7.882 -2.99,-9.747 z m -29.4563,-16.212 0.5822,-7.186 h -0.0087 z m -51.5169,-49.216 6.804,-2.383 c -0.0096,-0.028 -0.0194,-0.055 -0.0294,-0.083 z m -1.1322,-3.508 5.3718,-4.808 c -2.2525,-2.516 -5.9503,-3.132 -8.8966,-1.48 -2.9463,1.651 -4.3512,5.126 -3.38,8.361 z m 58.9897,23.194 2.044,6.914 0.0011,-0.001 z m 54.9777,9.285 c 3.878,0.902 7.753,-1.51 8.656,-5.388 0.902,-3.878 -1.51,-7.753 -5.388,-8.656 z m 49.594,-40.368 c -0.358,3.965 2.566,7.47 6.532,7.828 3.965,0.359 7.47,-2.566 7.828,-6.531 z m -16.484,-70.9698 5.957,-4.0606 c -0.002,-0.0039 -0.005,-0.0078 -0.008,-0.0117 z m 4.756,-66.5268 7.153,0.8949 c 0.372,-2.9677 -1.128,-5.8564 -3.769,-7.2604 -2.641,-1.404 -5.874,-1.0316 -8.127,0.9359 z m 65.753,124.2636 c 0.831,3.894 4.662,6.376 8.556,5.544 3.893,-0.831 6.376,-4.662 5.544,-8.556 z m 107.033,5.836 c -1.506,3.685 0.26,7.894 3.946,9.401 3.686,1.506 7.895,-0.26 9.401,-3.946 z m 15.392,-62.668 -6.945,1.936 0.004,0.013 z m 22.532,-63.2458 4.895,5.2927 c 2.307,-2.1339 2.966,-5.5166 1.628,-8.3606 -1.337,-2.844 -4.363,-4.4939 -7.478,-4.0779 z m -48.46,45.7089 -7.193,-0.4935 c 0,0.0068 -10e-4,0.0136 -10e-4,0.0204 z m 82.477,111.7559 c -3.828,1.098 -6.04,5.09 -4.942,8.918 1.098,3.827 5.091,6.039 8.918,4.941 z m 41.843,-11.4 -3.911,-6.056 -0.01,0.006 z m 69.519,3.621 -1.084,7.127 c 3.196,0.487 6.326,-1.215 7.656,-4.162 1.329,-2.947 0.534,-6.419 -1.945,-8.494 z m -63.066,30.548 -6.462,-3.195 -0.018,0.036 z m -22.186,15.996 c -3.1,2.499 -3.588,7.037 -1.09,10.137 2.498,3.101 7.037,3.589 10.137,1.09 z m -119.661,-79.807 2.492,-6.765 c -0.822,-0.303 -1.693,-0.453 -2.569,-0.444 z m 51.29,18.895 3.883,-6.075 c -0.437,-0.279 -0.904,-0.511 -1.391,-0.69 z m 68.501,43.785 7.209,-0.086 c -0.029,-2.429 -1.28,-4.68 -3.326,-5.988 z m 0.339,28.399 5.129,5.067 c 1.354,-1.371 2.103,-3.227 2.08,-5.154 z m -168.59,170.616 -5.019,5.175 c 2.839,2.754 7.367,2.705 10.147,-0.108 z m -173.12,-167.901 -7.209,0.061 c 0.017,1.929 0.806,3.771 2.19,5.114 z m -0.226,-26.814 -3.995,-6.002 c -2.026,1.349 -3.235,3.629 -3.214,6.062 z m 68.84,-45.822 -2.815,-6.637 c -0.412,0.174 -0.807,0.387 -1.179,0.635 z m 47.215,-20.026 -0.077,-7.209 c -0.942,0.01 -1.872,0.204 -2.738,0.572 z m -31.688,10.663 -14.266,5.997 5.587,13.292 14.266,-5.997 z m -15.451,6.63 -8.379,5.544 7.957,12.025 8.378,-5.544 z m -8.465,5.603 -18.229,12.445 8.13,11.908 18.229,-12.446 z M 168.17,192.342 98.4243,90.6284 86.5329,98.7824 156.279,200.496 Z M 99.6879,94.7054 V 94.5922 H 85.2694 v 0.1132 z m -1.2372,-4.1514 -2.8306,-4.1862 -11.9442,8.0764 2.8306,4.1862 z m -13.0267,5.6942 113.45,82.0268 8.448,-11.684 -113.45,-82.0271 z m 229.14,54.2678 -27.061,0.226 0.121,14.418 27.06,-0.226 z m -27.085,0.227 -28.759,0.339 0.17,14.417 28.759,-0.339 z m -21.62,9.034 0.453,-2.15 -14.109,-2.972 -0.453,2.149 z m 0.479,-2.276 L 294.757,9.51243 280.597,6.79323 252.178,154.781 Z M 280.583,9.43859 307.304,156.861 321.491,154.29 294.771,6.86708 Z M 307.277,156.7 l 0.339,2.15 14.242,-2.25 -0.339,-2.15 z m 7.46,-6.184 h -0.113 v 14.418 h 0.113 z m 163.101,-64.1914 -68.614,99.9034 11.886,8.163 68.613,-99.9035 z m -58.776,97.9184 -18.682,-11.993 -7.789,12.133 18.681,11.993 z m -18.777,-12.053 -3.284,-2.037 -7.599,12.253 3.283,2.037 z m -4.647,-2.695 -18.909,-6.789 -4.872,13.571 18.909,6.788 z M 378.515,175.336 488.002,96.2501 479.559,84.5619 370.072,163.647 Z M 194.756,314.798 8.72876,281.195 6.16577,295.384 192.193,328.987 Z M 8.60239,295.406 138.244,274.361 135.934,260.129 6.29214,281.173 Z m 123.45861,-22.994 21.626,21.044 10.055,-10.333 -21.625,-21.044 z m 21.643,21.061 34.76,33.603 10.021,-10.367 -34.76,-33.603 z m 396.877,-11.752 -172.101,29.303 2.42,14.214 172.101,-29.303 z m -165.775,41.49 29.098,-29.303 -10.231,-10.16 -29.098,29.304 z m 29.151,-29.357 19.475,-20.026 -10.337,-10.052 -19.475,20.026 z m 13.153,-17.936 123.527,20.026 2.307,-14.232 -123.527,-20.026 z m -303.513,-40.95 c -9.855,-5.228 -21.898,-9.548 -35.6311,-10.661 l -1.1644,14.372 c 11.4025,0.924 21.5515,4.523 30.0385,9.026 z M 87.9572,224.307 C 74.3741,223.223 64.1431,215.351 56.5501,205.695 48.9374,196.015 44.5279,185.196 42.6708,179.894 l -13.6079,4.766 c 2.1057,6.012 7.1504,18.5 16.1533,29.948 9.0226,11.474 22.5686,22.553 41.594,24.071 z M 42.6414,179.811 c -0.3725,-1.023 -0.6576,-1.967 -1.002,-3.115 l -13.8096,4.146 c 0.3349,1.116 0.7292,2.435 1.2624,3.9 z m -7.9068,-1.042 c -5.3719,4.808 -5.3702,4.81 -5.3684,4.812 7e-4,0.001 0.0026,0.003 0.0041,0.005 0.0029,0.003 0.0063,0.007 0.0102,0.011 0.0077,0.009 0.0172,0.019 0.0284,0.032 0.0225,0.024 0.052,0.057 0.0885,0.097 0.073,0.08 0.1738,0.189 0.3017,0.326 0.2557,0.273 0.6198,0.656 1.0858,1.131 0.9311,0.949 2.2734,2.267 3.9733,3.808 3.3866,3.071 8.2604,7.087 14.1897,10.825 11.6244,7.33 28.6408,14.406 46.7204,9.061 L 91.6802,195.05 c -12.1512,3.592 -24.6296,-0.928 -34.9423,-7.43 -5.0393,-3.178 -9.2447,-6.636 -12.1951,-9.311 -1.4686,-1.331 -2.6092,-2.453 -3.369,-3.227 -0.3794,-0.386 -0.6627,-0.685 -0.843,-0.878 -0.0902,-0.096 -0.1545,-0.166 -0.1922,-0.207 -0.0188,-0.021 -0.031,-0.034 -0.0364,-0.04 -0.0027,-0.003 -0.0037,-0.004 -0.003,-0.004 3e-4,0.001 0.0011,0.002 0.0023,0.003 6e-4,0.001 0.0019,0.002 0.0022,0.002 0.0013,0.002 0.0027,0.003 -5.3691,4.811 z m 61.0348,30.107 C 111,204.37 132.211,207.41 148.702,211.248 l 3.268,-14.044 c -16.569,-3.855 -41.102,-7.831 -60.2909,-2.154 z M 205.476,171.528 c 7.18,0.649 7.181,0.646 7.181,0.642 v -0.007 c 10e-4,-0.006 10e-4,-0.011 0.002,-0.018 0.001,-0.012 0.002,-0.027 0.004,-0.044 0.002,-0.033 0.006,-0.074 0.01,-0.123 0.007,-0.098 0.016,-0.228 0.026,-0.388 0.019,-0.321 0.041,-0.765 0.058,-1.325 0.033,-1.121 0.044,-2.709 -0.033,-4.713 -0.152,-4.005 -0.655,-9.679 -2.031,-16.601 -2.756,-13.858 -9.01,-32.69 -22.924,-53.1014 l -11.914,8.1214 c 12.694,18.622 18.272,35.599 20.696,47.792 1.214,6.103 1.639,11.015 1.765,14.339 0.064,1.661 0.053,2.924 0.029,3.737 -0.012,0.407 -0.028,0.702 -0.038,0.877 -0.006,0.088 -0.01,0.146 -0.012,0.173 -10e-4,0.014 -10e-4,0.02 -10e-4,0.019 V 170.9 c 10e-4,-0.003 10e-4,-0.006 10e-4,-0.009 0,-0.002 0.001,-0.004 0.001,-0.005 0,-0.003 0,-0.006 7.18,0.642 z M 187.761,95.8379 c -11.92,-17.4127 -10.606,-31.5277 -6.864,-41.2363 1.937,-5.0277 4.61,-9.0535 6.814,-11.8267 1.095,-1.3781 2.055,-2.4213 2.715,-3.0973 0.329,-0.3373 0.582,-0.5809 0.736,-0.7268 0.078,-0.0729 0.131,-0.1211 0.156,-0.1443 0.013,-0.0116 0.019,-0.0169 0.018,-0.0158 -0.001,5e-4 -0.003,0.0027 -0.007,0.0064 -0.003,0.0019 -0.005,0.0041 -0.008,0.0068 -0.002,0.0013 -0.004,0.0036 -0.005,0.0043 -0.003,0.0024 -0.006,0.0049 -4.748,-5.4248 -4.743,-5.4296 -4.746,-5.4269 -4.749,-5.4241 -10e-4,0.0011 -0.005,0.004 -0.007,0.0062 -0.005,0.0043 -0.011,0.0091 -0.016,0.0143 -0.012,0.0105 -0.026,0.0226 -0.042,0.0365 -0.031,0.0278 -0.07,0.0626 -0.116,0.1042 -0.092,0.0833 -0.212,0.1941 -0.359,0.3321 -0.293,0.2759 -0.69,0.6611 -1.17,1.1519 -0.957,0.98 -2.248,2.3897 -3.686,4.1989 -2.862,3.6015 -6.389,8.8887 -8.98,15.6135 -5.317,13.7963 -6.38,32.9448 8.42,54.5661 z m -1.193,-62.4545 c -7.154,-0.8948 -7.154,-0.8918 -7.155,-0.8886 v 0.0072 c -0.001,0.0052 -0.002,0.011 -0.003,0.0175 -0.001,0.013 -0.003,0.0287 -0.005,0.047 -0.005,0.0366 -0.01,0.0838 -0.016,0.1412 -0.013,0.115 -0.03,0.2711 -0.049,0.4663 -0.038,0.3902 -0.086,0.9373 -0.132,1.6237 -0.092,1.3712 -0.179,3.3066 -0.166,5.6636 0.025,4.6937 0.442,11.1676 2.036,18.2389 3.183,14.1188 11.291,31.3963 31.061,40.7163 l 6.149,-13.042 c -14.311,-6.746 -20.525,-19.2246 -23.145,-30.8452 -1.307,-5.7985 -1.662,-11.1903 -1.683,-15.1447 -0.01,-1.9671 0.062,-3.5515 0.134,-4.619 0.036,-0.533 0.071,-0.935 0.096,-1.189 0.013,-0.127 0.022,-0.2168 0.028,-0.2672 0.003,-0.0253 0.004,-0.0406 0.005,-0.0459 v -3e-4 c 0,0.0012 0,0.0031 -0.001,0.0056 v 0.0043 c 0,0.0025 -0.001,0.0052 -7.154,-0.8897 z m 25.571,66.0331 c 14.882,7.0155 24.982,21.1105 31.462,34.3045 3.194,6.503 5.392,12.552 6.789,16.97 0.696,2.203 1.188,3.986 1.502,5.198 0.157,0.606 0.269,1.068 0.339,1.368 0.035,0.149 0.06,0.258 0.075,0.324 0.007,0.033 0.012,0.055 0.015,0.066 0.001,0.006 0.001,0.009 0.001,0.009 v -0.003 l -0.001,-0.002 c 0,-0.002 0,-0.004 7.05,-1.51 7.05,-1.506 7.05,-1.508 7.049,-1.51 0,-0.002 -0.001,-0.004 -0.001,-0.006 -10e-4,-0.005 -0.002,-0.01 -0.004,-0.015 -0.002,-0.012 -0.005,-0.026 -0.009,-0.043 -0.007,-0.035 -0.018,-0.081 -0.03,-0.137 -0.026,-0.114 -0.062,-0.272 -0.109,-0.472 -0.094,-0.399 -0.231,-0.966 -0.417,-1.682 -0.37,-1.431 -0.931,-3.459 -1.712,-5.93 -1.558,-4.93 -4.009,-11.681 -7.595,-18.981 -7.078,-14.412 -19.057,-31.94 -38.255,-40.9905 z m 160.562,69.5215 c 3.399,-8.317 7.318,-19.615 9.573,-31.825 2.243,-12.142 2.938,-25.693 -0.587,-38.2471 l -13.882,3.8981 c 2.702,9.621 2.322,20.735 0.29,31.73 -2.018,10.928 -5.573,21.239 -8.741,28.989 z m 8.989,-70.0587 c -3.949,-14.17 0.674,-27.8798 7.015,-38.6811 3.129,-5.3305 6.546,-9.7197 9.186,-12.7754 1.315,-1.5219 2.423,-2.6971 3.185,-3.4763 0.381,-0.3892 0.675,-0.6784 0.864,-0.8615 0.094,-0.0915 0.162,-0.1564 0.202,-0.1939 0.019,-0.0187 0.032,-0.0305 0.037,-0.0354 0.003,-0.0025 0.004,-0.0032 0.003,-0.0022 -0.001,6e-4 -0.002,0.0015 -0.004,0.0029 0,7e-4 -0.002,0.0021 -0.002,0.0024 -0.002,0.0015 -0.003,0.0031 -4.898,-5.2896 -4.895,-5.2927 -4.897,-5.2908 -4.899,-5.2889 -0.001,8e-4 -0.004,0.0029 -0.005,0.0045 -0.004,0.0032 -0.008,0.0068 -0.012,0.0109 -0.009,0.0083 -0.02,0.0183 -0.032,0.0302 -0.026,0.0237 -0.059,0.0547 -0.099,0.0929 -0.081,0.0764 -0.191,0.1814 -0.328,0.3144 -0.274,0.266 -0.658,0.6441 -1.131,1.1282 -0.947,0.9674 -2.26,2.3626 -3.792,4.136 -3.054,3.5347 -7.031,8.6352 -10.71,14.9016 -7.274,12.3926 -13.917,30.3057 -8.469,49.852 z m 15.588,-61.3101 c -0.955,-7.1458 -0.958,-7.1453 -0.961,-7.1449 -0.002,2e-4 -0.005,7e-4 -0.008,0.001 -0.005,7e-4 -0.011,0.0016 -0.018,0.0025 -0.013,0.0018 -0.03,0.0041 -0.049,0.0068 -0.038,0.0053 -0.087,0.0123 -0.147,0.0212 -0.12,0.0176 -0.282,0.0425 -0.485,0.0754 -0.406,0.0657 -0.973,0.1638 -1.68,0.3014 -1.412,0.2747 -3.39,0.7085 -5.755,1.359 -4.704,1.2944 -11.068,3.4817 -17.583,7.0657 -13.08,7.1948 -27.383,20.4531 -28.967,43.5273 l 14.385,0.9871 c 1.134,-16.5251 11.06,-26.1213 21.531,-31.8811 5.26,-2.8934 10.502,-4.7084 14.459,-5.797 1.966,-0.541 3.583,-0.8939 4.684,-1.108 0.549,-0.1068 0.967,-0.1787 1.233,-0.2217 0.132,-0.0215 0.227,-0.0358 0.28,-0.0437 0.027,-0.004 0.044,-0.0063 0.05,-0.0071 0.002,-4e-4 0.003,-5e-4 0,-10e-5 -0.001,10e-5 -0.003,4e-4 -0.005,7e-4 -0.002,2e-4 -0.004,5e-4 -0.005,6e-4 -0.002,4e-4 -0.005,7e-4 -0.959,-7.1451 z M 341.624,82.805 c -1.191,18.11 -9.124,34.997 -17.09,47.625 -3.949,6.26 -7.823,11.341 -10.697,14.844 -1.435,1.749 -2.616,3.097 -3.424,3.994 -0.403,0.448 -0.714,0.783 -0.916,0.999 -0.101,0.108 -0.175,0.185 -0.22,0.233 -0.022,0.023 -0.038,0.039 -0.045,0.047 -0.004,0.004 -0.006,0.006 -0.007,0.006 0,0 10e-4,0 0.002,-0.001 l 0.001,-0.002 c 0.002,-0.001 0.003,-0.002 5.17,5.025 5.167,5.028 5.168,5.026 5.17,5.025 0.001,-0.001 0.002,-0.003 0.004,-0.004 0.002,-0.003 0.006,-0.007 0.01,-0.011 0.007,-0.007 0.017,-0.017 0.028,-0.029 0.023,-0.024 0.053,-0.055 0.091,-0.095 0.076,-0.079 0.181,-0.19 0.313,-0.331 0.265,-0.283 0.641,-0.689 1.112,-1.212 0.942,-1.046 2.268,-2.562 3.857,-4.497 3.172,-3.865 7.415,-9.434 11.746,-16.298 8.592,-13.621 17.869,-32.883 19.282,-54.3718 z m 93.647,126.088 c 12.046,-3.456 26.636,-9.391 41.787,-19.208 l -7.841,-12.101 c -13.834,8.965 -27.097,14.344 -37.922,17.45 z m 41.777,-19.202 c 16.232,-10.481 31.317,-9.665 42.557,-6.257 5.688,1.725 10.379,4.121 13.643,6.088 1.624,0.98 2.874,1.84 3.694,2.435 0.409,0.298 0.709,0.528 0.894,0.672 0.092,0.072 0.155,0.123 0.187,0.149 0.017,0.014 0.026,0.021 0.027,0.022 0.001,0 -10e-4,-0.001 -0.004,-0.003 -0.001,-0.002 -0.003,-0.003 -0.006,-0.005 -10e-4,-0.001 -0.004,-0.003 -0.004,-0.004 -0.003,-0.002 -0.005,-0.004 4.621,-5.533 4.627,-5.529 4.624,-5.531 4.621,-5.534 -10e-4,-0.001 -0.004,-0.003 -0.006,-0.005 -0.005,-0.004 -0.01,-0.008 -0.016,-0.013 -0.011,-0.009 -0.024,-0.02 -0.039,-0.033 -0.031,-0.025 -0.069,-0.056 -0.116,-0.094 -0.093,-0.075 -0.218,-0.176 -0.375,-0.298 -0.313,-0.246 -0.752,-0.581 -1.309,-0.986 -1.114,-0.809 -2.708,-1.902 -4.726,-3.118 -4.022,-2.424 -9.81,-5.388 -16.902,-7.538 -14.321,-4.342 -33.996,-5.337 -54.562,7.942 z m 65.609,-2.436 c 1.085,-7.127 1.082,-7.128 1.078,-7.128 -10e-4,0 -0.005,-0.001 -0.007,-0.001 -0.006,-0.001 -0.012,-0.002 -0.019,-0.003 -0.014,-0.002 -0.03,-0.005 -0.049,-0.007 -0.038,-0.006 -0.088,-0.013 -0.147,-0.021 -0.12,-0.017 -0.282,-0.038 -0.484,-0.063 -0.404,-0.049 -0.97,-0.112 -1.68,-0.176 -1.419,-0.128 -3.421,-0.258 -5.865,-0.287 -4.868,-0.058 -11.593,0.286 -18.992,1.919 -14.852,3.277 -32.874,11.899 -43.363,33.12 l 12.925,6.39 c 7.966,-16.116 21.477,-22.768 33.545,-25.43 6.06,-1.338 11.641,-1.63 15.714,-1.582 2.027,0.024 3.654,0.132 4.747,0.231 0.546,0.049 0.956,0.095 1.215,0.127 0.129,0.015 0.22,0.027 0.27,0.034 0.025,0.004 0.04,0.006 0.045,0.007 h -10e-4 c -0.001,-0.001 -0.003,-0.001 -0.006,-0.001 -10e-4,0 -0.004,-10e-4 -0.005,-10e-4 -0.002,0 -0.005,-0.001 1.079,-7.128 z m -69.546,27.389 c -3.745,7.681 -9.327,14.015 -15.706,19.155 l 9.047,11.227 c 7.661,-6.173 14.76,-14.095 19.62,-24.064 z m -137.859,-53.887 51.29,18.895 4.984,-13.53 -51.29,-18.895 z m 49.9,18.204 68.5,43.786 7.766,-12.149 -68.501,-43.786 z m 65.174,37.797 0.34,28.399 14.417,-0.173 -0.339,-28.398 z m 2.42,23.245 -168.59,170.617 10.256,10.134 168.591,-170.616 z M 294.303,410.512 121.184,242.611 l -10.039,10.35 173.12,167.901 z m -170.93,-162.787 -0.226,-26.814 -14.418,0.121 0.226,26.815 z m -3.44,-20.752 68.84,-45.822 -7.989,-12.003 -68.841,45.822 z m 67.66,-45.187 47.215,-20.025 -5.63,-13.274 -47.215,20.026 z m 44.477,-19.454 105.751,-1.131 -0.154,-14.418 -105.751,1.132 z" />
    <g
       inkscape:groupmode="layer"
       id="layer1"
       inkscape:label="Logo">
      <path
         fill-rule="evenodd"
         clip-rule="evenodd"
         d="m 203.098,172.433 -14.266,5.997 -8.378,5.543 -18.229,12.446 L 92.4786,94.7054 V 94.5922 L 89.648,90.406 Z"
         fill="#ffffff"
         id="path11"
         style="stroke:#ffffff;stroke-opacity:1" />
      <path
         fill-rule="evenodd"
         clip-rule="evenodd"
         d="m 314.624,157.725 -27.06,0.226 -28.759,0.34 0.453,-2.15 28.419,-147.98817 26.721,147.42217 0.339,2.15 z"
         fill="#ffffff"
         id="path12"
         style="stroke:#ffffff;stroke-opacity:1" />
      <path
         fill-rule="evenodd"
         clip-rule="evenodd"
         d="m 483.781,90.406 -68.614,99.903 -18.682,-11.993 -3.283,-2.036 -18.909,-6.789 z"
         fill="#ffffff"
         id="path13"
         style="stroke:#ffffff;stroke-opacity:1" />
      <path
         fill-rule="evenodd"
         clip-rule="evenodd"
         d="M 193.474,321.892 7.44727,288.289 137.089,267.245 l 21.626,21.044 z"
         fill="#ffffff"
         id="path14"
         style="stroke:#ffffff;stroke-opacity:1" />
      <path
         fill-rule="evenodd"
         clip-rule="evenodd"
         d="m 551.791,288.828 -172.101,29.303 29.099,-29.303 19.474,-20.026 z"
         fill="#ffffff"
         id="path15"
         style="stroke:#ffffff;stroke-opacity:1" />
      <path
         fill-rule="evenodd"
         clip-rule="evenodd"
         d="m 120.219,241.336 c -9.171,-4.865 -20.2674,-8.825 -32.8353,-9.843 -32.6085,-2.602 -47.554,-37.902 -51.5169,-49.216 -0.4529,-1.245 -0.7925,-2.376 -1.1322,-3.508 0,0 28.7589,32.132 58.9897,23.194 17.2097,-5.091 40.0817,-1.584 56.6117,2.263"
         fill="#ffffff"
         id="path16"
         style="stroke:#ffffff;stroke-opacity:1" />
      <path
         fill-rule="evenodd"
         clip-rule="evenodd"
         d="m 205.476,171.528 c 0,0 2.944,-32.584 -23.664,-71.6178 -26.72,-39.0336 4.756,-66.5268 4.756,-66.5268 0,0 -5.435,43.4461 28.645,59.5121 34.081,16.0655 44.158,63.2455 44.158,63.2455"
         fill="#ffffff"
         id="path17"
         style="stroke:#ffffff;stroke-opacity:1" />
      <path
         fill-rule="evenodd"
         clip-rule="evenodd"
         d="m 366.028,166.21 c 6.567,-16.066 14.945,-43.219 8.718,-65.395 -9.398,-33.716 22.532,-63.2458 22.532,-63.2458 0,0 -45.743,6.1096 -48.46,45.7089 -2.604,39.5989 -34.42,72.2969 -34.42,72.2969"
         fill="#ffffff"
         id="path18"
         style="stroke:#ffffff;stroke-opacity:1" />
      <path
         fill-rule="evenodd"
         clip-rule="evenodd"
         d="m 433.283,201.963 c 11.436,-3.281 25.362,-8.938 39.855,-18.329 36.798,-23.759 69.519,3.621 69.519,3.621 0,0 -44.61,-6.788 -63.066,30.548 -4.302,8.825 -10.643,15.953 -17.662,21.61"
         fill="#ffffff"
         id="path19"
         style="stroke:#ffffff;stroke-opacity:1" />
      <path
         d="m 337.744,153.992 51.29,18.895 68.501,43.785 0.339,28.399 -168.59,170.616 -173.12,-167.901 -0.226,-26.814 68.84,-45.822 47.215,-20.026 z"
         fill="#ffffff"
         id="path20"
         style="display:inline;stroke:#ffffff;stroke-opacity:1" />
      <path
         fill-rule="evenodd"
         clip-rule="evenodd"
         d="m 200.11,172.433 -14.267,5.996 -8.378,5.544 -18.229,12.446 L 89.4898,94.7051 V 94.592 l -2.8306,-4.1862 z"
         fill="#f83e3e"
         stroke="#ffffff"
         stroke-width="1.80231"
         stroke-linecap="round"
         stroke-linejoin="round"
         id="path22"
         style="stroke:#ffffff;stroke-opacity:1" />
      <path
         fill-rule="evenodd"
         clip-rule="evenodd"
         d="m 311.636,157.725 -27.061,0.226 -28.759,0.34 0.453,-2.15 28.42,-147.98817 26.72,147.42217 0.34,2.15 z"
         fill="#f83e3e"
         stroke="#ffffff"
         stroke-width="1.80231"
         stroke-linecap="round"
         stroke-linejoin="round"
         id="path23"
         style="stroke:#ffffff;stroke-opacity:1" />
      <path
         fill-rule="evenodd"
         clip-rule="evenodd"
         d="m 480.792,90.4058 -68.613,99.9032 -18.682,-11.993 -3.284,-2.036 -18.908,-6.789 z"
         fill="#f83e3e"
         stroke="#ffffff"
         stroke-width="1.80231"
         stroke-linecap="round"
         stroke-linejoin="round"
         id="path24"
         style="stroke:#ffffff;stroke-opacity:1" />
      <path
         fill-rule="evenodd"
         clip-rule="evenodd"
         d="M 190.486,321.892 4.45898,288.289 134.1,267.245 l 21.626,21.044 z"
         fill="#f83e3e"
         stroke="#ffffff"
         stroke-width="1.80231"
         stroke-linecap="round"
         stroke-linejoin="round"
         id="path25"
         style="stroke:#ffffff;stroke-opacity:1" />
      <path
         fill-rule="evenodd"
         clip-rule="evenodd"
         d="m 562.879,288.289 -172.101,29.304 29.099,-29.304 19.474,-20.026 z"
         fill="#f83e3e"
         stroke="#ffffff"
         stroke-width="1.80231"
         stroke-linecap="round"
         stroke-linejoin="round"
         id="path26"
         style="stroke:#ffffff;stroke-opacity:1" />
      <path
         fill-rule="evenodd"
         clip-rule="evenodd"
         d="m 117.23,241.336 c -9.171,-4.865 -20.2669,-8.825 -32.8348,-9.843 -32.6085,-2.603 -47.554,-37.903 -51.5169,-49.217 -0.4529,-1.244 -0.7925,-2.376 -1.1322,-3.507 0,0 28.7589,32.132 58.9897,23.194 17.2102,-5.091 40.0812,-1.584 56.6122,2.263"
         fill="#f83e3e"
         id="path27"
         style="stroke:#ffffff;stroke-opacity:1" />
      <path
         d="m 117.23,241.336 c -9.171,-4.865 -20.2669,-8.825 -32.8348,-9.843 -32.6085,-2.603 -47.554,-37.903 -51.5169,-49.217 -0.4529,-1.244 -0.7925,-2.376 -1.1322,-3.507 0,0 28.7589,32.132 58.9897,23.194 17.2102,-5.091 40.0812,-1.584 56.6122,2.263"
         stroke="#ffffff"
         stroke-width="1.80231"
         stroke-linecap="round"
         stroke-linejoin="round"
         id="path28"
         style="stroke:#ffffff;stroke-opacity:1" />
      <path
         fill-rule="evenodd"
         clip-rule="evenodd"
         d="m 202.486,171.528 c 0,0 2.944,-32.584 -23.663,-71.6179 -26.721,-39.0336 4.755,-66.5268 4.755,-66.5268 0,0 -5.435,43.4461 28.646,59.5121 34.08,16.0656 44.157,63.2456 44.157,63.2456"
         fill="#f83e3e"
         id="path29"
         style="stroke:#ffffff;stroke-opacity:1" />
      <path
         d="m 202.486,171.528 c 0,0 2.944,-32.584 -23.663,-71.6179 -26.721,-39.0336 4.755,-66.5268 4.755,-66.5268 0,0 -5.435,43.4461 28.646,59.5121 34.08,16.0656 44.157,63.2456 44.157,63.2456"
         stroke="#ffffff"
         stroke-width="1.80231"
         stroke-linecap="round"
         stroke-linejoin="round"
         id="path30"
         style="stroke:#ffffff;stroke-opacity:1" />
      <path
         fill-rule="evenodd"
         clip-rule="evenodd"
         d="m 363.04,166.21 c 6.567,-16.066 14.946,-43.22 8.719,-65.395 -9.398,-33.7164 22.531,-63.2462 22.531,-63.2462 0,0 -45.742,6.1097 -48.46,45.7089 -2.604,39.5993 -34.42,72.2973 -34.42,72.2973"
         fill="#f83e3e"
         id="path31"
         style="stroke:#ffffff;stroke-opacity:1" />
      <path
         d="m 363.04,166.21 c 6.567,-16.066 14.946,-43.22 8.719,-65.395 -9.398,-33.7164 22.531,-63.2462 22.531,-63.2462 0,0 -45.742,6.1097 -48.46,45.7089 -2.604,39.5993 -34.42,72.2973 -34.42,72.2973"
         stroke="#ffffff"
         stroke-width="1.80231"
         stroke-linecap="round"
         stroke-linejoin="round"
         id="path32"
         style="stroke:#ffffff;stroke-opacity:1" />
      <path
         fill-rule="evenodd"
         clip-rule="evenodd"
         d="m 430.295,201.963 c 11.436,-3.281 25.362,-8.938 39.855,-18.329 36.798,-23.76 69.519,3.62 69.519,3.62 0,0 -44.61,-6.788 -63.065,30.549 -4.303,8.824 -10.644,15.952 -17.663,21.609"
         fill="#f83e3e"
         id="path33"
         style="stroke:#ffffff;stroke-opacity:1" />
      <path
         d="m 430.295,201.963 c 11.436,-3.281 25.362,-8.938 39.855,-18.329 36.798,-23.76 69.519,3.62 69.519,3.62 0,0 -44.61,-6.788 -63.065,30.549 -4.303,8.824 -10.644,15.952 -17.663,21.609"
         stroke="#ffffff"
         stroke-width="1.80231"
         stroke-linecap="round"
         stroke-linejoin="round"
         id="path34"
         style="stroke:#ffffff;stroke-opacity:1" />
      <path
         d="m 121.532,221.536 c -6.341,-1.584 -12.681,-2.489 -18.682,-2.715 C 64.3537,217.576 39.8973,199.7 32.9906,182.276 32.5377,181.032 32.1981,179.9 31.8584,178.769"
         stroke="#ffffff"
         stroke-width="1.80231"
         stroke-linecap="round"
         stroke-linejoin="round"
         id="path35"
         style="stroke:#ffffff;stroke-opacity:1" />
      <path
         d="M 233.398,158.517 C 227.058,141.546 218.453,124.122 207.243,113.826 180.07,88.7088 173.163,56.5768 183.466,33.4961"
         stroke="#ffffff"
         stroke-width="1.80231"
         stroke-linecap="round"
         stroke-linejoin="round"
         id="path36"
         style="stroke:#ffffff;stroke-opacity:1" />
      <path
         d="m 340.055,157.838 c 7.246,-19.687 13.926,-40.165 14.153,-50.688 0.566,-23.7591 2.83,-58.2671 39.968,-69.5812"
         stroke="#ffffff"
         stroke-width="1.80231"
         stroke-linecap="round"
         stroke-linejoin="round"
         id="path37"
         style="stroke:#ffffff;stroke-opacity:1" />
      <path
         d="m 450.675,214.974 c 3.51,-3.168 6.567,-6.449 9.284,-9.843 25.589,-32.698 75.521,-20.026 75.521,-20.026"
         stroke="#ffffff"
         stroke-width="1.80231"
         stroke-linecap="round"
         stroke-linejoin="round"
         id="path38"
         style="stroke:#ffffff;stroke-opacity:1" />
      <path
         d="M 562.88,288.29 H 419.765"
         stroke="#ffffff"
         stroke-width="1.80231"
         stroke-linecap="round"
         stroke-linejoin="round"
         id="path39"
         style="stroke:#ffffff;stroke-opacity:1" />
      <path
         d="M 155.726,288.29 H 4.3457"
         stroke="#ffffff"
         stroke-width="1.80231"
         stroke-linecap="round"
         stroke-linejoin="round"
         id="path40"
         style="stroke:#ffffff;stroke-opacity:1" />
      <path
         fill-rule="evenodd"
         clip-rule="evenodd"
         d="m 89.4883,94.5928 h 0.1132 l 87.9755,89.4942"
         fill="#f83e3e"
         id="path41"
         style="stroke:#ffffff;stroke-opacity:1" />
      <path
         d="m 89.4883,94.5928 h 0.1132 l 87.9755,89.4942"
         stroke="#ffffff"
         stroke-width="1.80231"
         stroke-linecap="round"
         stroke-linejoin="round"
         id="path42"
         style="stroke:#ffffff;stroke-opacity:1" />
      <path
         d="M 284.688,157.951 V 8.15283"
         stroke="#ffffff"
         stroke-width="1.80231"
         stroke-linecap="round"
         stroke-linejoin="round"
         id="path43"
         style="stroke:#ffffff;stroke-opacity:1" />
      <path
         d="M 480.793,90.4058 393.497,178.429"
         stroke="#ffffff"
         stroke-width="1.80231"
         stroke-linecap="round"
         stroke-linejoin="round"
         id="path44"
         style="stroke:#ffffff;stroke-opacity:1" />
      <path
         d="m 338.92,157.385 51.291,18.895 68.5,43.785 0.34,28.399 L 290.46,419.08 117.341,251.179 l -0.227,-26.814 68.84,-45.822 47.215,-20.026 z"
         fill="#f83e3e"
         stroke="#ffffff"
         stroke-width="1.80231"
         stroke-linecap="round"
         stroke-linejoin="round"
         id="path45"
         style="stroke:#ffffff;stroke-opacity:1" />
      <path
         d="m 233.622,200.605 54.687,58.72 56.725,-59.851 76.2,37.11 -31.024,-60.304 -45.176,23.194 z m 0,0 -47.668,-22.062 -30.683,61.888 z m 0,0 -29.778,60.304 -0.453,28.512 87.069,129.659 83.106,-131.47 -0.339,-29.869 -28.193,-58.267"
         stroke="#ffffff"
         stroke-width="1.80231"
         stroke-linecap="round"
         stroke-linejoin="round"
         id="path47"
         style="stroke:#ffffff;stroke-opacity:1" />
      <path
         d="m 246.982,313.293 c 0,0 7.247,-10.183 18.456,-0.226"
         stroke="#ffffff"
         stroke-width="1.80231"
         stroke-linecap="round"
         stroke-linejoin="round"
         id="path49"
         style="stroke:#ffffff;stroke-opacity:1"
         sodipodi:insensitive="true" />
      <path
         d="m 317.183,313.632 c 0,0 7.246,-10.182 18.455,-0.226"
         stroke="#ffffff"
         stroke-width="1.80231"
         stroke-linecap="round"
         stroke-linejoin="round"
         id="path51"
         style="stroke:#ffffff;stroke-opacity:1"
         sodipodi:insensitive="true" />
      <path
         d="m 287.518,331.509 c 0,0 6.34,6.562 12.115,-0.452"
         stroke="#ffffff"
         stroke-width="1.80231"
         stroke-linecap="round"
         stroke-linejoin="round"
         id="path53"
         style="stroke:#ffffff;stroke-opacity:1" />
      <path
         d="m 117.341,251.179 86.05,38.241 170.176,-1.81 85.484,-39.147 -0.34,-28.398 -85.484,37.676 -169.383,3.168 -86.73,-36.545 z"
         fill="#f83e3e"
         stroke="#ffffff"
         stroke-width="1.80231"
         stroke-linecap="round"
         stroke-linejoin="round"
         id="path54"
         style="stroke:#ffffff;stroke-opacity:1" />
      <path
         d="m 203.844,260.909 -0.452,28.511"
         stroke="#ffffff"
         stroke-width="1.80231"
         stroke-linecap="round"
         stroke-linejoin="round"
         id="path55"
         style="stroke:#ffffff;stroke-opacity:1" />
      <path
         d="M 373.566,287.609 373.227,257.74"
         stroke="#ffffff"
         stroke-width="1.80231"
         stroke-linecap="round"
         stroke-linejoin="round"
         id="path56"
         style="stroke:#ffffff;stroke-opacity:1" />
    </g>
  </g>
</svg>
