<svg width="561" height="413" viewBox="0 0 561 413" fill="none" xmlns="http://www.w3.org/2000/svg">
<path fill-rule="evenodd" clip-rule="evenodd" d="M197.11 165.433L182.843 171.429L174.465 176.973L156.236 189.419L86.4898 87.7051V87.592L83.6592 83.4058L197.11 165.433Z" fill="#F83E3E" stroke="white" stroke-width="1.80231" stroke-linecap="round" stroke-linejoin="round"/>
<path fill-rule="evenodd" clip-rule="evenodd" d="M308.636 150.725L281.575 150.951L252.816 151.291L253.269 149.141L281.689 1.15283L308.409 148.575L308.749 150.725H308.636Z" fill="#F83E3E" stroke="white" stroke-width="1.80231" stroke-linecap="round" stroke-linejoin="round"/>
<path fill-rule="evenodd" clip-rule="evenodd" d="M477.792 83.4058L409.179 183.309L390.497 171.316L387.213 169.28L368.305 162.491L477.792 83.4058Z" fill="#F83E3E" stroke="white" stroke-width="1.80231" stroke-linecap="round" stroke-linejoin="round"/>
<path fill-rule="evenodd" clip-rule="evenodd" d="M187.486 314.892L1.45898 281.289L131.1 260.245L152.726 281.289L187.486 314.892Z" fill="#F83E3E" stroke="white" stroke-width="1.80231" stroke-linecap="round" stroke-linejoin="round"/>
<path fill-rule="evenodd" clip-rule="evenodd" d="M559.879 281.289L387.778 310.593L416.877 281.289L436.351 261.263L559.879 281.289Z" fill="#F83E3E" stroke="white" stroke-width="1.80231" stroke-linecap="round" stroke-linejoin="round"/>
<path fill-rule="evenodd" clip-rule="evenodd" d="M114.23 234.336C105.059 229.471 93.9631 225.511 81.3952 224.493C48.7867 221.89 33.8412 186.59 29.8783 175.276C29.4254 174.032 29.0858 172.9 28.7461 171.769C28.7461 171.769 57.505 203.901 87.7358 194.963C104.946 189.872 127.817 193.379 144.348 197.226" fill="#F83E3E"/>
<path d="M114.23 234.336C105.059 229.471 93.9631 225.511 81.3952 224.493C48.7867 221.89 33.8412 186.59 29.8783 175.276C29.4254 174.032 29.0858 172.9 28.7461 171.769C28.7461 171.769 57.505 203.901 87.7358 194.963C104.946 189.872 127.817 193.379 144.348 197.226" stroke="white" stroke-width="1.80231" stroke-linecap="round" stroke-linejoin="round"/>
<path fill-rule="evenodd" clip-rule="evenodd" d="M199.486 164.528C199.486 164.528 202.43 131.944 175.823 92.9101C149.102 53.8765 180.578 26.3833 180.578 26.3833C180.578 26.3833 175.143 69.8294 209.224 85.8954C243.304 101.961 253.381 149.141 253.381 149.141" fill="#F83E3E"/>
<path d="M199.486 164.528C199.486 164.528 202.43 131.944 175.823 92.9101C149.102 53.8765 180.578 26.3833 180.578 26.3833C180.578 26.3833 175.143 69.8294 209.224 85.8954C243.304 101.961 253.381 149.141 253.381 149.141" stroke="white" stroke-width="1.80231" stroke-linecap="round" stroke-linejoin="round"/>
<path fill-rule="evenodd" clip-rule="evenodd" d="M360.04 159.21C366.607 143.144 374.986 115.99 368.759 93.8146C359.361 60.0986 391.29 30.5688 391.29 30.5688C391.29 30.5688 345.548 36.6785 342.83 76.2777C340.226 115.877 308.41 148.575 308.41 148.575" fill="#F83E3E"/>
<path d="M360.04 159.21C366.607 143.144 374.986 115.99 368.759 93.8146C359.361 60.0986 391.29 30.5688 391.29 30.5688C391.29 30.5688 345.548 36.6785 342.83 76.2777C340.226 115.877 308.41 148.575 308.41 148.575" stroke="white" stroke-width="1.80231" stroke-linecap="round" stroke-linejoin="round"/>
<path fill-rule="evenodd" clip-rule="evenodd" d="M427.295 194.963C438.731 191.682 452.657 186.025 467.15 176.634C503.948 152.874 536.669 180.254 536.669 180.254C536.669 180.254 492.059 173.466 473.604 210.803C469.301 219.627 462.96 226.755 455.941 232.412" fill="#F83E3E"/>
<path d="M427.295 194.963C438.731 191.682 452.657 186.025 467.15 176.634C503.948 152.874 536.669 180.254 536.669 180.254C536.669 180.254 492.059 173.466 473.604 210.803C469.301 219.627 462.96 226.755 455.941 232.412" stroke="white" stroke-width="1.80231" stroke-linecap="round" stroke-linejoin="round"/>
<path d="M118.532 214.536C112.191 212.952 105.851 212.047 99.8498 211.821C61.3537 210.576 36.8973 192.7 29.9906 175.276C29.5377 174.032 29.1981 172.9 28.8584 171.769" stroke="white" stroke-width="1.80231" stroke-linecap="round" stroke-linejoin="round"/>
<path d="M230.398 151.517C224.058 134.546 215.453 117.122 204.243 106.826C177.07 81.7088 170.163 49.5768 180.466 26.4961" stroke="white" stroke-width="1.80231" stroke-linecap="round" stroke-linejoin="round"/>
<path d="M337.055 150.838C344.301 131.151 350.981 110.673 351.208 100.15C351.774 76.3909 354.038 41.8829 391.176 30.5688" stroke="white" stroke-width="1.80231" stroke-linecap="round" stroke-linejoin="round"/>
<path d="M447.675 207.974C451.185 204.806 454.242 201.525 456.959 198.131C482.548 165.433 532.48 178.105 532.48 178.105" stroke="white" stroke-width="1.80231" stroke-linecap="round" stroke-linejoin="round"/>
<path d="M559.88 281.29H416.765" stroke="white" stroke-width="1.80231" stroke-linecap="round" stroke-linejoin="round"/>
<path d="M152.726 281.29H1.3457" stroke="white" stroke-width="1.80231" stroke-linecap="round" stroke-linejoin="round"/>
<path fill-rule="evenodd" clip-rule="evenodd" d="M86.4883 87.5928H86.6015L174.577 177.087" fill="#F83E3E"/>
<path d="M86.4883 87.5928H86.6015L174.577 177.087" stroke="white" stroke-width="1.80231" stroke-linecap="round" stroke-linejoin="round"/>
<path d="M281.688 150.951V1.15283" stroke="white" stroke-width="1.80231" stroke-linecap="round" stroke-linejoin="round"/>
<path d="M477.793 83.4058L390.497 171.429" stroke="white" stroke-width="1.80231" stroke-linecap="round" stroke-linejoin="round"/>
<path d="M335.92 150.385L387.211 169.28L455.711 213.065L456.051 241.464L287.46 412.08L114.341 244.179L114.114 217.365L182.954 171.543L230.169 151.517L335.92 150.385Z" fill="#F83E3E" stroke="white" stroke-width="1.80231" stroke-linecap="round" stroke-linejoin="round"/>
<path d="M230.621 193.605L285.309 252.325L342.034 192.474L418.234 229.584L387.21 169.28L342.034 192.474L230.621 193.605L182.954 171.543L152.271 233.431L230.621 193.605L200.844 253.909L200.391 282.421L287.46 412.08L370.566 280.61L370.227 250.741L342.034 192.474" fill="#F83E3E"/>
<path d="M230.622 193.605L285.309 252.325L342.034 192.474L418.234 229.584L387.21 169.28L342.034 192.474L230.622 193.605ZM230.622 193.605L182.954 171.543L152.271 233.431L230.622 193.605ZM230.622 193.605L200.844 253.909L200.391 282.421L287.46 412.08L370.566 280.61L370.227 250.741L342.034 192.474" stroke="white" stroke-width="1.80231" stroke-linecap="round" stroke-linejoin="round"/>
<path d="M243.982 306.293C243.982 306.293 251.229 296.11 262.438 306.067L243.982 306.293Z" fill="#F83E3E"/>
<path d="M243.982 306.293C243.982 306.293 251.229 296.11 262.438 306.067" stroke="white" stroke-width="1.80231" stroke-linecap="round" stroke-linejoin="round"/>
<path d="M314.183 306.632C314.183 306.632 321.429 296.45 332.638 306.406L314.183 306.632Z" fill="#F83E3E"/>
<path d="M314.183 306.632C314.183 306.632 321.429 296.45 332.638 306.406" stroke="white" stroke-width="1.80231" stroke-linecap="round" stroke-linejoin="round"/>
<path d="M284.518 324.509C284.518 324.509 290.858 331.071 296.633 324.057L284.518 324.509Z" fill="#F83E3E"/>
<path d="M284.518 324.509C284.518 324.509 290.858 331.071 296.633 324.057" stroke="white" stroke-width="1.80231" stroke-linecap="round" stroke-linejoin="round"/>
<path d="M114.341 244.179L200.391 282.42L370.567 280.61L456.051 241.463L455.711 213.065L370.227 250.741L200.844 253.909L114.114 217.364L114.341 244.179Z" fill="#F83E3E" stroke="white" stroke-width="1.80231" stroke-linecap="round" stroke-linejoin="round"/>
<path d="M200.844 253.909L200.392 282.42" stroke="white" stroke-width="1.80231" stroke-linecap="round" stroke-linejoin="round"/>
<path d="M370.566 280.609L370.227 250.74" stroke="white" stroke-width="1.80231" stroke-linecap="round" stroke-linejoin="round"/>
</svg>
