<svg viewBox="0 0 134 121" fill="none" xmlns="http://www.w3.org/2000/svg" aria-hidden="true" focusable="false">
  <path d="M64.2006 13.7672C63.9662 23.2949 63.4438 28.8232 60.9005 32.7418C58.0768 37.0946 51.3919 35.727 50.3623 30.6405C50.347 30.5675 50.3317 30.4906 50.3163 30.4176C49.037 24.6318 43.839 20.5518 37.9187 20.3827L37.8764 20.3827C36.8161 20.352 35.8826 19.6797 35.5138 18.6847C35.4869 18.6078 35.4561 18.5311 35.4293 18.4504C33.3278 12.6646 27.396 9.18777 21.3221 10.1828C15.2482 11.1778 10.7341 16.3642 10.5843 22.5111C10.5843 22.5995 10.5804 22.684 10.5766 22.7685C10.5458 23.825 9.87731 24.7548 8.88613 25.1197L8.82853 25.1428C3.29632 27.179 -0.32652 32.6651 0.268961 38.5316C0.925911 44.9935 6.28913 49.8955 12.7011 50.0531L12.7318 50.0531C13.9266 50.0838 14.9793 50.8407 15.3865 51.9625L15.3942 51.9856C16.5967 55.3049 19.0631 57.8673 22.0943 59.258C24.192 60.2223 25.1832 62.6696 24.2112 64.7634C23.4735 66.3539 23.0432 68.1097 22.9971 69.9538C22.9971 70.0114 22.9971 70.069 22.9933 70.1228C22.8818 74.3872 20.1734 78.1522 16.1663 79.6159C16.1126 79.6351 16.0626 79.6543 16.0089 79.6735C10.0925 81.8211 6.53494 87.8872 7.54918 94.0994C8.56342 100.312 13.8651 104.93 20.158 105.083C20.2157 105.083 20.2733 105.083 20.3309 105.087C24.5953 105.198 28.3564 107.907 29.8202 111.91C29.8394 111.964 29.8586 112.018 29.8779 112.072C32.0254 117.988 38.0917 121.545 44.3039 120.531C50.5161 119.517 55.1339 114.215 55.2876 107.922C55.2876 107.865 55.2876 107.807 55.2914 107.749C55.4028 103.485 58.1113 99.7239 62.1183 98.2601C62.1721 98.2409 62.2259 98.2218 62.2797 98.2026C65.8833 96.8925 70.7586 93.7115 73.7898 90.0233C74.6196 89.0129 76.2217 89.2665 76.6712 90.4958L76.7018 90.5765C78.8955 96.6043 84.8542 100.558 91.2355 99.916C98.2583 99.2091 103.587 93.3849 103.756 86.4197C104.24 66.5268 106.003 64.0757 124.705 57.2872C130.983 55.009 134.759 48.5701 133.684 41.9776C132.608 35.385 126.98 30.4829 120.303 30.3216C100.41 29.8375 97.9587 28.0741 91.1702 9.36829C88.892 3.09076 82.4531 -0.68569 75.8605 0.393862C69.268 1.46957 64.3658 7.09767 64.2044 13.7747L64.2006 13.7672Z" fill="#F8F4AB"/>
  <path d="M122.976 44.233C122.976 45.4854 122.208 46.6033 120.99 47.0452C108.615 51.5362 102.326 55.3319 98.5535 60.5722C94.7847 65.8162 93.1903 72.9852 92.8676 86.1472C92.833 87.6187 91.7919 88.8096 90.3397 89.0477C88.8875 89.2859 87.5237 88.4868 87.0204 87.1038C82.5293 74.7293 78.7336 68.4403 73.4934 64.6676C68.2493 60.8988 61.0805 59.3045 47.9184 58.9818C46.447 58.9472 45.256 57.9061 45.0178 56.4538C44.7796 55.0016 45.5787 53.6377 46.9618 53.1345C59.3363 48.6434 65.6253 44.8477 69.3979 39.6075C73.1668 34.3634 74.7611 27.1946 75.0839 14.0326C75.1184 12.5612 76.1596 11.3701 77.6118 11.1319C79.064 10.8937 80.4278 11.6928 80.9311 13.0759C85.4222 25.4503 89.2179 31.7432 94.4581 35.512C99.7022 39.2808 106.871 40.8753 120.033 41.198C121.504 41.2326 122.695 42.2738 122.934 43.726C122.961 43.895 122.976 44.064 122.976 44.233ZM47.6686 55.9429C47.6686 55.9659 47.6686 55.9929 47.6763 56.0198C47.7186 56.2849 47.9145 56.2887 47.9875 56.2925C73.4741 56.9149 80.8542 62.2243 89.5521 86.1857C89.579 86.2549 89.6444 86.4391 89.9094 86.393C90.1745 86.3469 90.1784 86.155 90.1822 86.082C90.8046 60.5954 96.114 53.2151 120.075 44.5172C120.145 44.4903 120.329 44.4251 120.283 44.16C120.241 43.895 120.045 43.8911 119.972 43.8873C94.485 43.2649 87.1049 37.9555 78.407 13.9941C78.3839 13.925 78.3148 13.7405 78.0497 13.7866C77.7846 13.8289 77.7808 14.0249 77.777 14.0978C77.1546 39.5844 71.8452 46.9645 47.8838 55.6624C47.8223 55.6855 47.6686 55.7392 47.6686 55.9429Z" fill="#E9885E"/>
  <path d="M60.0203 85.9014C60.0203 86.8195 59.4594 87.6379 58.5643 87.9645C46.9543 92.1789 44.703 95.3062 44.4033 107.654C44.3764 108.733 43.6158 109.605 42.5516 109.782C41.4874 109.955 40.4847 109.371 40.1159 108.357C35.9014 96.7469 32.7742 94.4954 20.4266 94.1958C19.347 94.1689 18.4749 93.4083 18.2982 92.3441C18.1253 91.2799 18.7092 90.2772 19.7235 89.9084C31.3335 85.694 33.5848 82.5667 33.8845 70.2191C33.9113 69.1396 34.6721 68.2636 35.7362 68.0908C36.8004 67.9179 37.8031 68.5018 38.168 69.5161C42.3825 81.126 45.5097 83.3773 57.8573 83.6769C58.9369 83.7038 59.809 84.4644 59.9857 85.5286C60.0049 85.6554 60.0165 85.7784 60.0165 85.9014L60.0203 85.9014ZM41.8063 105.23C42.4018 94.4072 45.3677 90.2849 55.4371 86.2741C44.6147 85.6786 40.4885 82.7127 36.4815 72.6433C35.886 83.4657 32.9202 87.5918 22.8508 91.5988C33.6732 92.1943 37.7993 95.1601 41.8063 105.23Z" fill="#E9885E"/>
  <path d="M39.7323 33.2068C39.7323 34.0059 39.2444 34.7167 38.4683 34.9971C30.9192 37.7363 29.5553 39.6304 29.3594 47.6637C29.3364 48.6011 28.6756 49.3616 27.7497 49.5114C26.8238 49.6612 25.9556 49.1541 25.6367 48.2705C22.8975 40.7214 21.0035 39.3575 12.9703 39.1616C12.0329 39.1385 11.2722 38.4778 11.1223 37.5519C10.9687 36.626 11.4796 35.7578 12.3632 35.4389C19.9124 32.6997 21.2762 30.8019 21.4722 22.7725C21.4952 21.8351 22.156 21.0744 23.0819 20.9246C24.0077 20.7748 24.876 21.2819 25.1949 22.1655C27.9341 29.7147 29.8282 31.0785 37.8614 31.2744C38.7988 31.2975 39.5556 31.9583 39.7092 32.8841C39.7284 32.9917 39.7362 33.0992 39.7362 33.2068L39.7323 33.2068ZM26.8776 44.1676C27.4654 38.6815 29.3517 36.0575 34.3653 33.7562C28.8792 33.1684 26.2552 31.282 23.954 26.2684C23.3662 31.7546 21.4798 34.3785 16.4663 36.6798C21.9524 37.2676 24.5764 39.154 26.8776 44.1676Z" fill="#E9885E"/>
</svg>
