<svg width="259" height="262" viewBox="0 0 259 262" fill="none" xmlns="http://www.w3.org/2000/svg">
  <path d="M132.583 257.76C127.308 256.889 122.866 253.084 118.569 249.404C115.19 246.512 111.698 243.518 108.91 243.057C106.122 242.597 101.851 244.308 97.7219 245.961C92.4695 248.066 87.0405 250.241 81.7679 249.372C80.7834 249.21 79.8337 248.944 78.939 248.579C72.65 246.016 69.6706 239.212 67.0444 233.21C65.3129 229.257 63.5235 225.169 61.3838 223.663C60.4109 222.98 58.8994 222.476 56.7597 222.123C54.7879 221.799 52.5873 221.645 50.2594 221.486C47.8127 221.318 45.282 221.144 42.8585 220.745C39.7285 220.229 35.1971 219.132 32.0034 215.588C27.5212 210.613 27.7789 203.25 28.0077 196.753C28.1611 192.389 28.3204 187.878 27.0058 185.53C25.7087 183.211 21.7969 180.999 18.0154 178.859C12.3374 175.645 5.90365 172.002 4.00422 165.54C2.13664 159.184 5.53882 152.701 8.53853 146.983C10.5885 143.079 12.7051 139.043 12.5401 136.281C12.3866 133.721 9.86465 130.088 7.42377 126.57C3.67414 121.164 -0.576413 115.037 0.538343 108.279C1.6531 101.521 7.64672 97.0849 12.9367 93.1703C16.3766 90.6251 19.9322 87.9932 20.9022 85.6189C21.9475 83.0564 21.2381 78.5539 20.5518 74.1991C19.5471 67.8204 18.4063 60.5875 22.2196 55.1701C26.0967 49.66 33.3585 48.2789 39.7691 47.0599C44.037 46.2492 48.4497 45.4095 50.4244 43.6288C52.4223 41.8278 53.7223 37.5048 54.979 33.3238C56.8495 27.0985 58.9689 20.0423 64.812 16.7733C68.9757 14.4424 73.62 14.8594 76.75 15.3777C79.1706 15.7772 81.626 16.4258 83.9974 17.0541C86.253 17.6506 88.384 18.2152 90.3558 18.5395C92.4956 18.8928 94.0881 18.9014 95.2289 18.5656C97.7393 17.8272 100.748 14.5322 103.655 11.3443C108.073 6.50303 113.079 1.01901 119.858 0.61075C120.822 0.552841 121.809 0.604957 122.791 0.767103C128.066 1.63864 132.508 5.44329 136.805 9.12343C140.184 12.016 143.676 15.0099 146.464 15.4703C149.253 15.9307 153.523 14.2195 157.652 12.5661C162.905 10.4611 168.334 8.28664 173.609 9.15528C174.594 9.31743 175.543 9.58381 176.438 9.94864C182.727 12.5111 185.707 19.3155 188.333 25.3178C190.064 29.2701 191.854 33.3585 193.993 34.8642C194.966 35.5475 196.478 36.0513 198.617 36.4046C200.589 36.7289 202.79 36.8823 205.115 37.0416C207.562 37.2095 210.095 37.3832 212.516 37.7828C215.646 38.2982 220.177 39.3956 223.371 42.9396C227.853 47.9141 227.595 55.2772 227.367 61.7747C227.213 66.1381 227.054 70.6493 228.368 72.9975C229.666 75.3168 233.577 77.5289 237.359 79.6687C243.037 82.8827 249.471 86.5252 251.37 92.9879C253.238 99.3434 249.835 105.826 246.836 111.545C244.786 115.448 242.669 119.484 242.834 122.247C242.988 124.806 245.51 128.443 247.951 131.958C251.7 137.364 255.951 143.491 254.836 150.249C253.721 157.007 247.728 161.443 242.438 165.357C238.998 167.902 235.442 170.534 234.472 172.909C233.427 175.471 234.136 179.974 234.822 184.328C235.827 190.707 236.968 197.94 233.155 203.357C229.278 208.867 222.016 210.249 215.605 211.468C211.337 212.278 206.925 213.118 204.95 214.899C202.952 216.7 201.652 221.023 200.395 225.204C198.525 231.429 196.405 238.485 190.562 241.754C186.399 244.085 181.754 243.668 178.624 243.15C176.204 242.75 173.748 242.102 171.377 241.473C169.121 240.877 166.99 240.312 165.018 239.988C162.879 239.635 161.286 239.626 160.145 239.962C157.635 240.7 154.627 243.995 151.72 247.183C147.301 252.024 142.295 257.509 135.516 257.917C134.552 257.975 133.568 257.923 132.583 257.76Z" fill="#3967D1"/>
  <path d="M135.734 261.409C130.458 260.537 126.017 256.733 121.72 253.053C118.341 250.16 114.849 247.166 112.06 246.706C109.272 246.245 105.001 247.956 100.872 249.61C95.6199 251.715 90.1909 253.889 84.9183 253.021C83.9338 252.859 82.9841 252.592 82.0894 252.227C75.8004 249.665 72.821 242.86 70.1948 236.858C68.4633 232.906 66.6739 228.817 64.5342 227.312C63.5613 226.628 62.0498 226.125 59.9101 225.771C57.9383 225.447 55.7377 225.294 53.4098 225.134C50.9631 224.966 48.4324 224.793 46.0089 224.393C42.8789 223.878 38.3475 222.78 35.1538 219.236C30.6716 214.262 30.9293 206.899 31.1581 200.401C31.3115 196.038 31.4708 191.527 30.1562 189.178C28.8591 186.859 24.9473 184.647 21.1658 182.507C15.4878 179.293 9.05404 175.651 7.15461 169.188C5.28703 162.833 8.68921 156.35 11.6889 150.631C13.7389 146.728 15.8555 142.692 15.6905 139.929C15.537 137.37 13.015 133.736 10.5742 130.218C6.82453 124.812 2.57398 118.685 3.68873 111.927C4.80349 105.169 10.7971 100.733 16.0871 96.8187C19.527 94.2736 23.0826 91.6416 24.0526 89.2673C25.0978 86.7048 24.3885 82.2024 23.7022 77.8476C22.6975 71.4689 21.5567 64.236 25.37 58.8185C29.2471 53.3085 36.5089 51.9273 42.9195 50.7083C47.1874 49.8976 51.6001 49.0579 53.5748 47.2772C55.5727 45.4762 56.8727 41.1533 58.1294 36.9722C59.9998 30.747 62.1193 23.6907 67.9624 20.4217C72.1261 18.0909 76.7704 18.5078 79.9004 19.0261C82.321 19.4257 84.7764 20.0742 87.1478 20.7026C89.4034 21.299 91.5344 21.8636 93.5062 22.1879C95.646 22.5412 97.2385 22.5499 98.3793 22.214C100.89 21.4757 103.898 18.1806 106.805 14.9927C111.224 10.1515 116.23 4.66745 123.008 4.25919C123.972 4.20128 124.96 4.2534 125.941 4.41554C131.217 5.28708 135.658 9.09173 139.955 12.7719C143.334 15.6644 146.826 18.6584 149.615 19.1187C152.403 19.5791 156.674 17.8679 160.803 16.2146C166.055 14.1096 171.484 11.9351 176.76 12.8037C177.744 12.9659 178.694 13.2323 179.589 13.5971C185.878 16.1596 188.857 22.9639 191.483 28.9662C193.215 32.9186 195.004 37.007 197.144 38.5126C198.117 39.1959 199.628 39.6997 201.768 40.053C203.74 40.3773 205.94 40.5308 208.265 40.69C210.712 40.8579 213.246 41.0317 215.666 41.4312C218.796 41.9466 223.328 43.044 226.521 46.5881C231.003 51.5625 230.746 58.9257 230.517 65.4231C230.364 69.7866 230.204 74.2977 231.519 76.646C232.816 78.9652 236.728 81.1774 240.509 83.3171C246.187 86.5311 252.621 90.1736 254.52 96.6363C256.388 102.992 252.986 109.475 249.986 115.193C247.936 119.096 245.82 123.133 245.985 125.895C246.138 128.455 248.66 132.091 251.101 135.606C254.851 141.012 259.101 147.139 257.986 153.897C256.872 160.655 250.878 165.091 245.588 169.006C242.148 171.551 238.592 174.183 237.622 176.557C236.577 179.12 237.287 183.622 237.973 187.977C238.978 194.356 240.118 201.588 236.305 207.006C232.428 212.516 225.166 213.897 218.756 215.116C214.488 215.927 210.075 216.766 208.1 218.547C206.102 220.348 204.802 224.671 203.546 228.852C201.675 235.077 199.556 242.134 193.713 245.403C189.549 247.734 184.905 247.317 181.775 246.798C179.354 246.399 176.899 245.75 174.527 245.122C172.272 244.525 170.141 243.961 168.169 243.636C166.029 243.283 164.437 243.275 163.296 243.61C160.785 244.349 157.777 247.644 154.87 250.832C150.451 255.673 145.445 261.157 138.667 261.565C137.703 261.623 136.718 261.571 135.734 261.409Z" fill="#3967D1"/>
  <path d="M249.98 149.447C248.521 158.292 233.163 163.084 229.917 171.05C226.565 179.276 234.125 193.429 229.133 200.526C224.06 207.738 208.144 205.399 201.658 211.242C195.14 217.114 195.815 233.175 188.159 237.46C180.541 241.725 167.216 232.755 158.756 235.242C150.431 237.689 144.084 252.473 135.218 253.006C126.633 253.521 118.552 239.664 109.706 238.204C100.861 236.745 88.7546 247.273 80.7921 244.024C72.566 240.671 71.3065 224.633 64.2097 219.641C56.9971 214.569 41.4976 218.779 35.6546 212.293C29.7826 205.775 35.5822 190.782 31.2969 183.127C27.0319 175.509 11.211 172.61 8.7238 164.15C6.27713 155.825 17.9835 144.851 17.4536 135.985C16.9382 127.4 3.93759 117.926 5.3969 109.081C6.85622 100.235 22.2138 95.4431 25.4596 87.4776C28.8126 79.2516 21.2525 65.0986 26.2443 58.0018C31.3172 50.7891 47.2336 53.1287 53.7194 47.2856C60.2371 41.4136 59.5625 25.3524 67.2181 21.0671C74.8361 16.8021 88.161 25.7723 96.6216 23.2851C104.946 20.8384 111.293 6.05411 120.159 5.52134C128.744 5.00595 136.825 18.8637 145.671 20.323C154.517 21.7823 166.622 11.2544 174.585 14.5031C182.811 17.856 184.071 33.8941 191.167 38.8859C198.38 43.9587 213.879 39.7487 219.723 46.2346C225.595 52.7523 219.795 67.745 224.08 75.4006C228.345 83.0186 244.166 85.917 246.653 94.3776C249.1 102.702 237.394 113.676 237.923 122.542C238.439 131.127 251.44 140.601 249.98 149.447Z" fill="white"/>
  <path d="M82.6538 124.017L90.8001 125.335L87.5642 145.343L82.705 144.557L85.3215 128.379L77.8458 143.771L72.9867 142.985L70.744 126.021L68.1275 142.199L63.2684 141.414L66.5043 121.405L74.7934 122.746L76.4034 137.818L82.6538 124.017Z" fill="#3967D1"/>
  <path d="M100.074 147.835C94.4712 146.929 91.6245 142.949 92.563 137.147L94.3797 125.913L99.2388 126.699L97.4915 137.504C96.8998 141.163 98.0524 143.285 100.739 143.719C103.426 144.154 105.189 142.503 105.781 138.844L107.528 128.04L112.387 128.826L110.57 140.059C109.632 145.861 105.676 148.741 100.074 147.835Z" fill="#3967D1"/>
  <path d="M122.232 151.419C115.572 150.342 112.576 144.93 113.496 139.242C114.467 133.239 119.299 129.474 125.473 130.473C131.304 131.416 134.849 135.978 133.116 140.889L128.114 140.081C129.18 137.115 127.599 134.923 124.883 134.484C121.51 133.938 119.062 136.563 118.498 140.051C117.892 143.795 119.621 146.89 122.88 147.417C125.452 147.833 127.473 146.4 128.163 144.312L133.279 145.14C131.798 149.945 127.463 152.265 122.232 151.419Z" fill="#3967D1"/>
  <path d="M151.137 135.093L155.997 135.879L152.761 155.887L147.902 155.101L149.27 146.64L141.038 145.309L139.67 153.77L134.81 152.984L138.046 132.976L142.905 133.761L141.662 141.45L149.894 142.782L151.137 135.093Z" fill="#3967D1"/>
  <path d="M171.242 158.876L170.52 155.181L161.888 153.785L160.037 157.064L154.892 156.232L165.846 137.472L171.705 138.419L176.187 159.676L171.242 158.876ZM163.941 150.157L169.715 151.091L168.08 142.878L163.941 150.157Z" fill="#3967D1"/>
  <path d="M185.284 161.616C179.853 160.738 176.952 157.453 177.998 153.164L182.886 153.954C182.439 155.994 183.54 157.345 186.027 157.747C188.199 158.099 189.576 157.383 189.784 156.096C190.431 152.095 178.096 153.825 179.377 145.907C180.043 141.791 183.58 139.87 188.582 140.679C193.927 141.544 196.68 144.834 195.515 149.133L190.656 148.347C191.198 146.265 190.211 144.932 187.839 144.548C185.838 144.225 184.561 144.869 184.357 146.126C183.71 150.128 196.06 148.488 194.793 156.32C194.132 160.407 190.543 162.467 185.284 161.616Z" fill="#3967D1"/>
  <path d="M78.6255 166.159L78.0014 170.018L74.3428 169.426C75.3033 170.198 75.7888 171.186 75.5946 172.386C75.1694 175.016 71.6453 176.675 66.9576 175.917C60.5264 174.877 57.1185 170.014 58.1447 163.668C59.1479 157.466 63.7387 153.926 70.0556 154.948C75.2292 155.784 78.5777 159.2 77.3169 164.276L72.3148 163.467C72.9595 160.931 71.6665 159.314 69.3227 158.935C66.0928 158.413 63.7616 160.676 63.1468 164.477C62.5089 168.422 64.1462 171.356 67.4905 171.897C69.2055 172.174 70.5741 171.691 70.7359 170.691C70.9069 169.633 69.5979 168.659 67.3113 168.289L67.9353 164.431L78.6255 166.159Z" fill="#3967D1"/>
  <path d="M94.8833 171.429C97.0948 172.989 97.8793 175.755 97.3111 180.357L92.452 179.571C93.1386 173.874 92.2264 172.26 89.511 171.821L85.5951 171.188L84.4486 178.276L79.5895 177.49L82.8254 157.482L92.658 159.072C97.3743 159.835 99.7724 162.599 99.1345 166.543C98.7184 169.116 97.2128 170.808 94.8833 171.429ZM86.1729 167.615L91.0607 168.405C92.7471 168.678 93.7903 167.849 94.0816 166.049C94.3728 164.248 93.6346 163.19 91.9482 162.917L87.0605 162.127L86.1729 167.615Z" fill="#3967D1"/>
  <path d="M114.96 183.211L114.238 179.516L105.606 178.12L103.756 181.399L98.6108 180.567L109.564 161.807L115.424 162.754L119.905 184.011L114.96 183.211ZM107.659 174.492L113.433 175.426L111.799 167.213L107.659 174.492Z" fill="#3967D1"/>
  <path d="M130.682 186.223C124.022 185.146 121.026 179.733 121.945 174.045C122.916 168.043 127.749 164.278 133.923 165.277C139.754 166.22 143.298 170.782 141.565 175.693L136.563 174.884C137.63 171.918 136.048 169.727 133.333 169.288C129.96 168.742 127.512 171.367 126.948 174.854C126.342 178.599 128.071 181.694 131.329 182.221C133.902 182.637 135.922 181.204 136.612 179.116L141.729 179.943C140.248 184.749 135.913 187.069 130.682 186.223Z" fill="#3967D1"/>
  <path d="M143.26 187.788L146.496 167.779L151.355 168.565L148.119 188.574L143.26 187.788Z" fill="#3967D1"/>
  <path d="M166.6 191.562L165.878 187.867L157.246 186.471L155.396 189.75L150.251 188.918L161.204 170.158L167.064 171.106L171.545 192.362L166.6 191.562ZM159.299 182.844L165.073 183.777L163.439 175.564L159.299 182.844Z" fill="#3967D1"/>
  <path d="M180.642 194.303C175.211 193.424 172.311 190.14 173.356 185.85L178.244 186.641C177.797 188.68 178.898 190.032 181.385 190.434C183.557 190.785 184.934 190.069 185.142 188.783C185.789 184.781 173.455 186.512 174.735 178.594C175.401 174.478 178.938 172.557 183.94 173.366C189.285 174.23 192.038 177.521 190.873 181.82L186.014 181.034C186.556 178.951 185.569 177.618 183.197 177.235C181.196 176.911 179.919 177.555 179.715 178.813C179.068 182.814 191.418 181.175 190.151 189.006C189.49 193.094 185.901 195.153 180.642 194.303Z" fill="#3967D1"/>
  <path d="M65.293 194.687C64.6616 193.323 64.3606 191.693 64.5968 190.232C64.8427 188.712 65.604 187.305 66.6614 186.162L67.6018 186.314C66.5928 187.475 65.8266 188.912 65.5872 190.393C65.3607 191.793 65.6639 193.536 66.2333 194.84L65.293 194.687Z" fill="#3967D1"/>
  <path d="M70.1573 194.253C68.3765 193.965 67.3879 192.778 67.739 191.305L68.7294 191.465C68.4992 192.444 69.1108 193.17 70.3113 193.364C71.3217 193.527 72.0432 193.192 72.1596 192.472C72.459 190.621 67.8742 191.358 68.311 188.657C68.523 187.346 69.6812 186.723 71.2219 186.972C72.9526 187.252 73.848 188.444 73.3865 189.837L72.3961 189.677C72.7515 188.749 72.1583 188.037 71.0579 187.859C70.1475 187.712 69.4509 188.02 69.336 188.73C69.0383 190.571 73.6234 189.896 73.1914 192.567C72.9714 193.927 71.7179 194.505 70.1573 194.253Z" fill="#3967D1"/>
  <path d="M77.9906 190.253L78.921 190.403L78.112 195.406L77.1816 195.255L77.3353 194.305C76.8603 194.957 76.2218 195.223 75.5115 195.108C74.1309 194.885 74.1176 193.507 74.2616 192.617L74.7292 189.726L75.6596 189.876L75.1936 192.757C75.0836 193.438 75.1288 194.174 75.9492 194.306C76.7595 194.437 77.4146 193.814 77.5732 192.834L77.9906 190.253Z" fill="#3967D1"/>
  <path d="M85.8171 191.385C86.8376 191.55 87.2497 192.366 87.0652 193.507L86.5378 196.768L85.6074 196.618L86.1073 193.526C86.2206 192.826 85.9981 192.297 85.3979 192.2C84.6376 192.077 83.9792 192.72 83.7996 193.831L83.4065 196.262L82.4761 196.111L82.976 193.02C83.0909 192.31 82.8684 191.781 82.2582 191.682C81.4979 191.559 80.8395 192.202 80.6567 193.333L80.2652 195.754L79.3348 195.603L80.1437 190.601L81.0741 190.752L80.9318 191.632C81.2808 191.124 81.8955 190.751 82.6858 190.879C83.4261 190.999 83.8784 191.503 83.9717 192.196C84.3802 191.574 85.0668 191.264 85.8171 191.385Z" fill="#3967D1"/>
  <path d="M90.5192 192.146C91.9197 192.372 92.4628 193.394 92.2411 194.765L91.78 197.616L90.8997 197.474L91.042 196.593C90.5783 197.175 89.8982 197.445 89.0879 197.314C88.0574 197.147 87.4642 196.436 87.6082 195.545C87.77 194.545 88.7507 194.067 90.1413 194.292C90.5415 194.357 90.9535 194.474 91.3075 194.634L91.3107 194.614C91.4467 193.774 91.2552 193.117 90.3749 192.974C89.6946 192.864 89.2062 193.155 89.2494 193.84L88.279 193.683C88.1837 192.559 89.2386 191.939 90.5192 192.146ZM89.3558 196.546C90.1761 196.679 90.9337 196.247 91.2129 195.41C90.8906 195.245 90.4801 195.117 90.09 195.053C89.1996 194.909 88.6528 195.18 88.567 195.711C88.4958 196.151 88.7955 196.456 89.3558 196.546Z" fill="#3967D1"/>
  <path d="M96.3228 194.07L94.9122 193.842L94.4818 196.503C94.4074 196.963 94.4308 197.326 95.0311 197.423C95.2712 197.462 95.481 197.434 95.6856 197.375L95.5497 198.215C95.3267 198.261 95.0368 198.276 94.7267 198.226C93.3161 197.998 93.4754 196.823 93.5498 196.362L93.9818 193.691L93.0614 193.542L93.1957 192.712L94.1161 192.861L94.3281 191.55L95.2584 191.701L95.0465 193.011L96.4571 193.24L96.3228 194.07Z" fill="#3967D1"/>
  <path d="M100.311 197.415L101.321 197.578C100.864 198.562 99.9105 199.064 98.72 198.872C97.1994 198.626 96.4089 197.42 96.6645 195.84C96.9201 194.259 98.0604 193.365 99.6111 193.616C101.322 193.893 101.935 195.306 101.228 196.886L97.6064 196.3C97.5543 197.256 97.9939 197.902 98.8543 198.042C99.4946 198.145 100.037 197.904 100.311 197.415ZM99.45 194.422C98.6196 194.287 98.0185 194.703 97.7493 195.543L100.5 195.988C100.716 195.16 100.34 194.566 99.45 194.422Z" fill="#3967D1"/>
  <path d="M107.372 194.871C108.772 195.098 109.316 196.12 109.094 197.49L108.633 200.342L107.752 200.199L107.895 199.319C107.431 199.901 106.751 200.171 105.941 200.04C104.91 199.873 104.317 199.161 104.461 198.271C104.623 197.27 105.603 196.792 106.994 197.017C107.394 197.082 107.806 197.2 108.16 197.36L108.163 197.34C108.299 196.5 108.108 195.842 107.228 195.7C106.547 195.59 106.059 195.881 106.102 196.565L105.132 196.408C105.036 195.284 106.091 194.664 107.372 194.871ZM106.208 199.272C107.029 199.405 107.786 198.973 108.066 198.135C107.743 197.97 107.333 197.842 106.943 197.779C106.052 197.635 105.505 197.906 105.42 198.436C105.349 198.876 105.648 199.181 106.208 199.272Z" fill="#3967D1"/>
  <path d="M112.289 200.933L113.422 193.93L114.352 194.08L113.219 201.083L112.289 200.933Z" fill="#3967D1"/>
  <path d="M117.337 196.483C118.738 196.709 119.281 197.731 119.059 199.102L118.598 201.953L117.717 201.811L117.86 200.93C117.396 201.512 116.716 201.782 115.906 201.651C114.875 201.485 114.282 200.773 114.426 199.882C114.588 198.882 115.568 198.404 116.959 198.629C117.359 198.694 117.771 198.812 118.125 198.972L118.129 198.952C118.264 198.111 118.073 197.454 117.193 197.312C116.512 197.202 116.024 197.492 116.067 198.177L115.097 198.02C115.001 196.896 116.056 196.276 117.337 196.483ZM116.174 200.884C116.994 201.016 117.752 200.584 118.031 199.747C117.708 199.582 117.298 199.454 116.908 199.391C116.017 199.247 115.471 199.517 115.385 200.048C115.314 200.488 115.613 200.793 116.174 200.884Z" fill="#3967D1"/>
  <path d="M124.414 203.027C122.933 202.788 122.115 201.567 122.369 199.997C122.624 198.416 123.774 197.524 125.315 197.773C126.856 198.022 127.545 199.222 127.01 200.624L126.049 200.469C126.398 199.457 126.051 198.744 125.161 198.6C124.23 198.45 123.524 199.075 123.349 200.155C123.174 201.236 123.658 202.053 124.558 202.199C125.249 202.31 125.808 201.959 126.115 201.331L127.126 201.495C126.755 202.451 125.815 203.254 124.414 203.027Z" fill="#3967D1"/>
  <path d="M129.944 203.922C128.463 203.682 127.644 202.462 127.898 200.891C128.152 199.32 129.314 198.42 130.795 198.659C132.275 198.899 133.094 200.119 132.84 201.69C132.586 203.261 131.424 204.161 129.944 203.922ZM130.078 203.091C130.978 203.237 131.687 202.602 131.86 201.532C132.035 200.451 131.561 199.635 130.66 199.49C129.77 199.346 129.053 199.969 128.879 201.049C128.705 202.12 129.188 202.947 130.078 203.091Z" fill="#3967D1"/>
  <path d="M139.902 200.132C140.923 200.297 141.335 201.113 141.15 202.254L140.623 205.515L139.692 205.365L140.192 202.274C140.306 201.573 140.083 201.044 139.483 200.947C138.723 200.824 138.064 201.467 137.885 202.578L137.491 205.009L136.561 204.858L137.061 201.767C137.176 201.057 136.953 200.528 136.343 200.429C135.583 200.306 134.925 200.949 134.742 202.08L134.35 204.501L133.42 204.35L134.229 199.348L135.159 199.499L135.017 200.379C135.366 199.871 135.98 199.498 136.771 199.626C137.511 199.746 137.963 200.25 138.057 200.943C138.465 200.321 139.152 200.011 139.902 200.132Z" fill="#3967D1"/>
  <path d="M145.734 201.209L146.664 201.359L145.855 206.361L144.925 206.211L145.078 205.261C144.603 205.913 143.965 206.179 143.255 206.064C141.874 205.841 141.861 204.463 142.005 203.573L142.472 200.681L143.403 200.832L142.937 203.713C142.827 204.393 142.872 205.13 143.692 205.262C144.502 205.393 145.158 204.77 145.316 203.79L145.734 201.209Z" fill="#3967D1"/>
  <path d="M150.589 201.861C152.19 202.12 151.936 203.69 151.803 204.511L151.36 207.252L150.429 207.101L150.868 204.39C150.974 203.73 151.122 202.819 150.151 202.663C149.291 202.523 148.581 203.168 148.401 204.279L148.008 206.71L147.078 206.559L147.887 201.557L148.817 201.708L148.663 202.658C149.134 202.036 149.819 201.736 150.589 201.861Z" fill="#3967D1"/>
  <path d="M153.947 201.726C153.577 201.666 153.344 201.331 153.402 200.971C153.462 200.601 153.787 200.366 154.158 200.426C154.518 200.484 154.752 200.809 154.693 201.18C154.634 201.54 154.307 201.785 153.947 201.726ZM152.54 207.443L153.349 202.441L154.28 202.591L153.471 207.593L152.54 207.443Z" fill="#3967D1"/>
  <path d="M159.601 201.399L160.532 201.549L159.399 208.552L158.469 208.401L158.597 207.611C158.123 208.13 157.467 208.373 156.717 208.252C155.396 208.038 154.646 206.839 154.902 205.258C155.156 203.687 156.237 202.774 157.568 202.989C158.318 203.111 158.864 203.548 159.15 204.19L159.601 201.399ZM157.111 207.463C158.022 207.611 158.74 206.977 158.913 205.907C159.086 204.836 158.604 204.009 157.694 203.862C156.783 203.715 156.055 204.346 155.882 205.417C155.709 206.487 156.201 207.316 157.111 207.463Z" fill="#3967D1"/>
  <path d="M163.469 203.944C164.87 204.17 165.413 205.192 165.191 206.563L164.73 209.414L163.85 209.272L163.992 208.391C163.529 208.973 162.848 209.243 162.038 209.112C161.008 208.946 160.414 208.234 160.558 207.343C160.72 206.343 161.701 205.865 163.092 206.09C163.492 206.155 163.904 206.273 164.258 206.432L164.261 206.412C164.397 205.572 164.205 204.915 163.325 204.773C162.645 204.663 162.156 204.953 162.2 205.638L161.229 205.481C161.134 204.357 162.189 203.737 163.469 203.944ZM162.306 208.344C163.126 208.477 163.884 208.045 164.163 207.208C163.841 207.043 163.43 206.915 163.04 206.852C162.15 206.708 161.603 206.978 161.517 207.509C161.446 207.949 161.746 208.254 162.306 208.344Z" fill="#3967D1"/>
  <path d="M170.729 203.198L171.659 203.349L170.527 210.352L169.596 210.201L169.724 209.411C169.25 209.93 168.595 210.173 167.845 210.051C166.524 209.838 165.774 208.638 166.029 207.058C166.283 205.487 167.365 204.574 168.696 204.789C169.446 204.91 169.991 205.348 170.278 205.989L170.729 203.198ZM168.239 209.263C169.149 209.41 169.868 208.777 170.041 207.707C170.214 206.636 169.732 205.809 168.822 205.661C167.911 205.514 167.183 206.146 167.01 207.216C166.837 208.287 167.329 209.116 168.239 209.263Z" fill="#3967D1"/>
  <path d="M172.163 211.971L171.223 211.819C172.174 210.762 173.011 209.203 173.237 207.803C173.477 206.322 173.203 204.717 172.611 203.297L173.551 203.449C174.195 204.867 174.474 206.442 174.228 207.963C173.992 209.423 173.192 210.875 172.163 211.971Z" fill="#3967D1"/>
  <path d="M132.643 73.347C133.3 69.3663 132.227 65.8743 130.247 65.5476C128.267 65.2208 126.129 68.183 125.472 72.1638C124.815 76.1445 125.888 79.6365 127.868 79.9632C129.848 80.2899 131.986 77.3278 132.643 73.347Z" fill="#3967D1"/>
  <path d="M147.817 83.2581C149.797 83.5853 151.934 80.6233 152.591 76.642C153.248 72.6607 152.177 69.1688 150.197 68.8416C148.216 68.5144 146.079 71.4765 145.422 75.4577C144.765 79.439 145.836 82.931 147.817 83.2581Z" fill="#3967D1"/>
  <path d="M134.433 104.297C146.913 106.355 158.738 97.8804 160.8 85.401C160.866 85.0014 160.594 84.625 160.194 84.5584C159.795 84.4918 159.418 84.764 159.352 85.1635C157.423 96.8439 146.354 104.78 134.671 102.852C122.991 100.924 115.054 89.8513 116.982 78.171C117.049 77.7714 116.777 77.395 116.377 77.3284C115.978 77.2618 115.601 77.534 115.535 77.9335C113.476 90.413 121.951 102.238 134.431 104.3L134.433 104.297Z" fill="#3967D1"/>
  <path d="M161.442 63.013C156.963 57.3234 150.434 53.2234 142.738 51.9523C126.387 49.2538 110.882 60.3608 108.183 76.7173C106.524 86.7733 110.085 96.502 116.872 103.133C121.349 108.828 127.887 112.931 135.583 114.199C151.939 116.898 167.439 105.791 170.138 89.4342C171.797 79.3782 168.235 69.6437 161.442 63.013ZM112.356 95.1412C109.48 89.7411 108.29 83.3971 109.362 76.9113C111.953 61.2034 126.839 50.5364 142.544 53.1308C146.78 53.8286 150.651 55.4211 153.992 57.6883C156.506 59.3821 158.718 61.4611 160.562 63.8151C165.372 69.9651 167.7 78.0232 166.333 86.3129C163.741 102.021 148.85 112.691 133.142 110.099C127.122 109.106 121.844 106.3 117.764 102.336C115.598 100.24 113.774 97.805 112.356 95.1412Z" fill="#3967D1"/>
</svg>
