<svg width="75" height="75" viewBox="0 0 75 75" fill="none" xmlns="http://www.w3.org/2000/svg">
  <rect x="0.505859" y="7.97412" width="66.3492" height="66.3492" fill="#2E2E2E"/>
  <rect x="7.87793" y="0.602051" width="66.3492" height="66.3492" fill="#ABC2FB"/>
  <path d="M57.7271 23.0972C56.4102 23.6694 55.0169 24.0463 53.5913 24.2162C55.0896 23.3388 56.2163 21.945 56.7602 20.2961C55.3436 21.1244 53.7964 21.7056 52.1849 22.0148C51.5062 21.3036 50.6901 20.7378 49.786 20.3518C48.8819 19.9658 47.9087 19.7677 46.9257 19.7695C42.9457 19.7695 39.7248 22.9436 39.7248 26.8564C39.722 27.4006 39.7843 27.9432 39.9105 28.4727C37.0566 28.3389 34.262 27.6108 31.7055 26.3351C29.149 25.0594 26.887 23.2641 25.0641 21.064C24.4245 22.1421 24.0863 23.3722 24.0848 24.6257C24.0848 27.0831 25.3668 29.2552 27.3027 30.5278C26.1558 30.5005 25.0323 30.197 24.0277 29.6428V29.7306C24.0277 33.1679 26.5143 36.0275 29.8054 36.6784C29.1865 36.8434 28.5488 36.927 27.9083 36.9271C27.4538 36.9279 27.0004 36.8838 26.5546 36.7955C27.4695 39.6112 30.1323 41.659 33.2867 41.7175C30.7236 43.6928 27.5767 44.7604 24.3408 44.7526C23.7664 44.7517 23.1925 44.7176 22.6221 44.6502C25.914 46.7523 29.7407 47.8642 33.6465 47.8535C46.9103 47.8535 54.1566 37.0514 54.1566 27.6828C54.1566 27.3756 54.1485 27.0685 54.1339 26.7686C55.5404 25.7682 56.7571 24.5249 57.7271 23.0972Z" fill="#2E2E2E"/>
</svg>
