<svg xmlns="http://www.w3.org/2000/svg" xmlns:xlink="http://www.w3.org/1999/xlink" width="166" height="25" viewBox="0 0 166 25" version="1.1">
<title>cedarcode-logo</title>
<desc>Created using Figma</desc>
<g id="Canvas" transform="translate(6647 1691)">
<g id="cedarcode-logo">
<g id="path4583">
<use xlink:href="#path0_fill" transform="matrix(0.694743 0 0 0.694743 -6647 -1691)"/>
</g>
<g id="g4613">
<g id="path4593">
<use xlink:href="#path1_fill" transform="matrix(3.3146 0 0 3.3146 -6612.32 -1684.11)" fill="#1A1A1A"/>
</g>
<g id="path4595">
<use xlink:href="#path2_fill" transform="matrix(3.3146 0 0 3.3146 -6597.66 -1684.11)"/>
</g>
<g id="path4597">
<use xlink:href="#path3_fill" transform="matrix(3.3146 0 0 3.3146 -6583.06 -1689.62)"/>
</g>
<g id="path4599">
<use xlink:href="#path4_fill" transform="matrix(3.3146 0 0 3.3146 -6566.56 -1684.11)"/>
</g>
<g id="path4601">
<use xlink:href="#path5_fill" transform="matrix(3.3146 0 0 3.3146 -6550.91 -1683.98)"/>
</g>
<g id="path4603">
<use xlink:href="#path6_fill" transform="matrix(3.3146 0 0 3.3146 -6524.97 -1684.11)"/>
</g>
<g id="path4605">
<use xlink:href="#path7_fill" transform="matrix(3.3146 0 0 3.3146 -6509.57 -1689.62)"/>
</g>
<g id="path4607">
<use xlink:href="#path8_fill" transform="matrix(3.3146 0 0 3.3146 -6539.63 -1684.11)"/>
</g>
<g id="path4609">
<use xlink:href="#path9_fill" transform="matrix(3.3146 0 0 3.3146 -6493.52 -1684.11)"/>
</g>
</g>
</g>
</g>
<defs>
<path id="path0_fill" d="M -4.79146e-05 5.10933e-05L -4.79146e-05 4.49809L -4.79146e-05 31.4865L -4.79146e-05 35.9845L 10.9759 35.9845L 12.1961 31.4865L 4.55351 31.4865L 4.55351 4.49809L 19.5163 4.49809L 20.7364 5.10933e-05L -4.79146e-05 5.10933e-05ZM 25.4505 5.10933e-05L 24.2304 4.49809L 31.8731 4.49809L 31.8731 31.4865L 16.9101 31.4865L 15.69 35.9845L 36.4265 35.9845L 36.4265 35.9844L 36.4265 31.4865L 36.4265 5.10933e-05L 25.4505 5.10933e-05Z"/>
<path id="path1_fill" d="M 1.86727 4.24672e-05C 1.34481 4.24672e-05 0.901833 0.172295 0.537861 0.516505C 0.179335 0.855564 -5.82139e-05 1.32112 -5.82139e-05 1.91328C -5.82139e-05 2.50034 0.179335 2.96829 0.537861 3.31752C 0.901833 3.66671 1.35228 3.84144 1.89022 3.84144C 2.12579 3.84144 2.34608 3.80856 2.55128 3.74274C 2.76135 3.67694 2.93059 3.59589 3.05841 3.49972C 3.19168 3.4036 3.29407 3.31766 3.36572 3.24176C 3.44252 3.16583 3.49118 3.10988 3.51181 3.07449C 3.52041 3.0609 3.52623 3.05028 3.53196 3.0391L 3.14629 2.72557C 3.06805 2.84978 2.9189 2.97876 2.69793 3.11264C 2.47755 3.24426 2.20888 3.31005 1.89134 3.31005C 1.57351 3.31005 1.28665 3.18592 1.03044 2.93791C 0.774514 2.68489 0.646452 2.3459 0.646452 1.92074C 0.646452 1.49061 0.777192 1.15131 1.03828 0.9033C 1.29965 0.655348 1.5865 0.531435 1.89917 0.531435C 2.21672 0.531435 2.47735 0.614888 2.68226 0.781925C 2.88517 0.947236 2.99024 1.12015 2.9974 1.30032L 2.9974 1.52621L 3.53588 1.52621L 3.53588 0.872334L 3.53588 0.82008L 3.53588 0.045385L 3.05058 0.045385L 3.05058 0.560742C 2.78405 0.187003 2.38971 4.24672e-05 1.86783 4.24672e-05L 1.86727 4.24672e-05Z"/>
<path id="path2_fill" d="M 1.85235 0.000212336C 1.33477 0.000212336 0.896584 0.172465 0.538058 0.516675C 0.179532 0.855733 0.000138818 1.32129 0.000138818 1.91345C 0.000138818 2.50051 0.179532 2.96846 0.538058 3.31768C 0.901743 3.66688 1.35248 3.84161 1.89041 3.84161C 2.12628 3.84161 2.34656 3.80873 2.55148 3.74291C 2.76155 3.67711 2.9305 3.59606 3.05861 3.49988C 3.19188 3.40377 3.29455 3.31783 3.36591 3.24193C 3.43785 3.166 3.48382 3.11005 3.50417 3.07466C 3.51277 3.06135 3.52139 3.05045 3.52712 3.03927L 3.14817 2.73127C 3.07022 2.85598 2.92024 2.9832 2.69813 3.11281C 2.47803 3.24443 2.21204 3.31022 1.89937 3.31022C 1.58698 3.31022 1.3052 3.19626 1.05415 2.96849C 0.808251 2.74075 0.675121 2.41706 0.654486 1.99694L 2.43337 1.99694L 3.5288 1.99694C 3.5288 1.9649 3.5288 1.93076 3.5288 1.89769L 3.5288 1.86728C 3.5288 1.85708 3.5288 1.8472 3.5288 1.83686C 3.5288 1.83686 3.5288 1.83412 3.5288 1.83299C 3.5288 1.81827 3.5288 1.80373 3.5288 1.78876C 3.5288 1.72367 3.52614 1.66015 3.5204 1.59826C 3.5204 1.59826 3.5204 1.59498 3.5204 1.59356C 3.48257 1.14531 3.33742 0.780995 3.08436 0.501192C 2.78745 0.167174 2.37761 -6.41431e-05 1.85515 -6.41431e-05L 1.85235 0.000212336ZM 1.85235 0.501192C 2.15958 0.501192 2.40526 0.594872 2.58954 0.782095C 2.77382 0.969375 2.87409 1.22009 2.88957 1.53384L 0.66848 1.53384C 0.709462 1.18972 0.840475 0.931388 1.06086 0.759424C 1.28097 0.587319 1.54484 0.501192 1.85235 0.501192Z"/>
<path id="path3_fill" d="M 2.4524 7.91836e-05L 2.4524 0.0857877C 2.4524 0.0886189 2.4524 0.0893355 2.4524 0.0913173L 2.4524 0.417563C 2.4524 0.420394 2.4524 0.42111 2.4524 0.423092L 2.4524 0.508801L 2.55092 0.508801L 2.98192 0.508801L 2.98192 2.15606C 2.98192 2.22183 2.98172 2.30528 2.99032 2.40655L 2.98192 2.40655C 2.88964 2.199 2.73804 2.02435 2.52797 1.88263C 2.3179 1.73589 2.05403 1.66255 1.73648 1.66255C 1.21918 1.66255 0.798915 1.83971 0.475926 2.19394C 0.158382 2.54316 0.000138818 3.00629 0.000138818 3.58325C 0.000138818 4.15514 0.158382 4.61832 0.475926 4.97256C 0.798915 5.32687 1.21651 5.50395 1.72865 5.50395C 2.05135 5.50395 2.32566 5.42551 2.55092 5.26867C 2.77646 5.10667 2.93047 4.91942 3.01215 4.70686L 3.02055 4.70686L 3.02055 5.13181C 3.02055 5.13181 3.02055 5.13202 3.02055 5.13485L 3.02055 5.45142L 3.35584 5.45142C 3.35584 5.45142 3.35577 5.45142 3.35864 5.45142L 4.02698 5.45142L 4.11822 5.45142L 4.11822 4.9427L 3.59597 4.9427L 3.59597 0.509077L 3.59597 0.000632142L 3.50305 0.000632142L 2.55036 0.000632142L 2.4524 7.91836e-05ZM 1.81429 2.19394C 2.14731 2.19394 2.42612 2.31785 2.65167 2.56581C 2.87722 2.80872 2.98976 3.14292 2.98976 3.56804C 2.98976 3.99317 2.8799 4.33484 2.65951 4.59295C 2.43941 4.846 2.15762 4.97256 1.81429 4.97256C 1.47124 4.97256 1.18678 4.84332 0.961229 4.58521C 0.741126 4.32709 0.630976 3.9881 0.630976 3.56804C 0.630976 3.14793 0.743517 2.81381 0.969065 2.56581C 1.19948 2.31785 1.48127 2.19394 1.81429 2.19394Z"/>
<path id="path4_fill" d="M 1.72952 4.24672e-05C 1.36067 4.24672e-05 1.04012 0.0530132 0.768429 0.159294C 0.503045 0.263282 0.326356 0.369855 0.237226 0.478628L 0.610019 0.850769C 0.640398 0.830951 0.678219 0.806934 0.729806 0.77446C 0.791423 0.739071 0.891694 0.693512 1.02983 0.63788C 1.16826 0.577152 1.39362 0.546642 1.70601 0.546642C 2.37205 0.546642 2.70516 0.862898 2.70516 1.49552L 2.70516 1.58676L 2.05921 1.58676C 1.41896 1.58676 0.914492 1.68548 0.545648 1.88287C 0.181963 2.07516 -0.000107472 2.3789 -0.000107472 2.79386C -0.000107472 3.1178 0.117516 3.37599 0.353094 3.56828C 0.588673 3.75556 0.891318 3.84891 1.26045 3.84891C 1.8855 3.84891 2.3849 3.59339 2.7589 3.08223L 2.77289 3.08223L 2.77289 3.4693C 2.77289 3.4693 2.77289 3.47232 2.77289 3.47345L 2.77289 3.78836L 3.8644 3.78836L 3.8644 3.27964L 3.77316 3.27964L 3.34272 3.27964L 3.34272 1.51847C 3.34272 0.506274 2.80482 4.24672e-05 1.72896 4.24672e-05L 1.72952 4.24672e-05ZM 2.09783 2.04212L 2.70516 2.04212L 2.70516 2.65728C 2.36698 3.09243 1.94939 3.31005 1.45244 3.31005C 1.21686 3.31005 1.02435 3.25435 0.8759 3.14306C 0.732318 3.02661 0.660957 2.8798 0.660957 2.70263C 0.660957 2.52551 0.727522 2.38641 0.860787 2.28514C 0.999211 2.18393 1.16549 2.11811 1.36008 2.08774C 1.55468 2.05736 1.80064 2.04212 2.09783 2.04212Z"/>
<path id="path5_fill" d="M 2.75963 0.00151157C 2.5017 0.00151157 2.26884 0.040254 2.06106 0.115421C 1.85615 0.191324 1.69708 0.277259 1.58416 0.373376C 1.4764 0.464454 1.37697 0.581118 1.28469 0.722846C 1.1927 0.864516 1.13869 0.975833 1.12292 1.05683L 1.09997 1.05683L 1.09997 0.525163L 1.09997 0.0167179L 0.99978 0.0167179L 0.100822 0.0167179L 0.00118667 0.0167179L 0.00118667 0.106021L 0.00118667 0.432543L 0.00118667 0.521845L 0.0997026 0.521845L 0.522313 0.521845L 0.522313 3.23963L 0.0997026 3.23963L 6.71699e-05 3.23963L 6.71699e-05 3.32894C 6.71699e-05 3.32894 6.71699e-05 3.32887 6.71699e-05 3.3317L 6.71699e-05 3.65822C 6.71699e-05 3.65822 6.71699e-05 3.65816 6.71699e-05 3.66099L 6.71699e-05 3.75029L 0.0985831 3.75029L 1.56625 3.75029L 1.66588 3.75029L 1.66588 3.65933L 1.66588 3.33281L 1.66588 3.24157L 1.56569 3.24157L 1.15819 3.24157L 1.15819 1.96617C 1.15819 1.61185 1.28864 1.29563 1.55001 1.0173C 1.8111 0.738909 2.16212 0.599812 2.6029 0.599812L 2.62305 0.599812L 2.76411 0.599812L 2.86375 0.599812L 2.86375 0.501109L 2.86375 0.0985557L 2.86375 0.000129171L 2.76411 0.000129171L 2.75963 0.00151157Z"/>
<path id="path6_fill" d="M 3.28937 3.30999C 2.93055 3.66426 2.47178 3.84139 1.9135 3.84139C 1.35522 3.84139 0.89701 3.66669 0.538197 3.31746C 0.179575 2.96319 0.000277636 2.49523 0.000277636 1.91322C 0.000277636 1.32614 0.181693 0.860308 0.545474 0.516172C 0.909254 0.171999 1.36535 -1.41557e-05 1.9135 -1.41557e-05C 2.46681 -1.41557e-05 2.92291 0.174682 3.28153 0.523914C 3.64531 0.868049 3.82728 1.33119 3.82728 1.91322C 3.82728 2.49019 3.64799 2.95572 3.28937 3.30999ZM 0.645669 1.91322C 0.645669 2.32823 0.768088 2.66454 1.01398 2.92265C 1.26007 3.18077 1.56004 3.30999 1.9135 3.30999C 2.27212 3.30999 2.5744 3.18077 2.8203 2.92265C 3.06619 2.66454 3.18917 2.32823 3.18917 1.91322C 3.18917 1.49821 3.06388 1.16403 2.81302 0.910985C 2.56693 0.657937 2.26964 0.531379 1.92134 0.531379C 1.57284 0.531379 1.27287 0.657937 1.02182 0.910985C 0.770766 1.16403 0.645669 1.49821 0.645669 1.91322Z"/>
<path id="path7_fill" d="M 2.45274 7.91836e-05L 2.45274 0.0857877C 2.45274 0.0886189 2.45274 0.0893355 2.45274 0.0913173L 2.45274 0.417563C 2.45274 0.420394 2.45274 0.421394 2.45274 0.423092L 2.45274 0.508801L 2.55126 0.508801L 2.98226 0.508801L 2.98226 2.15634C 2.98226 2.22208 2.98206 2.30556 2.99066 2.40683L 2.98226 2.40683C 2.8897 2.19925 2.73811 2.02463 2.52775 1.8829C 2.31796 1.73616 2.05437 1.66255 1.73682 1.66255C 1.21924 1.66255 0.798968 1.83998 0.476266 2.19422C 0.158723 2.54344 -8.06039e-05 3.00626 -8.06039e-05 3.58325C -8.06039e-05 4.15514 0.158723 4.61832 0.476266 4.97256C 0.798968 5.32687 1.21656 5.50395 1.72899 5.50395C 2.05169 5.50395 2.32571 5.42551 2.55126 5.26867C 2.7768 5.10664 2.93053 4.91939 3.01249 4.70686L 3.02089 4.70686L 3.02089 5.13208L 3.02089 5.13485L 3.02089 5.45142L 3.35674 5.45142L 3.35674 5.45169L 4.02564 5.45169L 4.02564 5.45142L 4.11688 5.45142L 4.11688 4.94297L 3.59407 4.94297L 3.59407 0.509354L 3.59407 0.000632142L 3.50171 0.000632142L 2.54846 0.000632142L 2.45274 7.91836e-05ZM 1.81463 2.19394C 2.14765 2.19394 2.42646 2.31785 2.65201 2.56581C 2.87756 2.80875 2.9901 3.14292 2.9901 3.56804C 2.9901 3.9932 2.88051 4.33481 2.66041 4.59295C 2.43973 4.84597 2.15796 4.97256 1.81463 4.97256C 1.47129 4.97256 1.18683 4.84332 0.961569 4.58521C 0.740893 4.32712 0.631317 3.9881 0.631317 3.56804C 0.631317 3.14793 0.743858 2.81381 0.969405 2.56581C 1.19983 2.31785 1.48161 2.19394 1.81463 2.19394Z"/>
<path id="path8_fill" d="M 1.86713 4.24672e-05C 1.34468 4.24672e-05 0.901125 0.172295 0.537727 0.516505C 0.178914 0.855564 -0.000192554 1.32112 -0.000192554 1.91328C -0.000192554 2.50034 0.178914 2.96829 0.537727 3.31752C 0.901125 3.66671 1.35215 3.84144 1.89008 3.84144C 2.12566 3.84144 2.34652 3.80859 2.55115 3.74274C 2.7615 3.67692 2.9299 3.59589 3.05772 3.49972C 3.19127 3.4036 3.29421 3.31769 3.36614 3.24176C 3.44237 3.16586 3.49104 3.10988 3.51168 3.07449C 3.52027 3.0609 3.5233 3.05057 3.52903 3.0391L 3.14336 2.72557C 3.06512 2.84975 2.91652 2.97879 2.69556 3.11264C 2.47517 3.24426 2.20595 3.31005 1.8884 3.31005C 1.57086 3.31005 1.28372 3.18595 1.02751 2.93791C 0.771294 2.68489 0.643519 2.34584 0.643519 1.92074C 0.643519 1.49058 0.773972 1.15131 1.03534 0.9033C 1.29643 0.655348 1.58357 0.531435 1.89624 0.531435C 2.21407 0.531435 2.47497 0.614916 2.67989 0.781925C 2.88251 0.947293 2.9873 1.12015 2.99447 1.30032L 2.99447 1.52621L 3.53351 1.52621L 3.53351 0.872334L 3.53351 0.82008L 3.53351 0.045385L 3.04764 0.045385L 3.04764 0.560742C 2.7814 0.186974 2.38734 4.24672e-05 1.86545 4.24672e-05L 1.86713 4.24672e-05Z"/>
<path id="path9_fill" d="M 1.8523 0.000495451C 1.33471 0.000495451 0.896817 0.172748 0.538004 0.516958C 0.179478 0.856017 8.50819e-05 1.32157 8.50819e-05 1.91373C 8.50819e-05 2.5008 0.179478 2.96875 0.538004 3.31797C 0.901689 3.66716 1.35271 3.8419 1.89036 3.8419C 2.12622 3.8419 2.34651 3.80902 2.55142 3.74319C 2.76149 3.6774 2.93045 3.59637 3.05856 3.50017C 3.19211 3.40408 3.2945 3.31814 3.36586 3.24221C 3.43779 3.16631 3.48377 3.11033 3.50412 3.07494C 3.51558 3.06164 3.5214 3.05074 3.52427 3.03955L 3.14532 2.73156C 3.06736 2.85627 2.91739 2.98349 2.69528 3.1131C 2.47518 3.24472 2.2089 3.3105 1.89652 3.3105C 1.58384 3.3105 1.30235 3.19654 1.05129 2.96878C 0.805399 2.74104 0.672268 2.41734 0.651633 1.99723L 2.43052 1.99723L 3.52595 1.99723C 3.52595 1.96515 3.52595 1.93104 3.52595 1.89797L 3.52595 1.86756C 3.52595 1.85737 3.52595 1.84776 3.52595 1.83715C 3.52595 1.83432 3.52595 1.83441 3.52595 1.833C 3.52595 1.81856 3.52595 1.80374 3.52595 1.78876C 3.52595 1.72367 3.52048 1.66016 3.51475 1.59827C 3.51475 1.59544 3.51475 1.59527 3.51475 1.59357C 3.47692 1.14531 3.33148 0.781001 3.07871 0.501199C 2.78151 0.167152 2.37167 -5.75077e-05 1.8495 -5.75077e-05L 1.8523 0.000495451ZM 1.8523 0.501476C 2.15981 0.501476 2.40521 0.595183 2.58949 0.782378C 2.77376 0.969687 2.87432 1.22038 2.88951 1.53413L 0.668426 1.53413C 0.709409 1.19003 0.840135 0.931671 1.06081 0.759707C 1.28091 0.587602 1.54478 0.501476 1.8523 0.501476Z"/>
</defs>
</svg>