<svg xmlns:xlink="http://www.w3.org/1999/xlink" xmlns="http://www.w3.org/2000/svg" viewBox="0 0 615.26 105.16" width="615.26"  height="105.16" ><g id="Capa_2" data-name="Capa 2"><g id="Layer_1" data-name="Layer 1"><path d="M88.23,21.81,53.29,1.64a12.22,12.22,0,0,0-12.24,0L6.12,21.81A12.24,12.24,0,0,0,0,32.41V72.75a12.24,12.24,0,0,0,6.12,10.6l34.93,20.17a12.27,12.27,0,0,0,12.24,0L88.23,83.35a12.26,12.26,0,0,0,6.12-10.6V32.41A12.26,12.26,0,0,0,88.23,21.81Zm-35,48.77L74.84,56.65v5.76L53.21,76.35Zm29.87,1L53.21,90.18V84.42L83.08,65.81Zm0-27.68L53.21,62.51V56.74L83.08,38.13Z"/><path d="M165.68,59.65l9.11,3.9c-2.68,6.66-10.87,12.17-21.51,12.17-13.85,0-23.8-8.49-23.8-21,0-11.86,9.8-20.89,23.73-20.89s22.27,9,22.27,20.51v3.37H139.81c1.3,5.81,6.59,9.26,13.47,9.26C159.25,67,163.85,64.09,165.68,59.65ZM140.2,50.46h24.72c-.61-3.75-5.13-8-12.1-8C146.93,42.43,141.88,45.18,140.2,50.46Z"/><path d="M178.92,63.25c0-7.43,6.36-11.56,16-12.56l16.76-1.76v-.3c0-3.37-3-6.13-10-6.13-5.89,0-10.71,2.61-12.09,6.13l-9.26-3.14c2.53-7,11.4-11.63,21.74-11.63,12.63,0,20,5.12,20,14.92V64.62c0,2.22,1,3.22,5.59,2.22v8c-8.8,1.76-13.16-1.07-14.85-5-3.67,3.44-9.72,5.81-16.91,5.81C186.19,75.72,178.92,71.36,178.92,63.25Zm32.76-6.66-15.15,1.68c-4.75.54-7.2,1.69-7.2,4.67s3,4.59,8,4.59c6.58,0,14.39-2.83,14.39-8.19Z"/><path d="M252.25,89.35c-10.8,0-19.37-3.83-22.66-10.57l8.5-5.2c2.06,4.59,7.42,7.35,14,7.35,7.58,0,14.16-3.68,14.16-10.72V68.68c-2.83,2.91-7.73,5.59-15,5.59-13.78,0-21.89-9.19-21.89-20.28,0-10.87,8.11-20.13,21.89-20.13,7.35,0,12.17,2.6,15,5.43V34.62H277v34.6C277,81.77,266.33,89.35,252.25,89.35Zm.91-46.92c-7.27,0-13.39,4.28-13.39,11.56s6.12,11.63,13.39,11.63,13.63-4.36,13.63-11.48v-.31C266.79,46.79,260.51,42.43,253.16,42.43Z"/><path d="M319.06,59.65l9.11,3.9c-2.68,6.66-10.87,12.17-21.51,12.17-13.85,0-23.8-8.49-23.8-21,0-11.86,9.8-20.89,23.73-20.89s22.27,9,22.27,20.51v3.37H293.19c1.3,5.81,6.59,9.26,13.47,9.26C312.63,67,317.23,64.09,319.06,59.65Zm-25.48-9.19H318.3c-.61-3.75-5.13-8-12.09-8C300.31,42.43,295.26,45.18,293.58,50.46Z"/><path d="M365.06,45.49a16,16,0,0,0-4.82-.61c-8.88,0-14.77,3.59-14.77,12.86V74.88H334.75V34.62h10.72v7.12c3.44-5.28,8.57-7.35,15.15-7.35a16.93,16.93,0,0,1,4.44.54Z"/><path d="M406.85,34.62l9.64,27.25,9.8-27.25h11L421.47,74.88h-9.64L402,48.09l-9.87,26.79h-9.64L366.52,34.62h11.4l10,27.25,9.56-27.25Z"/><path d="M483.77,54.75c0,12.63-10.33,21-23.42,21s-23.57-8.34-23.57-21,10.41-20.89,23.57-20.89S483.77,42.2,483.77,54.75Zm-10.33,0c0-7.58-5.89-11.94-13.09-11.94-7.35,0-13.16,4.36-13.16,11.94s5.81,12,13.16,12C467.55,66.77,473.44,62.4,473.44,54.75Z"/><path d="M520.05,45.49a16,16,0,0,0-4.82-.61c-8.88,0-14.77,3.59-14.77,12.86V74.88H489.74V34.62h10.72v7.12c3.44-5.28,8.57-7.35,15.15-7.35a16.93,16.93,0,0,1,4.44.54Z"/><path d="M535.74,53.22l21.74-18.6h14.77l-20.82,17.3,21.43,23H559.39L543.78,58.35l-8,6.66v9.87H525V19.93h10.71Z"/><path d="M577.3,60.26c4.52,4.9,10.56,7.12,17.53,7.12,5.89,0,9.79-1.3,9.79-4.29S601,60,591.69,58.88c-10.1-1.3-18.14-3.06-18.14-11.63,0-8,7.65-13.39,19.9-13.39,9.57,0,17.07,3.29,20.82,7.57l-6.12,6.51c-3.37-3.68-8.73-5.82-15.24-5.82-6,0-8.87,1.61-8.87,4,0,2.53,2.83,2.83,11.55,3.91,10.57,1.22,19.67,2.75,19.67,12s-9.41,13.7-20.89,13.7c-9.72,0-18.6-3.06-23.19-8.42Z"/></g></g></svg>