<svg width="114" height="43" viewBox="0 0 114 43" fill="none" xmlns="http://www.w3.org/2000/svg">
  <g clip-path="url(#clip0_17_1188)">
    <path d="M112.458 9.00791C111.442 7.98814 110.107 7.45938 108.584 7.45938C107.061 7.45938 105.726 7.98814 104.71 8.98902C103.92 9.7444 103.431 10.7075 103.224 11.7839C102.792 9.12121 100.78 7.45938 97.8459 7.45938C97.2253 7.45938 96.6236 7.5538 96.0782 7.72376V5.45762C96.0782 3.90909 95.5328 2.54941 94.4797 1.52964C93.4454 0.528766 92.1102 0 90.6057 0C89.1013 0 87.7661 0.54765 86.7506 1.56741C85.7351 2.58718 85.1897 3.94686 85.1897 5.43874V7.51603C84.7572 7.42161 84.287 7.36495 83.8169 7.36495C80.3755 7.36495 77.4418 8.55468 75.0911 10.9341C75.0534 10.9719 75.0346 10.9908 74.997 11.0285C74.3576 8.76241 72.4395 7.36495 69.7691 7.36495C68.2458 7.36495 66.9106 7.89372 65.8951 8.91348C65.1052 9.70663 64.5975 10.7075 64.4282 11.8217C64.2402 10.6886 63.7512 9.70663 62.9614 8.91348C61.9459 7.89372 60.6107 7.36495 59.0874 7.36495C57.5642 7.36495 56.229 7.89372 55.2135 8.91348C54.4236 9.70663 53.9159 10.7075 53.7466 11.8217C53.5586 10.7075 53.0696 9.70663 52.2798 8.91348C51.2643 7.89372 49.9291 7.36495 48.4058 7.36495C45.7166 7.36495 43.7796 8.78129 43.159 11.0852C43.1214 11.0474 43.0838 11.0097 43.0462 10.9719C40.6955 8.63022 37.7618 7.44049 34.3204 7.44049C30.8789 7.44049 28.0581 8.59245 25.745 10.8397V5.45762C25.745 3.90909 25.1996 2.54941 24.1465 1.52964C23.0746 0.528766 21.7394 0 20.2349 0C18.7305 0 17.3576 0.528766 16.3421 1.54853C15.3266 2.56829 14.8001 3.90909 14.8001 5.43874V10.3865H10.9073V5.45762C10.9073 3.90909 10.3619 2.54941 9.30881 1.52964C8.2745 0.528766 6.93929 0 5.43484 0C3.93039 0 2.55757 0.528766 1.54207 1.54853C0.526559 2.56829 0 3.92798 0 5.45762V29.5542C0 31.0839 0.526559 32.4436 1.54207 33.4444C2.55757 34.4642 3.89277 34.993 5.41603 34.993C6.93929 34.993 8.25569 34.4642 9.29 33.4633C10.3431 32.4436 10.8885 31.0839 10.8885 29.5354V24.1155H14.7813V32.1225C14.7813 35.1629 15.8344 37.769 17.903 39.8463C21.0247 42.9811 24.2969 42.9811 27.193 42.9811H27.4563C28.9607 42.9811 30.2959 42.4524 31.3303 41.4515C32.3834 40.4317 32.9287 39.072 32.9287 37.5235C32.9287 36.9947 32.8723 35.3518 32.9099 34.993C33.3613 35.0307 33.8126 35.0685 34.2639 35.0685C37.7054 35.0685 40.6391 33.8788 42.9898 31.5182C43.5163 30.9895 43.9865 30.4229 44.4002 29.8186C44.8327 30.5362 45.3593 31.1972 45.9611 31.8015C48.0297 33.8788 50.6249 34.9174 53.6714 34.9174C55.552 34.9174 57.4137 34.4642 59.031 33.6333C60.6483 34.4642 62.5101 34.9174 64.3906 34.9174C67.456 34.9174 70.0511 33.8599 72.101 31.8015C72.7215 31.1783 73.2481 30.4985 73.6994 29.7809C74.1132 30.3663 74.5645 30.9139 75.0911 31.4427C77.4418 33.8032 80.3567 34.993 83.7793 34.993C87.2019 34.993 90.1168 33.8032 92.4863 31.4427C93.0129 30.9139 94.1036 30.1585 94.2164 30.3474C94.1224 30.4229 94.0284 30.5173 93.9532 30.5929C92.9188 31.6315 92.3735 32.9723 92.3735 34.5209V37.5424C92.3735 39.0909 92.9188 40.4506 93.972 41.4704C94.9875 42.4712 96.3415 43 97.8459 43H103.168C106.196 43 108.791 41.9425 110.859 39.8652C112.928 37.7879 113.981 35.1818 113.981 32.1414V12.8981C114.019 11.3685 113.473 10.0277 112.458 9.00791Z" fill="black"/>
    <path d="M59.0492 27.0426C60.5161 28.2701 62.4907 28.8933 64.4089 28.8933C66.6467 28.8933 68.5085 28.1568 69.9941 26.6649C71.4798 25.173 72.2132 23.3035 72.2132 21.0562V12.8226C72.2132 11.1985 71.3858 10.3865 69.7497 10.3865C69.0162 10.3865 68.4333 10.6131 68.0007 11.0663C67.5494 11.5195 67.3237 12.105 67.3237 12.8226V21.0373C67.3237 21.8683 67.0417 22.567 66.4775 23.1335C65.9133 23.7 65.2175 23.9833 64.3901 23.9833C63.5626 23.9833 62.8856 23.7 62.3026 23.1335C61.7384 22.567 61.4564 21.8683 61.4564 21.0373V12.8226C61.4564 12.105 61.2307 11.5007 60.7794 11.0663C60.328 10.6131 59.745 10.3865 59.0304 10.3865C58.3158 10.3865 57.714 10.6131 57.2815 11.0663C56.8302 11.5195 56.6045 12.105 56.6045 12.8226V21.0373C56.6045 21.8683 56.3224 22.567 55.7582 23.1335C55.1941 23.7 54.4983 23.9833 53.6708 23.9833C52.8434 23.9833 52.1664 23.7 51.5834 23.1335C51.0192 22.567 50.7371 21.8683 50.7371 21.0373V12.8226C50.7371 12.105 50.5115 11.5007 50.0601 11.0663C49.6088 10.6131 49.0258 10.3865 48.3112 10.3865C46.6751 10.3865 45.8477 11.1985 45.8477 12.8226V21.0373C45.8477 23.2846 46.5811 25.1542 48.0667 26.646C49.5524 28.1379 51.4141 28.8744 53.652 28.8744C55.6078 28.8933 57.5824 28.2701 59.0492 27.0426Z" fill="#FCF6EB"/>
    <path d="M93.069 19.6965V5.45758C93.069 4.72109 92.8433 4.13567 92.3732 3.70133C91.903 3.26698 91.3201 3.02148 90.6054 3.02148C89.8908 3.02148 89.3267 3.2481 88.8753 3.72021C88.424 4.19232 88.1795 4.75886 88.1795 5.45758V19.6965C88.1795 20.9051 87.747 21.9438 86.9007 22.7747C86.0545 23.6245 85.0202 24.0399 83.7978 24.0399C82.5754 24.0399 81.5599 23.6245 80.7137 22.7747C79.8674 21.9249 79.4537 20.9051 79.4537 19.6965C79.4537 18.4879 79.8674 17.4492 80.7137 16.5994C81.5599 15.7308 82.5754 15.3153 83.7978 15.3153C84.5312 15.3153 85.1142 15.0887 85.5655 14.6355C86.0169 14.1822 86.2613 13.5968 86.2613 12.8792C86.2613 12.1616 86.0357 11.5573 85.5655 11.104C85.1142 10.6508 84.5124 10.4053 83.7978 10.4053C81.165 10.4053 78.9835 11.2929 77.2158 13.068C75.4481 14.8432 74.583 17.0527 74.583 19.6965C74.583 22.3403 75.4669 24.512 77.2346 26.2872C79.0023 28.0623 81.2026 28.9499 83.7978 28.9499C86.393 28.9499 88.5932 28.0623 90.3798 26.2872C92.1663 24.512 93.0502 22.3214 93.069 19.6965Z" fill="#FCF6EB"/>
    <path d="M111.009 29.1009V12.898C111.009 12.1804 110.784 11.5761 110.332 11.1418C109.881 10.6885 109.298 10.4619 108.583 10.4619C107.869 10.4619 107.267 10.6885 106.816 11.1418C106.364 11.595 106.12 12.1804 106.12 12.898V21.1128C106.12 21.9437 105.838 22.6424 105.292 23.209C104.728 23.7755 104.051 24.0588 103.224 24.0588C102.396 24.0588 101.719 23.7755 101.136 23.209C100.572 22.6424 100.29 21.9437 100.29 21.1128V12.898C100.29 11.2739 99.4627 10.4619 97.8266 10.4619C97.112 10.4619 96.5102 10.6885 96.0776 11.1418C95.6263 11.595 95.4006 12.1804 95.4006 12.898V21.1128C95.4006 23.36 96.1341 25.2296 97.6197 26.7215C99.1054 28.2133 100.967 28.9498 103.205 28.9498C104.22 28.9498 105.18 28.761 106.101 28.4022V29.1009C106.101 29.8941 105.819 30.5928 105.236 31.1782C104.653 31.7636 103.976 32.0469 103.167 32.0469H97.8454C97.1308 32.0469 96.529 32.2735 96.0776 32.7456C95.6263 33.1989 95.3818 33.8032 95.3818 34.5208C95.3818 35.2384 95.6075 35.8427 96.0776 36.277C96.529 36.7303 97.1308 36.9569 97.8454 36.9569H103.167C105.386 36.9569 107.248 36.2015 108.734 34.7096C110.257 33.1989 111.009 31.3293 111.009 29.1009Z" fill="#FCF6EB"/>
    <path d="M40.8644 13.1248C39.0967 11.3496 36.8964 10.481 34.2636 10.481C31.6308 10.481 29.4494 11.3685 27.6816 13.1248C25.9139 14.881 25.0488 17.0905 25.0488 19.7344C25.0488 22.3782 25.9327 24.5877 27.6816 26.3628C29.4306 28.138 31.6308 29.0255 34.2636 29.0255C36.8964 29.0255 39.0967 28.138 40.8644 26.3628C42.6321 24.5877 43.516 22.3782 43.516 19.7344C43.516 17.0905 42.6509 14.881 40.8644 13.1248ZM37.3665 22.8314C36.5015 23.7001 35.486 24.1156 34.2824 24.1156C33.0789 24.1156 32.0445 23.6812 31.1983 22.8314C30.352 21.9627 29.9383 20.943 29.9383 19.7344C29.9383 18.5258 30.352 17.4871 31.1983 16.6562C32.0445 15.8064 33.06 15.3909 34.2824 15.3909C35.5048 15.3909 36.5203 15.8064 37.3665 16.6562C38.2316 17.506 38.6453 18.5258 38.6453 19.7344C38.6453 20.943 38.2128 21.9816 37.3665 22.8314Z" fill="#FCF6EB"/>
    <path d="M29.9197 34.5208C29.9197 33.7843 29.694 33.1989 29.2239 32.7457C28.7538 32.2925 28.1708 32.047 27.4562 32.047H27.2493C25.444 32.047 24.4473 32.1414 23.5446 31.1972C22.9804 30.6117 22.6983 29.9319 22.6983 29.101V5.45758C22.6983 4.72109 22.4727 4.13567 22.0025 3.70133C21.5324 3.26698 20.9494 3.02148 20.2348 3.02148C19.5202 3.02148 18.9184 3.2481 18.4859 3.70133C18.0345 4.15455 17.8089 4.73997 17.8089 5.45758V13.4268H7.89826V5.45758C7.89826 4.72109 7.6726 4.13567 7.20245 3.70133C6.73231 3.26698 6.14934 3.02148 5.43472 3.02148C4.72011 3.02148 4.11832 3.2481 3.68579 3.70133C3.23446 4.13567 3.00879 4.72109 3.00879 5.45758V26.5327C3.00879 27.2692 3.23446 27.8546 3.68579 28.2889C4.13713 28.7422 4.72011 28.9688 5.43472 28.9688C6.14934 28.9688 6.75112 28.7422 7.20245 28.2889C7.65379 27.8357 7.89826 27.2503 7.89826 26.5327V18.3179H17.8089V29.101C17.8089 31.3293 18.5611 33.1989 20.0467 34.6908C22.3034 36.9569 24.5413 36.938 27.2493 36.938H27.4562C28.1896 36.938 28.7726 36.7114 29.2239 36.2582C29.694 35.8427 29.9197 35.2573 29.9197 34.5208Z" fill="#FCF6EB"/>
  </g>
  <defs>
    <clipPath id="clip0_17_1188">
      <rect width="113.983" height="43" fill="white"/>
    </clipPath>
  </defs>
</svg>
