<svg xmlns="http://www.w3.org/2000/svg" width="178" height="48" fill="none">
  <path fill="#F15B4E" d="M56.489 15.572c1.197.688 2.895-.025 3.804-1.596.908-1.57.67-3.405-.527-4.093-1.197-.687-2.895.026-3.804 1.597-.908 1.57-.67 3.404.527 4.092ZM89.373 15.572c1.197.688 2.895-.025 3.803-1.596.909-1.57.671-3.405-.526-4.093-1.197-.687-2.895.026-3.804 1.597-.908 1.57-.67 3.404.527 4.092Z"/>
  <path fill="#F15B4E" d="M171.358 25.387c-.043-.025-.094-.017-.145 0l-1.901.442c.373-.951.738-2.02.356-2.972-.093-.23-.322-.475-.552-.373-.11.05-.17.16-.229.263-.526.934-1.291 1.706-2.072 2.445-1.63 1.537-2.131 2.097-4.126 3.142-1.214.636-3.829 1.749-5.052.628-.552-.51-.391-1.537-.238-2.182v-.034c.747.441 1.571.357 2.352.06 2.123-.816 3.931-2.811 4.984-4.78.781-1.461 1.265-3.643-.051-4.951-.314-.314-.806-.492-1.46-.543-.934-.051-1.868.144-2.811.56-2.105.951-3.999 2.573-5.434 4.526-1.171 1.197-2.352 2.394-3.617 3.498-.823.713-1.723 1.596-2.7 2.088-.254.12-.356.043-.297-.229.06-.272.178-.594.365-.985 1.698-3.498 4.662-8.1 6.801-11.564 3.855.144 7.226.357 7.481.297 1.027-.238.764-2.462.407-3.124-.272-.51-1.129-.552-1.622-.586-.314-.017-2.292-.077-4.78-.077.433-1.477.263-2.037.212-2.487-.034-.204-.152-.45-.348-.74a4.252 4.252 0 0 0-.679-.78c-.255-.23-.501-.39-.739-.467-.237-.077-.424-.017-.543.187-.951 1.52-1.919 3.022-3.065 4.398-2.768.118-5.281.365-6.258.849-.84.416-1.341.96-1.596 1.834-.068.229-.348 1.222.204 1.002.908-.348 3.303-.45 6.079-.433-1.418 2.148-2.785 4.33-4.152 6.512-1.978 1.944-3.804 4.024-6.062 5.697-.442.331-.883.637-1.036.705-.314.136-.357-.085-.212-.527.84-2.53 2.827-4.822 4.423-6.911 1.52-1.995-2.173-2.989-2.53-2.776-1.121.679-2.072 1.426-2.844 2.241v-.068c-.612-3.634-4.263-2.496-5.035-2.19-2.267.883-4.127 2.64-5.519 4.695-1.885 1.927-3.787 3.846-6.011 5.375-.306.212-.833.577-.739.034.212-1.232.993-2.454 1.579-3.533.696-1.265 1.469-2.496 2.352-3.642.628-1.07-.051-2.233-1.07-2.743-1.138-.568-2.139.272-2.87 1.096-1.29 1.452-3.608 5.493-6.172 8.6-.476.578-.968 1.317-1.673 1.622-.127.06-.221.043-.221-.118 0-1.232 2.208-5.392 3.541-7.387.339-.51 1.307-1.563 1.053-2.437-.289-.977-1.546-1.8-2.564-1.58-.603.128-1.631 1.232-2.726 2.837-1.324 1.12-2.403 2.53-3.642 3.735a34.675 34.675 0 0 1-4.305 3.566h-.034c1.172-2.037 2.275-4.109 3.481-6.121.594-.994 1.503-2.08 1.129-3.32-.348-1.155-1.435-1.664-2.581-1.384-.628.153-1.214.577-1.757 1.282l-.739 1.12c-.238-.84-.628-1.409-1.189-1.697-2.802-1.452-5.858.738-7.947 3.048-1.078.96-2.02 2.114-3.04 3.124-1.205 1.198-2.462 2.344-3.82 3.354-.221.161-.425.314-.612.442a5.094 5.094 0 0 1-.424.263c-.255.119-.349.042-.28-.23.067-.271.195-.594.382-.984a28.136 28.136 0 0 1 3.226-5.146c.255-.33.535-.687.84-1.086.986-1.673-1.485-2.947-2.827-3.057-.577-.043-.985.068-1.248.348-1.189 1.29-2.242 2.785-3.125 4.381-1.918 1.962-3.854 3.872-6.079 5.502a4.183 4.183 0 0 1-.407.263c-.255.12-.365.043-.314-.229.05-.272.152-.594.314-.985a29.037 29.037 0 0 1 1.995-3.897c.382-.62.773-1.24 1.214-1.826.365-.483.747-.993.637-1.647-.144-.849-1.13-1.808-2.02-1.808-.026 0-.035 0-.035-.017s-.008-.017-.034-.017c-1.46-.136-2.836.569-3.923 1.494-1.655 1.401-2.895 3.286-4.143 5.035.306-.433.476-1.13.68-1.622.237-.568.509-1.129.738-1.706.195-.501.34-1.044.272-1.58-.145-1.154-1.308-1.723-2.37-1.63-1.35.12-2.58.909-3.548 1.809-1.028.96-1.91 2.063-2.7 3.226 1.639-3.888 2.428-4.033 2.071-4.746-.22-.424-.798-.552-1.35-.637-.866-.144-2.114.145-2.564.985-.492.909-.993 1.877-1.511 2.896-.951.9-1.8 1.927-2.717 2.844-1.206 1.197-2.462 2.343-3.82 3.354-.222.16-.425.314-.612.441a5.094 5.094 0 0 1-.425.263c-.254.12-.348.043-.28-.229.068-.272.195-.594.382-.985a28.13 28.13 0 0 1 3.227-5.145c.254-.331.535-.688.84-1.087.985-1.673-1.486-2.946-2.827-3.057-.578-.042-.985.068-1.248.349-2.573 2.802-4.551 6.52-5.392 10.23-.322 1.419-.5 3.253.637 4.373.993.977 2.742.799 3.855.153a8.792 8.792 0 0 0 1.86-1.435c1.027-1.027 1.944-2.207 2.895-3.311.33-.382.653-.764.976-1.155a140.372 140.372 0 0 0-1.605 3.923c-.187.467-.195.908-.017 1.316.178.408.442.722.807.934.365.212.78.28 1.265.212.484-.068.934-.373 1.35-.908v-.034c.934-.985 1.622-2.165 2.369-3.295.79-1.197 1.579-2.402 2.386-3.583a20.52 20.52 0 0 1 1.876-2.351 87.582 87.582 0 0 0-1.477 3.948c-.442 1.299-.764 2.547-.951 3.735-.026.4.085.79.314 1.172.238.382.535.696.908.934.374.238.773.348 1.198.331.424-.008.798-.212 1.12-.611.994-.9 1.716-2.165 2.454-3.277.773-1.164 1.52-2.335 2.284-3.499A22.374 22.374 0 0 1 73.7 22.4c-.28.56-.57 1.154-.858 1.774-.297.62-.56 1.24-.807 1.86-.373.942-.679 1.978-.721 2.997-.068 1.647.662 3.2 2.462 3.303.764.042 1.511-.153 2.182-.501 1.469-.764 2.564-2.114 3.583-3.388.543-.68 1.12-1.341 1.69-1.995-.077.28-.162.56-.221.849-.323 1.418-.5 3.252.637 4.372.993.977 2.742.798 3.855.153a8.788 8.788 0 0 0 1.859-1.435c1.027-1.027 1.944-2.207 2.895-3.311.11-.127.221-.263.34-.4a8.388 8.388 0 0 0-.144 1.13c-.068 1.24.135 2.65 1.06 3.558.833.815 2.098.968 3.134.467a5.912 5.912 0 0 0 1.214-.79c.263-.22.535-.475.798-.739-.187.374-.373.74-.552 1.113a33.146 33.146 0 0 0-1.426 3.71 32.132 32.132 0 0 0-3.116.493c-.713.152-2.131.458-1.86 1.485.043.153.11.298.196.425 1.112 2.046 1.24 1.825 2.19 1.673.204-.11.807-.221 1.605-.331-.569 3.022-.628 6.902 2.318 8.482 1.138.61 2.81.993 3.591.195.315-.323.383-.815.085-1.29-1.418-2.302-1.443-5.24-.934-7.855 1.452-.084 2.675-.118 3.083-.059.917-.05 2.547-.849 2.3-2.004-.22-1.036-1.536-1.316-2.419-1.426a15.589 15.589 0 0 0-1.987-.102c.399-1.172.857-2.326 1.367-3.456.187-.119.373-.22.569-.305.874-.374 1.706-.73 2.513-1.24a25.898 25.898 0 0 0 3.524-2.7c.229-.212.45-.425.679-.645-1.231 3.49-.527 5.91 1.817 6.002 1.902.068 3.532-1.299 4.67-2.649.424-.5.815-1.001 1.197-1.494.204-.263.416-.518.611-.79-.187.527-.993 2.004-1.002 2.157-.076 1.265.713 2.844 2.454 2.785 2.114-.068 4.568-2.505 6.844-5.332a7.78 7.78 0 0 0-.094 1.537c.161 3.073 2.666 4.771 5.578 2.241.782-.679 1.478-1.494 2.081-2.335.484-.67.942-1.324 1.384-1.986-.416 1.63-.909 4.05.653 5.255 1.045.807 2.565.62 3.651 0 1.249-.721 3.065-2.649 4.662-4.525-.382 1.486-.484 3.2.679 4.27 1.112 1.02 2.98.977 4.237.255 1.205-.696 2.072-1.664 2.972-2.708.543-.629 1.095-1.257 1.638-1.877-.28 1.546.128 3.21 1.376 4.237 1.477 1.214 4.228 1.24 6.011.985 4.033-.586 6.86-2.318 10.027-4.857.442-.373.867-.772 1.206-1.24.17-.228.433-.543.374-.823v-.025c-.009-.043-.034-.094-.077-.11l.026-.052Zm-74.862 1.52c-.492.408-1.12 1.104-1.809 1.104-.16 0-.16-.212.017-.645.57-1.418 1.444-2.777 2.318-4.025.9-1.282 1.945-2.488 3.159-3.49.263-.22.569-.433.891-.551.408-.153.909-.102 1.215.237.696.79-.773 2.225-1.24 2.794a35.328 35.328 0 0 1-2.7 2.929 34.307 34.307 0 0 1-1.851 1.656v-.009Zm40.229-6.334-.705 1.019a60.276 60.276 0 0 1-2.14 2.42 42.36 42.36 0 0 1-2.055 2.055 18.859 18.859 0 0 1-1.698 1.418c-.492.348-.84.526-1.053.526-.161 0-.161-.212.017-.645.179-.433.459-.977.841-1.63.391-.654.841-1.359 1.367-2.123a23.682 23.682 0 0 1 1.647-2.123c.578-.654 1.121-1.197 1.647-1.63.527-.433.977-.645 1.35-.645.349.025.612.152.79.382.178.237.17.56-.017.985l.009-.009Zm24.13.314c.221-.212 1.774-1.749 2.131-1.4l.068.067c.025.026.025.068.017.136a3.108 3.108 0 0 1-.102.314c-.807 1.953-2.581 4.747-4.789 5.298-.186.051-.305.034-.348-.034.637-1.664 1.749-3.175 3.031-4.39l-.008.01Z"/>
  <path fill="#1C4D63" d="M177.124 20.955c-.077-.713-.357-1.324-.713-1.672.39-.816.399-1.597-.051-1.979-.476-.407-1.342-.22-2.132.382-.339-.263-.823-.475-1.375-.569-1.155-.195-2.182.179-2.292.841-.111.662.73 1.359 1.884 1.554.136.025.264.034.399.042-.246.697-.195 1.325.187 1.656.391.331 1.028.272 1.673-.085 0 .034 0 .068.008.102.136 1.163.782 2.046 1.444 1.97.662-.077 1.095-1.079.959-2.242h.009Z"/>
  <path fill="#F15B4E" d="M45.094 28.809c.314-2.386 1.75-6.962 1.75-6.962 2.283-6.436 5.84-11.65 6.427-12.558.551-.857-.094-1.825-1.036-2.046-.968-.23-2.352.187-3.065.577-1.962 1.062-3.354 2.386-5.766 5.018-.704.773-2.768 3.329-4.72 5.842-1.597 2.046-3.133 4.05-3.83 5.026 1.333-2.48 4.314-7.081 6.835-11.072.994-1.562 1.91-3.03 2.632-4.245.425-.68.951-1.562 1.147-1.893.263-.433.322-.79.34-1.29.042-1.088-.952-1.792-1.945-1.869-1.265-.093-2.369.323-3.405 1.01a16.242 16.242 0 0 0-2.462 2.047c-2.488 2.318-11.242 11.556-11.48 12.099a215.006 215.006 0 0 1 3.703-7.828 153.084 153.084 0 0 1 2.216-4.254c0-.009.017-.026.025-.034l1.622-3.014c.237-.467.424-.968.407-1.495C34.455.705 33.36.018 32.3 0c-1.359-.017-2.658.637-3.71 1.435 0 0-.018.009-.018.017-.73.51-1.477 1.036-2.275 1.596C14.129 11.531 6.292 13.798.9 12.456c-.373-.093-.636 0-.823.246-.425.552 1.01 1.681 1.885 2.055a44.586 44.586 0 0 0 3.022 1.146C2.955 17.601 2.004 17.576 2.548 18c.407.315 3.226.433 4.822.085 4.263-.917 7.353-2.844 10.673-4.941 1.825-1.146 8.89-6.835 8.89-6.835-1.104 1.868-2.183 3.693-3.244 5.46-3.175 5.263-6.198 10.664-8.507 16.37-.162.347-.17.78-.017 1.281.33 1.104.993 2.097 1.783 2.921 2.275 2.377 3.464 1.775 4.449-.934a292.91 292.91 0 0 1 2.072-5.62l3.107-3.618c3.354-3.888 6.928-7.726 10.724-11.233-.866 1.265-1.74 2.53-2.615 3.804-.425.62-5.129 8.533-6.063 12.21-.068.305.06.738.382 1.299.323.56.714 1.112 1.172 1.647a8.01 8.01 0 0 0 1.401 1.316s.008 0 .017.008c.492.34 1.172.17 1.477-.348a108.878 108.878 0 0 1 5.392-8.295c.747-1.036 6.173-7.964 6.623-8.49.034-.043.068-.077.102-.12-.985 1.614-5.324 11.633-5.715 18.009-.161 2.556.255 5.57 2.131 7.472 1.282 1.29 3.1 1.919 4.696.79.45-.323.976-.934.569-1.478-2.09-2.776-2.208-6.64-1.775-9.96v.009Zm.102-14.85v.008s0-.008.009-.008h-.009Z"/>
</svg>