<?xml version="1.0" encoding="UTF-8"?>
<svg id="Layer_1" data-name="Layer 1" xmlns="http://www.w3.org/2000/svg" viewBox="0 0 1960.66 255.79" width="1960.66" height="255.79">
  <defs>
    <style>
      .cls-1 {
        fill: #0046e0;
      }
    </style>
  </defs>
  <g>
    <path class="cls-1" d="m473.21,51.47h42.86v19.78c5.93-7.03,13.29-12.58,22.09-16.65,8.79-4.06,18.68-6.1,29.67-6.1,12.74,0,24.72,2.8,35.93,8.41,11.21,5.6,20.16,13.74,26.87,24.4,6.7,10.66,10.05,23.02,10.05,37.09v107.8h-42.86v-96.59c0-8.35-1.7-15.66-5.11-21.92-3.41-6.26-8.08-11.04-14.01-14.34-5.93-3.3-12.42-4.95-19.45-4.95-8.57,0-16.1,2.09-22.58,6.26-6.48,4.18-11.54,9.89-15.16,17.14-3.63,7.25-5.44,15.38-5.44,24.39v90h-42.86V51.47Z"/>
    <path class="cls-1" d="m756.78,228.82c-16.48,0-31.65-4.06-45.49-12.2-13.85-8.13-24.72-19.12-32.64-32.96-7.91-13.85-11.87-28.79-11.87-44.83s4.07-31.65,12.2-45.49c8.13-13.84,19.12-24.78,32.96-32.8,13.85-8.02,28.79-12.03,44.83-12.03,14.28,0,27.63,3.19,40.05,9.56,12.41,6.38,22.85,15.17,31.32,26.37,8.46,11.21,14.01,23.63,16.65,37.25,2.42,11.65,2.52,22.64.33,32.96h-135.82c1.54,7.69,4.56,14.29,9.07,19.78,4.5,5.5,10.11,9.62,16.81,12.36,6.7,2.75,13.9,4.12,21.59,4.12,8.35,0,16.53-1.59,24.56-4.78,8.02-3.18,14.78-7.63,20.27-13.35l37.58,10.22c-7.04,13.85-18.35,24.95-33.95,33.29-15.61,8.36-31.76,12.53-48.46,12.53Zm46.48-106.81c-1.54-6.37-4.45-12.31-8.74-17.8-4.29-5.49-9.67-9.83-16.15-13.02-6.48-3.18-13.79-4.78-21.92-4.78s-15.49,1.6-22.09,4.78c-6.59,3.19-12.03,7.53-16.32,13.02-4.29,5.5-7.2,11.43-8.74,17.8h93.95Z"/>
    <path class="cls-1" d="m956.88,228.82c-16.27,0-31.27-4.12-45-12.36-13.74-8.24-24.62-19.28-32.64-33.13-8.03-13.85-12.03-28.79-12.03-44.83s4.01-31.26,12.03-45c8.02-13.73,18.9-24.67,32.64-32.8,13.73-8.13,28.73-12.2,45-12.2s31.26,4.07,45,12.2c13.73,8.13,24.67,19.12,32.8,32.96,8.13,13.85,12.2,28.79,12.2,44.83s-4.07,31.32-12.2,45.16c-8.13,13.85-19.07,24.84-32.8,32.96-13.74,8.13-28.74,12.2-45,12.2Zm0-39.23c9.23,0,17.63-2.31,25.22-6.92,7.58-4.62,13.62-10.82,18.13-18.62,4.5-7.8,6.76-16.32,6.76-25.55s-2.26-17.75-6.76-25.55c-4.51-7.8-10.55-14.01-18.13-18.63-7.58-4.62-15.99-6.92-25.22-6.92s-17.64,2.37-25.22,7.09c-7.58,4.73-13.57,10.94-17.96,18.63-4.4,7.69-6.59,16.15-6.59,25.38s2.19,17.75,6.59,25.55c4.39,7.8,10.44,14.01,18.13,18.62,7.69,4.62,16.04,6.92,25.06,6.92Z"/>
    <path class="cls-1" d="m1157.31,228.82c-16.48,0-31.65-4.06-45.49-12.2-13.84-8.13-24.72-19.12-32.64-32.96-7.91-13.85-11.87-28.79-11.87-44.83s4.07-31.65,12.2-45.49c8.13-13.84,19.12-24.78,32.96-32.8,13.85-8.02,28.79-12.03,44.83-12.03,18.68,0,35.44,5.22,50.27,15.66,14.84,10.44,25.55,24.23,32.14,41.37l-39.23,10.88c-3.74-8.79-9.45-15.88-17.14-21.26-7.7-5.38-16.38-8.08-26.05-8.08s-17.63,2.37-25.22,7.09c-7.58,4.73-13.57,11.04-17.97,18.96-4.4,7.91-6.59,16.48-6.59,25.71s2.2,17.8,6.59,25.72c4.39,7.91,10.39,14.17,17.97,18.79s15.99,6.92,25.22,6.92c9.89,0,18.63-2.69,26.21-8.08,7.58-5.38,13.24-12.36,16.98-20.93l39.23,10.88c-6.59,16.93-17.25,30.61-31.98,41.04-14.72,10.44-31.54,15.66-50.44,15.66Z"/>
    <path class="cls-1" d="m1347.48,228.82c-16.27,0-31.27-4.12-45-12.36-13.74-8.24-24.62-19.28-32.64-33.13-8.03-13.85-12.03-28.79-12.03-44.83s4.01-31.26,12.03-45c8.02-13.73,18.9-24.67,32.64-32.8,13.73-8.13,28.73-12.2,45-12.2s31.26,4.07,45,12.2c13.73,8.13,24.67,19.12,32.8,32.96,8.13,13.85,12.2,28.79,12.2,44.83s-4.07,31.32-12.2,45.16c-8.13,13.85-19.07,24.84-32.8,32.96-13.74,8.13-28.74,12.2-45,12.2Zm0-39.23c9.23,0,17.63-2.31,25.22-6.92,7.58-4.62,13.62-10.82,18.13-18.62,4.5-7.8,6.76-16.32,6.76-25.55s-2.26-17.75-6.76-25.55c-4.51-7.8-10.55-14.01-18.13-18.63-7.58-4.62-15.99-6.92-25.22-6.92s-17.64,2.37-25.22,7.09c-7.58,4.73-13.57,10.94-17.96,18.63-4.4,7.69-6.59,16.15-6.59,25.38s2.19,17.75,6.59,25.55c4.39,7.8,10.44,14.01,18.13,18.62,7.69,4.62,16.04,6.92,25.06,6.92Z"/>
    <path class="cls-1" d="m1525,228.82c-16.93,0-32.09-4.23-45.49-12.69-13.41-8.46-20.11-22.47-20.11-42.03,0-12.31,2.8-22.47,8.41-30.49,5.6-8.02,13.73-13.95,24.4-17.8,10.66-3.84,23.24-5.77,37.75-5.77h51.42v-9.56c0-8.79-3.52-15.27-10.55-19.45-7.04-4.17-16.27-6.26-27.69-6.26-9.67,0-17.96,1.6-24.89,4.78-6.92,3.19-11.49,8.63-13.68,16.32l-40.88.33c.22-11.65,3.85-21.81,10.88-30.49,7.03-8.68,16.48-15.38,28.35-20.11,11.87-4.72,24.94-7.09,39.23-7.09s27.2,2.37,39.39,7.09c12.2,4.73,21.97,11.37,29.34,19.95,7.36,8.57,11.04,18.57,11.04,30v120.65h-40.55v-21.76c-4.61,6.15-11.87,11.76-21.76,16.81-9.89,5.05-21.43,7.58-34.61,7.58Zm3.63-34.94c8.57,0,16.92-1.98,25.05-5.93,8.13-3.96,14.78-9.23,19.95-15.82,5.16-6.59,7.74-13.84,7.74-21.76h-43.51c-8.35,0-15.28,1.1-20.77,3.3-5.5,2.2-9.51,5.16-12.03,8.9-2.53,3.74-3.46,8.02-2.8,12.85.66,6.59,3.52,11.32,8.57,14.18,5.05,2.86,10.99,4.29,17.8,4.29Z"/>
    <path class="cls-1" d="m1728.13,228.82c-11.87,0-23.74-1.71-35.61-5.11-11.87-3.4-23.85-8.62-35.93-15.66v-43.19c8.57,6.59,19.5,12.69,32.8,18.3,13.29,5.6,26.21,8.41,38.73,8.41,5.27,0,10-.6,14.17-1.81,4.17-1.2,7.53-2.97,10.06-5.27,2.52-2.31,3.79-5.22,3.79-8.74,0-5.27-3.25-9.5-9.73-12.69-6.48-3.19-17.42-6.43-32.8-9.73-21.1-4.39-36.59-10.6-46.48-18.63-9.89-8.02-14.84-18.95-14.84-32.8,0-10.99,3.13-20.55,9.4-28.68,6.26-8.13,14.84-14.28,25.72-18.46,10.88-4.17,23.12-6.26,36.76-6.26,12.74,0,24.5,1.76,35.27,5.27,10.76,3.52,21.43,8.13,31.98,13.85v38.57c-12.75-7.69-24.89-13.13-36.43-16.32-11.54-3.18-21.81-4.78-30.82-4.78-5.72,0-10.66.72-14.84,2.14-4.18,1.43-7.42,3.41-9.73,5.93-2.31,2.53-3.46,5.33-3.46,8.41,0,4.4,2.25,7.8,6.76,10.22,4.5,2.42,11.92,4.62,22.25,6.59,2.85.88,5.77,1.59,8.73,2.14,2.97.55,6.1,1.26,9.4,2.14,19.78,5.06,34.12,11.98,43.02,20.77,8.9,8.79,13.35,19.78,13.35,32.96,0,18.03-7.09,31.27-21.26,39.72-14.17,8.46-30.93,12.69-50.27,12.69Z"/>
    <path class="cls-1" d="m1940.33,224.87c-18.02,5.05-34.34,6.26-48.95,3.63-14.62-2.64-26.16-9.01-34.62-19.12-8.46-10.11-12.69-23.62-12.69-40.55l.33-80.44h-31.65v-36.92h31.65v-31.14h42.2v31.14h51.75v36.92h-51.75l-.33,80.11c0,5.72,2.03,10.5,6.1,14.34,4.06,3.85,10.16,5.99,18.29,6.43,8.13.44,18.02-1.53,29.67-5.93v41.54Z"/>
  </g>
  <g>
    <path class="cls-1" d="m258.55,57.81c-32.57-37.61-105.16-35.93-131.52,4.87L20.51,230.54c-.46.71.03,1.65.87,1.69l61.31-.02c17.39-.39,32.36-7.36,41.38-21.32l69.15-107.06c25.51-39.5,48.8-39.31,65.85-30.89h0c3.76-3.76,4-9.76.53-13.79"/>
    <path class="cls-1" d="m172.54,208.44c32.57,37.61,105.16,35.93,131.52-4.87l106.53-167.85c.46-.71-.03-1.65-.87-1.69l-61.31.02c-17.39.39-32.36,7.36-41.38,21.32l-69.15,107.06c-25.51,39.5-48.8,39.31-65.85,30.89h0c-3.76,3.76-4,9.76-.53,13.79"/>
  </g>
</svg>