<?xml version="1.0" encoding="utf-8"?>
<!-- Generator: Adobe Illustrator 23.0.3, SVG Export Plug-In . SVG Version: 6.00 Build 0)  -->
<svg version="1.1" id="Layer_1" xmlns="http://www.w3.org/2000/svg" xmlns:xlink="http://www.w3.org/1999/xlink" x="0px" y="0px"
	 viewBox="0 0 117 32" style="enable-background:new 0 0 117 32;" xml:space="preserve" width="100">
<path d="M40.8,17.2l-6.6,6.2V8.6h-5.6v19.1H37l3.8-3.6v3.6h5.6V8.6h-5.6V17.2z"/>
<path d="M76.7,8.6h-5.6v19.1h5.6V8.6z"/>
<path d="M73.9,0c-1.7,0-3.2,1.4-3.2,3.1c0,1.7,1.4,3.1,3.2,3.1c1.7,0,3.2-1.4,3.2-3.1C77.2,1.4,75.7,0,73.9,0z"/>
<path d="M87.2,17.4l11.7-8.8h-8.2l-6,4.5V1.3h-5.6v26.4h5.6v-9.1l6.9,9.1h6.9l-8-10.3H87.2z"/>
<path d="M111,8.6V10c-1.4-1.2-3.3-1.9-5.4-1.9c-5.5,0-9.8,4.5-9.8,10s4.3,10,9.8,10c2.2,0,4-0.7,5.4-1.9v1.5h5.3V8.6H111z
	 M105.9,22.9c-2.7,0-4.9-2.2-4.9-4.8s2.2-4.8,4.9-4.8c2.7,0,4.9,2.2,4.9,4.8S108.6,22.9,105.9,22.9z"/>
<path d="M59.6,8.1c-2.1,0-4,0.7-5.4,1.9V1.3h-5.4v26.4h5.4v-1.5c1.4,1.2,3.2,1.8,5.4,1.8c5.5,0,9.8-4.5,9.8-10
	C69.4,12.6,65.1,8.1,59.6,8.1L59.6,8.1z M59.3,22.9c-2.7,0-4.9-2.2-4.9-4.8s2.2-4.8,4.9-4.8c2.7,0,4.9,2.2,4.9,4.8
	S62,22.9,59.3,22.9z"/>
<path d="M17.9,27.3c5.2-1.8,9-6.8,9-12.7c0-7.4-6-13.4-13.4-13.4C6,1.2,0,7.2,0,14.7c0,7.4,6,13.4,13.4,13.4c0.4,0,0.7,0,1.1,0
	l2.8,4H27l-3.3-4.7L17.9,27.3L17.9,27.3z M5.6,14.7c0-4.3,3.5-7.8,7.8-7.8c4.3,0,7.8,3.5,7.8,7.8c0,4.3-3.5,7.8-7.8,7.8
	C9.1,22.5,5.6,19,5.6,14.7z"/>
</svg>
