<svg xml:space="preserve" viewBox="436.32000000000005 511.91999999999996 207.36 54" version="1.1" xmlns:xlink="http://www.w3.org/1999/xlink" xmlns="http://www.w3.org/2000/svg" style="max-height: 500px" width="207.36" height="54">
<desc>Created with Fabric.js 5.2.4</desc>
<defs>
</defs>
<g id="91e807b0-cadf-44a9-b0dc-edab56b107d4" transform="matrix(1 0 0 1 540 540)">
<rect height="1080" width="1080" ry="0" rx="0" y="-540" x="-540" style="stroke: none; stroke-width: 1; stroke-dasharray: none; stroke-linecap: butt; stroke-dashoffset: 0; stroke-linejoin: miter; stroke-miterlimit: 4; fill: rgb(91,48,48); fill-opacity: 0; fill-rule: nonzero; opacity: 1;"/>
</g>
<g id="51fcdd40-1c6c-41c0-8705-ed657bdb2b99" transform="matrix(1 0 0 1 540 540)">
</g>
<g transform="matrix(1.64 0 0 1.64 540 540)">
<g style="">
		<g transform="matrix(1 0 0 1 -50.07 -0.01)">
<path stroke-linecap="round" d="M 0 0.439667 L 3.62809 0.439667 L 5.11587 13.3309 L 6.96907 0.465711 L 9.86632 0.465711 L 11.7978 13.2788 L 13.2856 0.439667 L 16.8615 0.439667 L 14.1469 21.5344 L 10.4667 21.5344 L 8.43075 8.1744 L 6.47314 21.5344 L 2.74065 21.5344 L 0 0.439667 Z" transform="translate(-8.43, -10.99)" style="stroke: none; stroke-width: 1; stroke-dasharray: none; stroke-linecap: butt; stroke-dashoffset: 0; stroke-linejoin: miter; stroke-miterlimit: 4; fill: rgb(0,0,0); fill-rule: nonzero; opacity: 1;"/>
</g>
		<g transform="matrix(1 0 0 1 -35.25 -0.01)">
<path stroke-linecap="round" d="M 21.197 13.1746 L 17.073 0.439667 L 21.1187 0.439667 L 23.3895 7.86188 L 25.4776 0.439667 L 29.4189 0.439667 L 25.3471 13.1746 L 25.3471 21.5344 L 21.197 21.5344 L 21.197 13.1746 Z" transform="translate(-23.25, -10.99)" style="stroke: none; stroke-width: 1; stroke-dasharray: none; stroke-linecap: butt; stroke-dashoffset: 0; stroke-linejoin: miter; stroke-miterlimit: 4; fill: rgb(0,0,0); fill-rule: nonzero; opacity: 1;"/>
</g>
		<g transform="matrix(1 0 0 1 -23.4 -0.01)">
<path stroke-linecap="round" d="M 30.4685 0.439667 L 39.6823 0.439667 L 39.6823 3.40855 L 34.7491 3.40855 L 34.7491 9.00777 L 38.5599 9.00777 L 38.5599 12.0027 L 34.7491 12.0027 L 34.7491 18.6176 L 39.7345 18.6176 L 39.7345 21.5344 L 30.4685 21.5344 L 30.4685 0.439667 Z" transform="translate(-35.1, -10.99)" style="stroke: none; stroke-width: 1; stroke-dasharray: none; stroke-linecap: butt; stroke-dashoffset: 0; stroke-linejoin: miter; stroke-miterlimit: 4; fill: rgb(0,0,0); fill-rule: nonzero; opacity: 1;"/>
</g>
		<g transform="matrix(1 0 0 1 -9.65 -0.01)">
<path stroke-linecap="round" d="M 40.4149 0.439628 L 44.043 0.439628 L 45.5308 13.3308 L 47.384 0.465672 L 50.2812 0.465672 L 52.2127 13.2788 L 53.7005 0.439628 L 57.2764 0.439628 L 54.5619 21.5343 L 50.8816 21.5343 L 48.8457 8.17436 L 46.8881 21.5343 L 43.1556 21.5343 L 40.4149 0.439628 Z" transform="translate(-48.85, -10.99)" style="stroke: none; stroke-width: 1; stroke-dasharray: none; stroke-linecap: butt; stroke-dashoffset: 0; stroke-linejoin: miter; stroke-miterlimit: 4; fill: rgb(217,30,38); fill-rule: nonzero; opacity: 1;"/>
</g>
		<g transform="matrix(1 0 0 1 6.19 0)">
<path stroke-linecap="round" d="M 64.6937 21.8208 C 62.449 21.8208 60.8481 21.2392 59.891 20.0759 C 58.934 18.8953 58.4555 17.1678 58.4555 14.8934 L 58.4555 7.02847 C 58.4555 4.75406 58.934 3.04391 59.891 1.89803 C 60.8481 0.752142 62.449 0.179199 64.6937 0.179199 C 66.921 0.179199 68.5132 0.760824 69.4702 1.92407 C 70.4447 3.06996 70.9319 4.77142 70.9319 7.02847 L 70.9319 14.9195 C 70.9319 17.1765 70.4447 18.8953 69.4702 20.0759 C 68.5132 21.2392 66.921 21.8208 64.6937 21.8208 Z M 64.6937 18.7478 C 65.4245 18.7478 65.9118 18.5047 66.1554 18.0186 C 66.4164 17.5151 66.5469 16.8293 66.5469 15.9612 L 66.5469 5.98676 C 66.5469 5.11866 66.4164 4.45023 66.1554 3.98146 C 65.9118 3.49532 65.4245 3.25226 64.6937 3.25226 C 63.9629 3.25226 63.4669 3.49532 63.2059 3.98146 C 62.9623 4.45023 62.8405 5.11866 62.8405 5.98676 L 62.8405 15.9612 C 62.8405 16.8466 62.9623 17.5324 63.2059 18.0186 C 63.4495 18.5047 63.9454 18.7478 64.6937 18.7478 Z" transform="translate(-64.69, -11)" style="stroke: none; stroke-width: 1; stroke-dasharray: none; stroke-linecap: butt; stroke-dashoffset: 0; stroke-linejoin: miter; stroke-miterlimit: 4; fill: rgb(217,30,38); fill-rule: nonzero; opacity: 1;"/>
</g>
		<g transform="matrix(1 0 0 1 20.85 -0.01)">
<path stroke-linecap="round" d="M 73.0245 0.439628 L 78.5058 0.439628 C 80.7853 0.439628 82.4993 0.856314 83.6478 1.68969 C 84.7962 2.52306 85.3705 3.9641 85.3705 6.0128 C 85.3705 7.38439 85.1791 8.49555 84.7962 9.34629 C 84.4134 10.1797 83.7348 10.8134 82.7603 11.2474 L 85.6837 21.5343 L 81.2726 21.5343 L 78.8712 11.9766 L 77.3051 11.9766 L 77.3051 21.5343 L 73.0245 21.5343 L 73.0245 0.439628 Z M 78.5841 9.42441 C 79.5934 9.42441 80.2981 9.18135 80.6983 8.69522 C 81.1159 8.19172 81.3248 7.41043 81.3248 6.35136 C 81.3248 5.30964 81.142 4.54572 80.7766 4.05959 C 80.4112 3.57345 79.75 3.33039 78.7929 3.33039 L 77.3051 3.33039 L 77.3051 9.42441 L 78.5841 9.42441 Z" transform="translate(-79.35, -10.99)" style="stroke: none; stroke-width: 1; stroke-dasharray: none; stroke-linecap: butt; stroke-dashoffset: 0; stroke-linejoin: miter; stroke-miterlimit: 4; fill: rgb(217,30,38); fill-rule: nonzero; opacity: 1;"/>
</g>
		<g transform="matrix(1 0 0 1 35.26 -0.01)">
<path stroke-linecap="round" d="M 87.4588 0.439628 L 91.7394 0.439628 L 91.7394 9.34629 L 95.5763 0.439628 L 99.7525 0.439628 L 95.7851 9.91923 L 100.066 21.5343 L 95.7068 21.5343 L 92.4441 12.1068 L 91.7394 13.2527 L 91.7394 21.5343 L 87.4588 21.5343 L 87.4588 0.439628 Z" transform="translate(-93.76, -10.99)" style="stroke: none; stroke-width: 1; stroke-dasharray: none; stroke-linecap: butt; stroke-dashoffset: 0; stroke-linejoin: miter; stroke-miterlimit: 4; fill: rgb(217,30,38); fill-rule: nonzero; opacity: 1;"/>
</g>
		<g transform="matrix(1 0 0 1 47.44 0)">
<path stroke-linecap="round" d="M 106.201 21.8208 C 104.252 21.8208 102.791 21.2913 101.816 20.2322 C 100.842 19.1558 100.311 17.4977 100.224 15.258 L 103.93 14.633 C 103.965 15.9699 104.148 16.9595 104.479 17.6019 C 104.827 18.2269 105.34 18.5394 106.018 18.5394 C 106.523 18.5394 106.889 18.3832 107.115 18.0706 C 107.341 17.7408 107.454 17.3241 107.454 16.8206 C 107.454 15.9872 107.263 15.2841 106.88 14.7111 C 106.514 14.1208 105.931 13.4784 105.131 12.7839 L 102.939 10.8828 C 102.068 10.1536 101.399 9.37233 100.929 8.53896 C 100.476 7.70559 100.25 6.70728 100.25 5.54403 C 100.25 3.8252 100.755 2.50569 101.764 1.58551 C 102.791 0.647971 104.2 0.179199 105.992 0.179199 C 107.906 0.179199 109.238 0.73478 109.986 1.84594 C 110.734 2.93974 111.16 4.33738 111.265 6.03884 L 107.532 6.58574 C 107.498 5.47458 107.367 4.65857 107.141 4.13771 C 106.932 3.59949 106.506 3.33039 105.862 3.33039 C 105.392 3.33039 105.027 3.51269 104.766 3.87729 C 104.505 4.22452 104.374 4.64121 104.374 5.12734 C 104.374 5.82182 104.522 6.41212 104.818 6.89826 C 105.131 7.36703 105.618 7.88789 106.28 8.46083 L 108.42 10.3359 C 109.429 11.2214 110.221 12.1589 110.795 13.1485 C 111.369 14.1208 111.656 15.2667 111.656 16.5862 C 111.656 17.5932 111.43 18.496 110.978 19.2947 C 110.525 20.0759 109.882 20.6923 109.046 21.1437 C 108.228 21.5951 107.28 21.8208 106.201 21.8208 Z" transform="translate(-105.94, -11)" style="stroke: none; stroke-width: 1; stroke-dasharray: none; stroke-linecap: butt; stroke-dashoffset: 0; stroke-linejoin: miter; stroke-miterlimit: 4; fill: rgb(217,30,38); fill-rule: nonzero; opacity: 1;"/>
</g>
		<g transform="matrix(1 0 0 1 56.46 8.37)">
<ellipse ry="2.04022" rx="2.04481" cy="0" cx="0" style="stroke: none; stroke-width: 1; stroke-dasharray: none; stroke-linecap: butt; stroke-dashoffset: 0; stroke-linejoin: miter; stroke-miterlimit: 4; fill: rgb(0,0,0); fill-rule: nonzero; opacity: 1;"/>
</g>
</g>
</g>
</svg>