<?xml version="1.0" encoding="UTF-8"?>
<svg id="Layer_2" data-name="Layer 2" xmlns="http://www.w3.org/2000/svg" viewBox="0 0 49.58 42.14">
  <defs>
    <style>
      .cls-1 {
        fill-rule: evenodd;
      }

      .cls-1, .cls-2 {
        fill: #f83e3e;
        stroke: #FFF;
        stroke-linecap: round;
        stroke-linejoin: round;
        stroke-width: .25px;
      }

      .cls-4 {
        fill: none;
      }

      .cls-3 {
        fill: #f83e3e;
      }
    </style>
  </defs>
  <g id="Layer_1-2" data-name="Layer 1">
    <g>
      <g>
        <path class="cls-3" d="m18.21,42.11l-.68-1.19h-.29v1.19h-.61v-3.07h1.15c.24,0,.44.04.61.12.17.08.29.2.38.34.08.14.12.3.12.48,0,.2-.06.38-.18.55-.12.16-.29.27-.52.34l.73,1.24h-.71Zm-.97-1.66h.51c.17,0,.29-.04.37-.12s.12-.19.12-.34-.04-.25-.12-.33-.21-.12-.37-.12h-.51v.9Z"/>
        <path class="cls-3" d="m20.05,39.05v1.9c0,.21.05.37.16.48.11.11.26.17.46.17s.35-.06.46-.17c.11-.11.16-.27.16-.48v-1.9h.62v1.89c0,.26-.06.48-.17.66-.11.18-.26.32-.45.41s-.4.14-.63.14-.44-.04-.62-.14-.33-.23-.44-.41c-.11-.18-.16-.4-.16-.66v-1.89h.61Z"/>
        <path class="cls-3" d="m24.67,40.8c.11.14.17.3.17.48,0,.16-.04.31-.12.43s-.2.22-.35.29c-.15.07-.33.11-.54.11h-1.32v-3.07h1.26c.21,0,.39.03.54.1s.27.16.34.28c.08.12.12.26.12.41,0,.18-.05.33-.14.45-.1.12-.22.21-.38.25.17.03.31.12.43.26Zm-1.55-.49h.56c.15,0,.26-.03.34-.1s.12-.16.12-.28-.04-.22-.12-.29-.19-.1-.34-.1h-.56v.77Zm.97,1.19c.08-.07.13-.17.13-.3s-.04-.23-.13-.31c-.09-.07-.21-.11-.36-.11h-.61v.83h.62c.15,0,.27-.04.35-.11Z"/>
        <path class="cls-3" d="m27.76,39.05l-1.04,2v1.07h-.61v-1.07l-1.04-2h.69l.66,1.4.65-1.4h.69Z"/>
        <path class="cls-3" d="m28.82,39.03v1.84c0,.18.04.33.14.43.09.1.22.15.4.15s.31-.05.4-.15.14-.24.14-.43v-1.84h.75v1.84c0,.28-.06.51-.18.7s-.27.33-.47.43-.42.14-.66.14-.46-.05-.65-.14c-.19-.09-.34-.24-.45-.43-.11-.19-.17-.42-.17-.7v-1.84h.75Z"/>
        <path class="cls-3" d="m33.83,39.03l-1.07,2.06v1.02h-.75v-1.02l-1.07-2.06h.85l.6,1.29.59-1.29h.84Z"/>
      </g>
      <g>
        <g>
          <polygon class="cls-1" points="17.41 14.64 16.15 15.17 15.41 15.66 13.8 16.76 7.64 7.77 7.64 7.76 7.39 7.39 17.41 14.64"/>
          <path class="cls-1" d="m27.26,13.34l-2.39.02-2.54.03.04-.19h0S24.88.12,24.88.12l2.36,13.03.03.19Z"/>
          <polygon class="cls-1" points="42.2 7.39 36.14 16.22 34.49 15.16 34.2 14.98 32.53 14.38 42.2 7.39"/>
          <polygon class="cls-1" points="16.56 27.85 .13 24.88 11.58 23.02 13.49 24.88 16.56 27.85"/>
          <polygon class="cls-1" points="49.45 24.88 34.25 27.47 36.82 24.88 38.54 23.11 49.45 24.88"/>
          <path class="cls-1" d="m10.09,20.73c-.81-.43-1.79-.78-2.9-.87-2.88-.23-4.2-3.35-4.55-4.35-.04-.11-.07-.21-.1-.31,0,0,2.54,2.84,5.21,2.05,1.52-.45,3.54-.14,5,.2"/>
          <path class="cls-1" d="m17.62,14.56s.26-2.88-2.09-6.33c-2.36-3.45.42-5.88.42-5.88,0,0-.48,3.84,2.53,5.26s3.9,5.59,3.9,5.59"/>
          <path class="cls-1" d="m31.8,14.09c.58-1.42,1.32-3.82.77-5.78-.83-2.98,1.99-5.59,1.99-5.59,0,0-4.04.54-4.28,4.04-.23,3.5-3.04,6.39-3.04,6.39"/>
          <path class="cls-1" d="m37.74,17.25c1.01-.29,2.24-.79,3.52-1.62,3.25-2.1,6.14.32,6.14.32,0,0-3.94-.6-5.57,2.7-.38.78-.94,1.41-1.56,1.91"/>
          <path class="cls-1 cls-4" d="m10.47,18.98c-.56-.14-1.12-.22-1.65-.24-3.4-.11-5.56-1.69-6.17-3.23-.04-.11-.07-.21-.1-.31"/>
          <path class="cls-1 cls-4" d="m20.35,13.41c-.56-1.5-1.32-3.04-2.31-3.95-2.4-2.22-3.01-5.06-2.1-7.1"/>
          <path class="cls-1 cls-4" d="m29.77,13.35c.64-1.74,1.23-3.55,1.25-4.48.05-2.1.25-5.15,3.53-6.15"/>
          <path class="cls-1 cls-4" d="m39.54,18.4c.31-.28.58-.57.82-.87,2.26-2.89,6.67-1.77,6.67-1.77"/>
          <line class="cls-2" x1="49.45" y1="24.88" x2="36.81" y2="24.88"/>
          <line class="cls-2" x1="13.49" y1="24.88" x2=".12" y2="24.88"/>
          <polyline class="cls-1" points="7.64 7.76 7.65 7.76 15.42 15.67"/>
          <line class="cls-2" x1="24.88" y1="13.36" x2="24.88" y2=".12"/>
          <line class="cls-2" x1="42.2" y1="7.39" x2="34.49" y2="15.17"/>
        </g>
        <g>
          <polyline class="cls-2" points="29.67 13.31 34.2 14.98 40.25 18.85 40.28 21.36 25.39 36.44 10.1 21.6 10.08 19.23 16.16 15.18 20.33 13.41 29.67 13.31"/>
          <polyline class="cls-2" points="20.37 17.13 25.2 22.32 30.21 17.03 36.94 20.31 34.2 14.98 30.21 17.03 20.37 17.13 16.16 15.18 13.45 20.65 20.37 17.13 17.74 22.46 17.7 24.98 25.39 36.44 32.73 24.82 32.7 22.18 30.21 17.03"/>
          <path class="cls-2" d="m21.55,27.09s.64-.9,1.63-.02"/>
          <path class="cls-2" d="m27.75,27.12s.64-.9,1.63-.02"/>
          <path class="cls-2" d="m25.13,28.7s.56.58,1.07-.04"/>
          <polygon class="cls-2" points="10.1 21.6 17.7 24.98 32.73 24.82 40.28 21.36 40.25 18.85 32.7 22.18 17.74 22.46 10.08 19.23 10.1 21.6"/>
          <line class="cls-2" x1="17.74" y1="22.46" x2="17.7" y2="24.98"/>
          <line class="cls-2" x1="32.73" y1="24.82" x2="32.7" y2="22.18"/>
        </g>
      </g>
    </g>
  </g>
</svg>
