<svg xmlns="http://www.w3.org/2000/svg" xmlns:xlink="http://www.w3.org/1999/xlink" version="1.1" id="Layer_1" x="0px" y="0px" viewBox="0 0 148 42" style="enable-background:new 0 0 148 42;" xml:space="preserve" width="148"  height="42" >
<style type="text/css">
	.st0{fill:url(#Combined-Shape_2_);}
	.st1{fill:#2C3E50;}
</style>
<title>C9A80843-6E77-4666-89FE-85AB75DCC416</title>
<desc>Created with sketchtool.</desc>
<g>
	
		<linearGradient id="Combined-Shape_2_" gradientUnits="userSpaceOnUse" x1="-1404.804" y1="162.6358" x2="-1405.8304" y2="161.7471" gradientTransform="matrix(35 0 0 -39 49198 6348)">
		<stop offset="0" style="stop-color:#3E63FE"/>
		<stop offset="1" style="stop-color:#3EE2FE"/>
	</linearGradient>
	<path id="Combined-Shape_1_" class="st0" d="M1,5.2C1,2.9,2.9,1,5.2,1h10.4C27.7,1,36,9.4,36,20.4C36,31.5,27.7,40,15.6,40H5.2   C2.9,40,1,38.1,1,35.8V5.2z"/>
	<path class="st1" d="M52.4,20h-3.9c-0.9,0-1.6-0.7-1.6-1.5v-11C47,6.7,47.7,6,48.6,6h3.9c4.4,0,7.6,2.9,7.6,7   C60,17,56.8,20,52.4,20z M49,18h3.4c3.3,0,5.6-2.1,5.6-5s-2.3-5-5.6-5H49V18z"/>
	<path class="st1" d="M55.1,38.4c0.2,0.2,0.3,0.4,0.3,0.7s-0.1,0.5-0.3,0.7s-0.4,0.3-0.7,0.3h-6.8c-0.3,0-0.5-0.1-0.7-0.3   s-0.3-0.4-0.3-0.7V27c0-0.3,0.1-0.5,0.3-0.7s0.4-0.3,0.7-0.3s0.5,0.1,0.7,0.3c0.2,0.2,0.3,0.4,0.3,0.7v11.2h5.7   C54.7,38.1,54.9,38.2,55.1,38.4z"/>
	<path class="st1" d="M66.2,29.7c0.2,0.2,0.3,0.4,0.3,0.7V39c0,0.3-0.1,0.5-0.3,0.7C66,39.9,65.8,40,65.5,40s-0.5-0.1-0.7-0.3   s-0.3-0.4-0.3-0.7v-0.5c-0.3,0.5-0.8,0.9-1.4,1.2s-1.2,0.5-1.9,0.5c-0.9,0-1.7-0.2-2.5-0.7c-0.7-0.5-1.3-1.1-1.7-2   c-0.4-0.8-0.6-1.8-0.6-2.8s0.2-2,0.6-2.8c0.4-0.8,1-1.5,1.7-1.9c0.7-0.5,1.5-0.7,2.4-0.7c0.7,0,1.4,0.1,2,0.4s1.1,0.7,1.5,1.1v-0.5   c0-0.3,0.1-0.5,0.3-0.7c0.2-0.2,0.4-0.3,0.7-0.3C65.8,29.4,66,29.5,66.2,29.7z M63.1,38c0.5-0.3,0.9-0.8,1.1-1.3   c0.3-0.6,0.4-1.2,0.4-1.9s-0.1-1.3-0.4-1.9c-0.3-0.6-0.7-1-1.1-1.3c-0.5-0.3-1-0.5-1.7-0.5s-1.2,0.2-1.7,0.5s-0.9,0.8-1.1,1.3   c-0.3,0.6-0.4,1.2-0.4,1.9s0.1,1.3,0.4,1.9c0.3,0.6,0.7,1,1.1,1.3s1,0.5,1.7,0.5S62.6,38.3,63.1,38z"/>
	<path class="st1" d="M76.6,30c0.7,0.5,1.3,1.1,1.7,1.9c0.4,0.8,0.6,1.8,0.6,2.8s-0.2,2-0.6,2.8s-1,1.5-1.7,2s-1.5,0.7-2.4,0.7   c-0.7,0-1.3-0.2-1.9-0.5s-1.1-0.7-1.5-1.1v0.6c0,0.3-0.1,0.5-0.3,0.7c-0.2,0.2-0.4,0.3-0.7,0.3c-0.3,0-0.5-0.1-0.7-0.3   s-0.3-0.4-0.3-0.7v-13c0-0.3,0.1-0.5,0.3-0.7c0.2-0.2,0.4-0.3,0.7-0.3c0.3,0,0.5,0.1,0.7,0.3c0.2,0.2,0.3,0.4,0.3,0.7V31   c0.3-0.5,0.8-0.9,1.4-1.2s1.3-0.5,2-0.5C75.1,29.3,75.9,29.5,76.6,30z M75.6,38c0.5-0.3,0.9-0.8,1.2-1.3c0.3-0.6,0.4-1.2,0.4-1.9   s-0.1-1.3-0.4-1.9c-0.3-0.6-0.7-1-1.2-1.3s-1-0.5-1.7-0.5c-0.6,0-1.2,0.2-1.7,0.5s-0.9,0.8-1.2,1.3c-0.3,0.6-0.4,1.2-0.4,1.9   s0.1,1.3,0.4,1.9c0.3,0.6,0.7,1,1.2,1.3s1.1,0.5,1.7,0.5C74.6,38.4,75.1,38.3,75.6,38z"/>
	<path class="st1" d="M80,37.8c0-0.3,0.1-0.5,0.4-0.7c0.1-0.1,0.3-0.1,0.5-0.1s0.5,0.1,0.7,0.3c0.4,0.5,0.8,0.8,1.3,1s1,0.3,1.7,0.3   c0.5,0,1-0.1,1.3-0.4c0.4-0.2,0.6-0.6,0.6-1.1s-0.2-0.8-0.6-1s-1-0.5-1.7-0.7s-1.4-0.4-1.9-0.6s-0.9-0.5-1.2-1   c-0.3-0.4-0.5-1-0.5-1.7c0-0.6,0.2-1.1,0.5-1.6s0.8-0.8,1.4-1.1s1.2-0.4,1.8-0.4c0.6,0,1.3,0.1,1.9,0.4c0.6,0.2,1.2,0.6,1.5,1.1   c0.2,0.2,0.2,0.4,0.2,0.6s-0.1,0.4-0.3,0.6c-0.1,0.1-0.3,0.2-0.5,0.2s-0.4-0.1-0.6-0.2c-0.3-0.3-0.6-0.6-1-0.7   c-0.4-0.2-0.9-0.3-1.3-0.3c-0.5,0-0.9,0.1-1.3,0.3c-0.4,0.2-0.5,0.6-0.5,1c0,0.5,0.2,0.8,0.6,1s1,0.4,1.8,0.7   c0.7,0.2,1.3,0.4,1.8,0.6c0.5,0.2,0.9,0.5,1.2,1c0.3,0.4,0.5,1,0.5,1.6s-0.2,1.2-0.5,1.6c-0.4,0.5-0.8,0.8-1.4,1.1   c-0.6,0.2-1.2,0.4-1.8,0.4c-0.8,0-1.6-0.1-2.3-0.4c-0.7-0.3-1.3-0.8-1.8-1.4C80.1,38.2,80,38,80,37.8z"/>
	<path id="December-.design-Copy-3" class="st1" d="M71.8,14.2c0,0.2-0.1,0.4-0.3,0.6C71.3,15,71.1,15,70.8,15h-7   c0.1,1,0.5,1.8,1.1,2.3s1.4,0.9,2.4,0.9c0.6,0,1.2-0.1,1.6-0.3c0.4-0.2,0.8-0.4,1.1-0.7c0.2-0.1,0.4-0.2,0.6-0.2s0.4,0.1,0.6,0.2   c0.2,0.2,0.2,0.3,0.2,0.6c0,0.3-0.1,0.5-0.4,0.8c-0.4,0.4-0.9,0.7-1.5,1s-1.3,0.4-2,0.4c-1.1,0-2-0.2-2.8-0.7   c-0.8-0.5-1.5-1.1-1.9-1.9s-0.7-1.7-0.7-2.8s0.2-2.1,0.7-2.9c0.5-0.8,1.1-1.5,1.8-1.9c0.8-0.5,1.6-0.7,2.4-0.7   c0.9,0,1.7,0.2,2.4,0.7c0.7,0.4,1.3,1,1.8,1.8C71.6,12.3,71.8,13.2,71.8,14.2z M66.9,10.8c-0.7,0-1.4,0.2-1.9,0.6s-0.9,1.1-1.1,1.9   h5.9v-0.2c-0.1-0.7-0.4-1.3-0.9-1.7C68.3,11.1,67.7,10.8,66.9,10.8z M78.2,9.1c1.1,0,1.9,0.2,2.6,0.5s1,0.8,1,1.3   c0,0.2-0.1,0.4-0.2,0.6c-0.1,0.2-0.3,0.3-0.6,0.3c-0.2,0-0.3,0-0.4-0.1s-0.2-0.1-0.4-0.3c-0.1-0.1-0.2-0.2-0.4-0.3   c-0.2-0.1-0.4-0.1-0.7-0.2s-0.6-0.1-0.8-0.1c-0.7,0-1.3,0.2-1.8,0.5s-0.9,0.8-1.2,1.3c-0.3,0.6-0.4,1.2-0.4,1.9s0.1,1.3,0.4,1.9   c0.3,0.6,0.7,1,1.2,1.3s1.1,0.5,1.8,0.5c0.7,0,1.3-0.1,1.7-0.3c0.1-0.1,0.2-0.1,0.4-0.3c0.1-0.1,0.2-0.2,0.4-0.2   c0.1-0.1,0.2-0.1,0.4-0.1c0.3,0,0.5,0.1,0.6,0.2c0.2,0.2,0.2,0.4,0.2,0.6c0,0.3-0.2,0.6-0.5,0.8s-0.8,0.5-1.4,0.7s-1.2,0.3-1.9,0.3   c-1,0-1.9-0.2-2.7-0.7c-0.8-0.5-1.4-1.1-1.8-2c-0.4-0.8-0.6-1.8-0.6-2.8s0.2-2,0.7-2.8c0.4-0.8,1.1-1.5,1.8-2S77.2,9.1,78.2,9.1z    M92.7,14.2c0,0.2-0.1,0.4-0.3,0.6C92.2,14.9,92,15,91.8,15h-7c0.1,1,0.5,1.8,1.1,2.3c0.6,0.6,1.4,0.9,2.4,0.9   c0.6,0,1.2-0.1,1.6-0.3c0.4-0.2,0.8-0.4,1.1-0.7c0.2-0.1,0.4-0.2,0.6-0.2s0.4,0.1,0.6,0.2c0.2,0.2,0.2,0.3,0.2,0.6   c0,0.3-0.1,0.5-0.4,0.8c-0.4,0.4-0.9,0.7-1.5,1s-1.3,0.4-2,0.4c-1.1,0-2-0.2-2.9-0.7c-0.8-0.5-1.5-1.1-1.9-1.9S83,15.7,83,14.6   s0.2-2.1,0.7-2.9s1.1-1.5,1.8-1.9s1.6-0.7,2.4-0.7c0.9,0,1.7,0.2,2.4,0.7c0.7,0.4,1.3,1,1.8,1.8C92.5,12.3,92.7,13.2,92.7,14.2z    M87.8,10.8c-0.7,0-1.4,0.2-1.9,0.6s-0.9,1.1-1.1,1.9h5.9v-0.2c-0.1-0.7-0.4-1.3-0.9-1.7C89.2,11.1,88.5,10.8,87.8,10.8z    M106.5,9.1c2.3,0,3.5,1.5,3.5,4.4v5.3c0,0.3-0.1,0.5-0.3,0.7c-0.2,0.2-0.4,0.3-0.7,0.3s-0.5-0.1-0.7-0.3c-0.2-0.2-0.3-0.4-0.3-0.7   v-5.3c0-1.7-0.7-2.6-2.2-2.6c-0.5,0-1,0.1-1.4,0.4c-0.4,0.2-0.7,0.5-1,0.9c-0.2,0.4-0.4,0.8-0.4,1.3v5.3c0,0.3-0.1,0.5-0.3,0.7   c-0.2,0.2-0.4,0.3-0.7,0.3c-0.3,0-0.5-0.1-0.7-0.3c-0.2-0.2-0.3-0.4-0.3-0.7v-5.3c0-0.8-0.2-1.4-0.5-1.9s-0.9-0.7-1.7-0.7   c-0.8,0-1.4,0.2-1.9,0.8c-0.5,0.5-0.8,1.1-0.8,1.9v5.3c0,0.3-0.1,0.5-0.3,0.7c-0.2,0.2-0.4,0.3-0.7,0.3s-0.5-0.1-0.7-0.3   c-0.2-0.2-0.3-0.4-0.3-0.7v-8.6c0-0.3,0.1-0.5,0.3-0.7c0.2-0.2,0.4-0.3,0.7-0.3c0.3,0,0.5,0.1,0.7,0.3s0.3,0.4,0.3,0.7V11   c0.3-0.5,0.8-1,1.4-1.3s1.2-0.5,1.9-0.5c1.7,0,2.7,0.7,3.2,2.2c0.3-0.6,0.8-1.1,1.5-1.5C105.1,9.4,105.8,9.1,106.5,9.1z M117.7,9.1   c0.9,0,1.7,0.2,2.5,0.7s1.3,1.1,1.7,1.9c0.4,0.8,0.6,1.8,0.6,2.8s-0.2,2-0.6,2.8s-1,1.5-1.7,2s-1.5,0.7-2.4,0.7   c-0.7,0-1.3-0.2-1.9-0.5s-1.1-0.7-1.5-1.1V19c0,0.3-0.1,0.5-0.3,0.7s-0.4,0.3-0.7,0.3c-0.3,0-0.5-0.1-0.7-0.3s-0.3-0.4-0.3-0.7V6   c0-0.3,0.1-0.5,0.3-0.7c0.2-0.2,0.4-0.3,0.7-0.3c0.3,0,0.5,0.1,0.7,0.3c0.2,0.2,0.3,0.4,0.3,0.7v4.9c0.3-0.5,0.8-0.9,1.4-1.2   C116.4,9.3,117,9.1,117.7,9.1z M117.5,18.2c0.6,0,1.2-0.2,1.7-0.5s0.9-0.8,1.2-1.3c0.3-0.6,0.4-1.2,0.4-1.9s-0.1-1.3-0.4-1.9   c-0.3-0.6-0.7-1-1.2-1.3s-1-0.5-1.7-0.5c-0.6,0-1.2,0.2-1.7,0.5s-0.9,0.8-1.1,1.3c-0.3,0.6-0.4,1.2-0.4,1.9s0.1,1.3,0.4,1.9   c0.3,0.6,0.7,1,1.1,1.3C116.3,18.1,116.9,18.2,117.5,18.2z M133.6,14.2c0,0.2-0.1,0.4-0.3,0.6c-0.2,0.2-0.4,0.2-0.7,0.2h-7   c0.1,1,0.5,1.8,1.1,2.3c0.6,0.6,1.4,0.9,2.4,0.9c0.6,0,1.2-0.1,1.6-0.3c0.4-0.2,0.8-0.4,1.1-0.7c0.2-0.1,0.4-0.2,0.6-0.2   c0.2,0,0.4,0.1,0.6,0.2c0.2,0.2,0.2,0.3,0.2,0.6c0,0.3-0.1,0.5-0.4,0.8c-0.4,0.4-0.9,0.7-1.5,1s-1.3,0.4-2,0.4   c-1.1,0-2-0.2-2.8-0.7s-1.5-1.1-1.9-1.9s-0.7-1.7-0.7-2.8s0.2-2.1,0.7-2.9c0.5-0.8,1.1-1.5,1.8-1.9c0.8-0.5,1.6-0.7,2.4-0.7   c0.9,0,1.7,0.2,2.4,0.7s1.3,1,1.8,1.8C133.3,12.3,133.5,13.2,133.6,14.2z M128.7,10.8c-0.7,0-1.4,0.2-1.9,0.6s-0.9,1.1-1.1,1.9h5.9   v-0.2c-0.1-0.7-0.4-1.3-0.9-1.7C130,11.1,129.4,10.8,128.7,10.8z M140.6,9.1c0.3,0,0.6,0.1,0.9,0.3c0.3,0.2,0.4,0.4,0.4,0.7   s-0.1,0.6-0.2,0.7S141.2,11,141,11c-0.1,0-0.3,0-0.5-0.1c-0.3-0.1-0.5-0.1-0.7-0.1c-0.4,0-0.8,0.1-1.2,0.4c-0.4,0.3-0.7,0.7-1,1.2   c-0.2,0.5-0.4,1.1-0.4,1.7v4.8c0,0.3-0.1,0.5-0.3,0.7s-0.4,0.3-0.7,0.3s-0.5-0.1-0.7-0.3c-0.2-0.2-0.3-0.4-0.3-0.7v-8.6   c0-0.3,0.1-0.5,0.3-0.7s0.4-0.3,0.7-0.3s0.5,0.1,0.7,0.3s0.3,0.4,0.3,0.7v1c0.3-0.7,0.7-1.2,1.3-1.6S139.8,9.1,140.6,9.1z"/>
</g>
</svg>