<svg xmlns:xlink="http://www.w3.org/1999/xlink" xmlns="http://www.w3.org/2000/svg" width="170" height="28" viewBox="0 0 170 28" fill="none">
<path d="M30.321 7.26187L26.3803 8.67045L17.2815 3.82185L7.74309 7.22523L13.0924 10.0709L15.8933 9.06126L13.2838 7.65676L17.2286 6.23597L23.6934 9.63528L12.9499 13.4783L0 6.65122L17.3548 0.381836L30.321 7.26187Z" fill="url(#paint0_linear_1022_93)"/>
<path d="M30.555 7.90527L26.6143 9.31792L22.6572 18.8401L13.1229 22.2597L15.4515 16.6661L18.2565 15.6687L17.1329 18.4126L21.0858 17.004L23.9274 10.2787L13.184 14.1217L7.50488 27.6172L24.8963 21.4536L30.555 7.90527Z" fill="url(#paint1_linear_1022_93)"/>
<path d="M91.9552 24.2479C90.6498 24.2597 89.3566 23.9947 88.161 23.4703C87.0007 22.9617 85.9552 22.2236 85.0874 21.3005C84.2007 20.3551 83.5017 19.2499 83.0275 18.0436C82.5259 16.754 82.2745 15.3807 82.2865 13.997C82.2783 12.6548 82.5142 11.3223 82.9827 10.0644C83.4307 8.86001 84.1082 7.75396 84.9775 6.80761C85.8606 5.85326 86.9341 5.09466 88.1285 4.58075C89.4327 4.02478 90.8388 3.74745 92.2565 3.76655C94.0252 3.77091 95.772 4.15694 97.3778 4.89829C98.1595 5.25397 98.8916 5.70967 99.5558 6.25395L97.7361 9.25836C97.0071 8.58828 96.1479 8.07553 95.2121 7.75208C94.2789 7.406 93.2925 7.22552 92.2972 7.21878C91.4392 7.20173 90.5877 7.37119 89.8017 7.71544C89.0944 8.03628 88.4693 8.51377 87.9738 9.11181C87.4685 9.73383 87.0871 10.4469 86.8502 11.2125C86.588 12.0586 86.4589 12.9403 86.4675 13.8261C86.4545 14.7772 86.6004 15.7238 86.899 16.6269C87.1593 17.4181 87.5667 18.1529 88.1 18.7927C88.5993 19.3844 89.2199 19.862 89.9197 20.1931C90.6176 20.5204 91.3799 20.6873 92.1506 20.6817C92.7804 20.6831 93.4057 20.5757 93.9989 20.3641C94.5776 20.1653 95.1156 19.8632 95.5866 19.4726C96.0418 19.1022 96.4159 18.6421 96.6858 18.121C96.9595 17.5974 97.0994 17.0142 97.0929 16.4234V16.1221H91.8982V15.2468L101.03 11.99V16.1099C101.044 17.2523 100.789 18.3821 100.285 19.4074C99.7905 20.3961 99.0975 21.272 98.249 21.9803C97.3833 22.7082 96.3949 23.2761 95.3301 23.6576C94.2487 24.0516 93.1062 24.2514 91.9552 24.2479Z" fill="url(#paint2_linear_1022_93)"/>
<path d="M69.9082 24.2453C68.5739 24.2565 67.2522 23.9874 66.0285 23.4555C64.8379 22.9387 63.7605 22.1932 62.8572 21.2612C60.979 19.3115 59.9297 16.7097 59.9297 14.0026C59.9297 11.2954 60.979 8.69361 62.8572 6.74393C63.7605 5.81195 64.8379 5.06641 66.0285 4.54965C67.2548 4.02841 68.5737 3.75977 69.9062 3.75977C71.2387 3.75977 72.5575 4.02841 73.7838 4.54965C74.975 5.06539 76.0526 5.81105 76.9551 6.74393C77.8659 7.68562 78.5909 8.79051 79.0924 10.0008C79.6108 11.2665 79.8723 12.6226 79.8619 13.9904C79.8825 16.6975 78.8386 19.3044 76.9551 21.249C76.0526 22.1819 74.975 22.9275 73.7838 23.4433C72.5624 23.9791 71.242 24.2523 69.9082 24.2453ZM69.9082 20.5121C70.7069 20.5212 71.4982 20.3588 72.2287 20.0358C72.9275 19.7172 73.5517 19.2554 74.0606 18.6802C74.5955 18.0762 75.01 17.3757 75.282 16.6162C75.5621 15.7741 75.6944 14.8898 75.6728 14.0026C75.6905 13.1103 75.5528 12.2218 75.2657 11.3768C74.9905 10.6274 74.5761 9.93673 74.0444 9.34125C73.2416 8.47365 72.1889 7.87711 71.0321 7.63422C69.8753 7.39134 68.6716 7.51413 67.5877 7.98559C66.8881 8.30282 66.2637 8.76487 65.7558 9.34125C65.2179 9.94296 64.803 10.6441 64.5344 11.4053C64.2487 12.2464 64.111 13.1307 64.1273 14.0189C64.111 14.907 64.2487 15.7913 64.5344 16.6325C64.803 17.3936 65.2179 18.0948 65.7558 18.6965C66.2637 19.2745 66.8898 19.7368 67.5918 20.0521C68.3182 20.3683 69.1039 20.5252 69.896 20.5121H69.9082Z" fill="url(#paint3_linear_1022_93)"/>
<path d="M131.636 24.2475C130.303 24.2588 128.982 23.9897 127.76 23.4577C126.569 22.942 125.491 22.1963 124.589 21.2635C122.706 19.3178 121.661 16.712 121.678 14.0048C121.661 11.2977 122.706 8.69185 124.589 6.74617C125.491 5.81329 126.569 5.06763 127.76 4.55189C128.983 4.03302 130.299 3.76562 131.628 3.76562C132.956 3.76563 134.272 4.03302 135.495 4.55189C136.686 5.06763 137.764 5.81329 138.666 6.74617C140.549 8.69185 141.594 11.2977 141.577 14.0048C141.594 16.712 140.549 19.3178 138.666 21.2635C137.771 22.1937 136.702 22.9392 135.519 23.4577C134.295 23.9905 132.971 24.2596 131.636 24.2475ZM131.636 20.5144C132.434 20.5244 133.226 20.3619 133.956 20.0381C134.656 19.7216 135.281 19.2594 135.788 18.6824C136.323 18.0785 136.737 17.3779 137.009 16.6184C137.303 15.7787 137.449 14.8944 137.441 14.0048C137.443 13.1097 137.289 12.221 136.985 11.379C136.713 10.6195 136.298 9.91895 135.764 9.31499C135.255 8.73917 134.631 8.2772 133.932 7.95934C133.201 7.64504 132.415 7.48294 131.619 7.48294C130.824 7.48294 130.037 7.64504 129.307 7.95934C128.608 8.28693 127.987 8.75864 127.483 9.34349C126.945 9.9452 126.53 10.6464 126.262 11.4075C125.978 12.2491 125.84 13.1331 125.855 14.0211C125.84 14.9091 125.978 15.7931 126.262 16.6347C126.53 17.3958 126.945 18.097 127.483 18.6987C127.992 19.2758 128.618 19.7379 129.319 20.0544C130.046 20.3702 130.831 20.527 131.623 20.5144H131.636Z" fill="url(#paint4_linear_1022_93)"/>
<path d="M148.269 23.8763L142.976 5.52006L142.569 4.13184H146.876L150.61 18.5636L154.029 6.84721L154.823 4.13184H157.73L158.1 5.39793L161.931 18.5636L165.237 5.8376L165.676 4.13184H170L164.3 23.8763H159.997L156.281 11.6103L153.101 22.1461L152.58 23.8763H148.269Z" fill="url(#paint5_linear_1022_93)"/>
<path d="M114.009 15.9913C114.879 15.7552 115.691 15.3391 116.39 14.77C117.044 14.2307 117.56 13.5443 117.897 12.7671C118.26 11.9229 118.44 11.0113 118.426 10.0924C118.462 8.9652 118.18 7.85062 117.612 6.87632C117.059 5.98541 116.256 5.27732 115.303 4.8408C114.201 4.34236 113 4.09885 111.79 4.12837H105.057V7.22643H110.585C111.79 7.22643 112.722 7.48426 113.382 7.99992C113.708 8.26472 113.965 8.60342 114.134 8.9879C114.302 9.37237 114.377 9.79151 114.351 10.2105C114.367 10.7858 114.211 11.3528 113.903 11.8389C113.586 12.3006 113.138 12.6566 112.617 12.8607C111.967 13.1074 111.276 13.2249 110.581 13.2068H108.936V9.0991L105.057 10.524V23.8769H108.936V16.4351H109.873L115.572 23.8769H120.457L119.342 22.5131L114.009 15.9913Z" fill="url(#paint6_linear_1022_93)"/>
<path d="M48.135 24.2473C46.824 24.2619 45.525 23.9968 44.3245 23.4698C43.1635 22.9601 42.1169 22.2222 41.2468 21.2999C40.3687 20.3526 39.678 19.2475 39.2113 18.0431C38.7064 16.7543 38.4535 15.3806 38.4663 13.9965C38.4581 12.6543 38.6939 11.3217 39.1624 10.0639C39.6118 8.85923 40.2907 7.75319 41.1613 6.80706C42.0457 5.84561 43.1237 5.08249 44.3245 4.56799C45.629 4.01271 47.0349 3.73541 48.4525 3.75379C50.2213 3.75686 51.9685 4.14296 53.5739 4.88553C54.3465 5.24493 55.0691 5.70338 55.7234 6.24933L53.9077 9.25374C53.1789 8.58643 52.3213 8.07522 51.3877 7.75153C50.4544 7.40617 49.468 7.22572 48.4729 7.21823C47.6177 7.20301 46.7692 7.37241 45.9855 7.7149C45.2794 8.03588 44.6557 8.51341 44.1616 9.11126C43.6536 9.73204 43.2706 10.4454 43.034 11.2119C42.7736 12.0584 42.6445 12.9399 42.6513 13.8255C42.6469 14.7776 42.7996 15.7239 43.1032 16.6264C43.3697 17.419 43.7842 18.1539 44.3245 18.7922C44.8187 19.3824 45.4337 19.8599 46.128 20.1926C46.8273 20.5199 47.5909 20.6868 48.3629 20.6811C48.9927 20.6823 49.6179 20.5748 50.2112 20.3636C50.7891 20.1656 51.3259 19.8635 51.7948 19.472C52.2413 19.0983 52.6082 18.6387 52.8736 18.1204C53.1455 17.5961 53.2853 17.0134 53.2807 16.4228V16.1216H48.0861V13.1212H57.2174V16.1094C57.2324 17.2523 56.9756 18.3825 56.4684 19.4069C55.976 20.3966 55.2828 21.2729 54.4328 21.9798C53.5659 22.7059 52.5779 23.2737 51.5139 23.657C50.4311 24.0509 49.2872 24.2507 48.135 24.2473Z" fill="url(#paint7_linear_1022_93)"/>
<defs>
<linearGradient id="paint0_linear_1022_93" x1="8.01977e-06" y1="13.4784" x2="31.1654" y2="10.3283" gradientUnits="userSpaceOnUse">
<stop stop-color="#0071BC"/>
<stop offset="1" stop-color="#0000FF"/>
</linearGradient>
<linearGradient id="paint1_linear_1022_93" x1="7.50489" y1="27.6174" x2="31.3768" y2="26.3986" gradientUnits="userSpaceOnUse">
<stop stop-color="#0071BC"/>
<stop offset="1" stop-color="#0000FF"/>
</linearGradient>
<linearGradient id="paint2_linear_1022_93" x1="82.2861" y1="24.2484" x2="101.718" y2="23.4721" gradientUnits="userSpaceOnUse">
<stop stop-color="#0071BC"/>
<stop offset="1" stop-color="#0000FF"/>
</linearGradient>
<linearGradient id="paint3_linear_1022_93" x1="59.9297" y1="24.2458" x2="80.5893" y2="23.3682" gradientUnits="userSpaceOnUse">
<stop stop-color="#0071BC"/>
<stop offset="1" stop-color="#0000FF"/>
</linearGradient>
<linearGradient id="paint4_linear_1022_93" x1="121.678" y1="24.2481" x2="142.303" y2="23.3732" gradientUnits="userSpaceOnUse">
<stop stop-color="#0071BC"/>
<stop offset="1" stop-color="#0000FF"/>
</linearGradient>
<linearGradient id="paint5_linear_1022_93" x1="142.569" y1="23.8765" x2="170.948" y2="22.1552" gradientUnits="userSpaceOnUse">
<stop stop-color="#0071BC"/>
<stop offset="1" stop-color="#0000FF"/>
</linearGradient>
<linearGradient id="paint6_linear_1022_93" x1="105.057" y1="23.8771" x2="121.029" y2="23.3333" gradientUnits="userSpaceOnUse">
<stop stop-color="#0071BC"/>
<stop offset="1" stop-color="#0000FF"/>
</linearGradient>
<linearGradient id="paint7_linear_1022_93" x1="38.4658" y1="24.2481" x2="57.9062" y2="23.4715" gradientUnits="userSpaceOnUse">
<stop stop-color="#0071BC"/>
<stop offset="1" stop-color="#0000FF"/>
</linearGradient>
</defs>
</svg>