<svg xmlns="http://www.w3.org/2000/svg" xmlns:xlink="http://www.w3.org/1999/xlink" width="160" height="39" viewBox="0 0 160 39" version="1.1">
    <!-- Generator: sketchtool 55.1 (78136) - https://sketchapp.com -->
    <title>A2302E03-9ACA-4AED-A5B7-4A3FD5C69C7C@1.50x</title>
    <desc>Created with sketchtool.</desc>
    <g id="Documentation" stroke="none" stroke-width="1" fill="none" fill-rule="evenodd">
        <g id="Logos" transform="translate(-168.000000, -393.000000)">
            <g id="logos/ingenious/full" transform="translate(167.500000, 392.017266)">
                <g id="logos/ingenious" transform="translate(1.000000, 0.000000)">
                    <g id="BRAND" transform="translate(29.000000, 14.000000)" fill="#232B2F">
                        <path d="M39.5958214,3.26810529 C40.1298497,3.26810529 40.4441634,3.58122067 40.4441634,4.11326349 L40.4441634,18.1283688 C40.4441634,23.0745279 37.6789145,25.6104585 32.336598,25.6104585 C30.419691,25.6104585 28.3456272,25.1406334 26.8686577,24.3580476 C26.4287202,24.1390695 26.3025878,23.7944906 26.365654,23.293506 L26.6799677,21.6988975 C26.774567,21.1037756 27.1829715,20.5386479 27.7485328,20.7890896 C29.2255022,21.3842115 30.8280954,21.7910588 31.9907511,21.7910588 C34.3165711,21.7910588 35.4792268,20.9458499 35.4792268,18.40997 L35.4792268,17.2863519 C34.3791287,18.6009805 32.6509117,19.3524068 30.6709386,19.3524068 C26.9942815,19.3524068 24.6999946,16.5695305 24.6999946,11.0286548 C24.6999946,5.48737389 27.2770621,2.70454827 31.4251898,2.70454827 C33.0593162,2.70454827 34.6934425,3.5185976 35.7935406,4.86474041 L35.7935406,4.11326349 C35.7935406,3.58122067 36.1078543,3.26810529 36.6418825,3.26810529 L39.5958214,3.26810529 Z M47.5070679,12.7065581 C47.8676641,14.9514637 49.1900197,16.1786429 51.3235895,16.1786429 C52.254833,16.1786429 53.3966362,15.9092522 54.3283883,15.4901944 C54.8090136,15.2507472 55.1696098,15.3405273 55.4701914,15.7296415 L56.4319508,17.076595 C56.7320238,17.4956021 56.7020165,17.9150653 56.2814057,18.184456 C54.748999,19.2320245 52.5254073,19.8605859 50.4823679,19.8605859 C45.644581,19.8605859 42.6392736,16.5378136 42.6392736,11.2395264 C42.6392736,5.9412392 45.644581,2.61882153 50.4823679,2.61882153 C54.9595587,2.61882153 57.5132308,5.61201206 57.5132308,10.5810214 C57.5132308,11.0000793 57.4832235,11.4789735 57.4232089,11.9279242 C57.3631943,12.4367621 57.0626127,12.7065581 56.55198,12.7065581 L47.5070679,12.7065581 Z M105.318419,2.63077869 C105.842275,2.63077869 106.149977,2.9376115 106.149977,3.4594198 L106.149977,13.8035766 C106.149977,15.2768909 106.704858,15.9523182 107.875651,15.9523182 C108.830799,15.9523182 109.723897,15.3383486 110.340318,14.20252 L110.340318,3.4594198 C110.340318,2.9376115 110.679045,2.63077869 111.202901,2.63077869 L114.377063,2.63077869 C114.931435,2.63077869 115.239646,2.9376115 115.239646,3.4594198 L115.239646,18.9139946 C115.239646,19.4665064 114.931435,19.7733392 114.377063,19.7733392 L111.51162,19.7733392 C110.95674,19.7733392 110.648529,19.4665064 110.648529,18.9139946 L110.648529,17.3028183 C109.601325,18.9297517 107.69103,19.7583421 105.965356,19.7583421 C103.068889,19.7583421 101.281674,17.7631689 101.281674,14.5707599 L101.281674,3.4594198 C101.281674,2.9376115 101.589885,2.63077869 102.113741,2.63077869 L105.318419,2.63077869 Z M91.325354,2.69517507 C86.5379183,2.69517507 83.5646526,5.98334258 83.5646526,11.2268599 C83.5646526,16.4700226 86.5379183,19.7581901 91.325354,19.7581901 C96.1132984,19.7581901 99.086564,16.4700226 99.086564,11.2268599 C99.086564,5.98334258 96.1132984,2.69517507 91.325354,2.69517507 Z M80.5181489,5.30842187 C81.069978,5.30842187 81.3761542,5.61403869 81.3761542,6.13311104 L81.3761542,18.8836457 C81.3761542,19.4334216 81.069978,19.7390891 80.5181489,19.7390891 L77.3597534,19.7390891 C76.8079243,19.7390891 76.5012395,19.4334722 76.5012395,18.8836457 L76.5012395,6.13311104 C76.5012395,5.61403869 76.8079243,5.30842187 77.3597534,5.30842187 L80.5181489,5.30842187 Z M4.79254184,5.30842187 C5.34447271,5.30842187 5.65085232,5.61403869 5.65085232,6.13311104 L5.65085232,18.8836457 C5.65085232,19.4334216 5.34447271,19.7390891 4.79254184,19.7390891 L1.6345533,19.7390891 C1.08262243,19.7390891 0.775835942,19.4334722 0.775835942,18.8836457 L0.775835942,6.13311104 C0.775835942,5.61403869 1.08262243,5.30842187 1.6345533,5.30842187 L4.79254184,5.30842187 Z M63.5416464,3.24500163 C64.0934755,3.24500163 64.3996517,3.55061846 64.3996517,4.0696908 L64.3996517,5.16929325 C65.4422782,3.58091668 67.3434186,2.69517507 69.1214783,2.69517507 C71.942673,2.69517507 73.782273,4.77227511 73.782273,7.85722161 L73.782273,18.8838483 C73.782273,19.4336242 73.4755883,19.7388864 72.954275,19.7388864 L69.7658723,19.7388864 C69.2440505,19.7388864 68.9378743,19.4336242 68.9378743,18.8838483 L68.9378743,8.59056013 C68.9378743,7.27709683 68.3245047,6.5134601 67.2208464,6.5134601 C66.1782199,6.5134601 65.1661093,7.21563907 64.5837643,8.46804994 L64.5837643,18.8838483 C64.5837643,19.4336242 64.2770795,19.7388864 63.7252504,19.7388864 L60.5673635,19.7388864 C60.0155344,19.7388864 59.708341,19.4336242 59.708341,18.8838483 L59.708341,4.0696908 C59.708341,3.55061846 60.0155344,3.24500163 60.5673635,3.24500163 L63.5416464,3.24500163 Z M12.2338944,3.24500163 C12.7858252,3.24500163 13.0922048,3.55061846 13.0922048,4.0696908 L13.0922048,5.16929325 C14.1347296,3.58091668 16.0359209,2.69517507 17.814184,2.69517507 C20.6349718,2.69517507 22.4743684,4.77227511 22.4743684,7.85722161 L22.4743684,18.8838483 C22.4743684,19.4336242 22.1681923,19.7388864 21.646879,19.7388864 L18.458222,19.7388864 C17.9367562,19.7388864 17.6303257,19.4336242 17.6303257,18.8838483 L17.6303257,8.59056013 C17.6303257,7.27709683 17.0167527,6.5134601 15.9133487,6.5134601 C14.8708239,6.5134601 13.8587642,7.21563907 13.2764191,8.46804994 L13.2764191,18.8838483 C13.2764191,19.4336242 12.9696326,19.7388864 12.4177526,19.7388864 L9.25971324,19.7388864 C8.70783323,19.7388864 8.40104674,19.4336242 8.40104674,18.8838483 L8.40104674,4.0696908 C8.40104674,3.55061846 8.70783323,3.24500163 9.25971324,3.24500163 L12.2338944,3.24500163 Z M125.046947,9.39447627 C123.173271,8.86121747 122.162686,8.56507517 122.162686,7.49855757 C122.162686,6.69904936 123.02476,6.16579056 124.24387,6.16579056 C125.284971,6.16579056 126.415076,6.43203996 127.277659,6.87668407 C127.753198,7.08385702 128.109726,7.05431879 128.407256,6.61002934 L129.477855,5.12881118 C129.804884,4.65503417 129.745886,4.24033362 129.269838,4.00326778 C127.753198,3.14427778 125.671505,2.61061365 123.857844,2.61061365 C119.872976,2.61061365 117.434248,4.50658302 117.434248,7.64700871 C117.434248,11.1422985 120.527034,12.1198467 122.757237,12.7420749 C124.452395,13.1863137 125.433481,13.4825067 125.433481,14.6379936 C125.433481,15.5265218 124.5414,16.1188571 123.02476,16.1188571 C121.865156,16.1188571 120.497535,15.7041566 119.426936,15.0527448 C118.980895,14.7860901 118.59436,14.8156283 118.29683,15.2598671 L117.196732,16.7706235 C116.899202,17.1853747 116.929209,17.6000753 117.345243,17.9257558 C118.861883,18.9922734 121.121585,19.6736287 123.233285,19.6736287 C127.455668,19.6736287 130.280423,17.5409988 130.280423,14.4009278 C130.280423,10.816618 127.366664,10.0167551 125.046947,9.39447627 Z M91.325354,16.055322 C89.4821938,16.055322 88.4115944,14.2779109 88.4115944,11.2268599 C88.4115944,8.14591602 89.4821938,6.42798669 91.325354,6.42798669 C93.1690228,6.42798669 94.2396223,8.14591602 94.2396223,11.2268599 C94.2396223,14.2779109 93.1690228,16.055322 91.325354,16.055322 Z M35.4792268,12.4252102 C35.4792268,13.9985897 34.2555393,15.3364233 32.6773588,15.404569 C32.6270076,15.4069503 32.5761478,15.4081156 32.5252879,15.4081156 C30.7655378,15.4081156 29.8536211,14.4093383 29.8536211,11.1223868 C29.8536211,7.80392106 30.8596285,6.61767989 32.6509117,6.61767989 C33.2846252,6.61767989 33.8715476,6.84101526 34.3816717,7.24193469 C35.086589,7.79606785 35.4792268,8.65657782 35.4792268,9.55138863 L35.4792268,12.4252102 Z M52.9460181,9.77284936 C52.8860035,7.37792201 51.9847673,6.06096277 50.3618302,6.06096277 C48.6488711,6.06096277 47.657613,7.34843445 47.3870387,9.77284936 L52.9460181,9.77284936 Z M80.5791807,0.0597366044 C81.1010025,0.0597366044 81.4071787,0.364998769 81.4071787,0.884425776 L81.4071787,3.05328179 C81.4071787,3.60270302 81.1010025,3.90831985 80.5791807,3.90831985 L77.2982131,3.90831985 C76.7774084,3.90831985 76.4707236,3.60270302 76.4707236,3.05328179 L76.4707236,0.884425776 C76.4707236,0.364998769 76.7774084,0.0597366044 77.2982131,0.0597366044 L80.5791807,0.0597366044 Z M4.85392965,0.0597366044 C5.37539548,0.0597366044 5.6817751,0.364998769 5.6817751,0.884425776 L5.6817751,3.05328179 C5.6817751,3.60270302 5.37539548,3.90831985 4.85392965,3.90831985 L1.57296205,3.90831985 C1.0519031,3.90831985 0.745116605,3.60270302 0.745116605,3.05328179 L0.745116605,0.884425776 C0.745116605,0.364998769 1.0519031,0.0597366044 1.57296205,0.0597366044 L4.85392965,0.0597366044 Z" id="Fill-1"/>
                    </g>
                    <g id="ISO">
                        <path d="M11.7168251,15.0581998 C17.9603224,15.0581998 23.0292488,19.9912811 23.0292488,26.0673957 C23.0292488,32.1435587 17.9603224,37.0765916 11.7168251,37.0765916 C5.473278,37.0765916 0.404351621,32.1435587 0.404351621,26.0673957 C0.404351621,19.9912811 5.473278,15.0581998 11.7168251,15.0581998 Z" id="Fill-2" fill-opacity="0.1" fill="#2D2925"/>
                        <path d="M11.7168251,13.980437 C14.1829519,13.980437 16.6490289,14.4449758 17.3566054,15.3740049 C17.7023891,15.7875465 18.2535053,16.5193607 18.3909239,17.3470729 C18.6435872,20.7515454 14.9351745,32.2414404 13.0562089,37.4306687 C12.8676312,37.9507527 12.5135447,38.8749434 11.7209516,38.8705081 C10.9283088,38.8660891 10.5648755,37.9476561 10.3773916,37.4306687 C8.4984757,32.2414404 4.79006299,20.7515454 5.04267654,17.3470729 C5.18009513,16.5193607 5.73126102,15.7875465 6.07699506,15.3740049 C6.78462125,14.4449758 9.25064859,13.980437 11.7168251,13.980437 Z" id="Fill-3" fill="#FF7E32"/>
                        <path d="M6.49914457,8.8449638 C5.83258486,8.0037524 4.40380935,7.39125411 3.78144831,7.64696573 C3.36427052,7.81834332 3.22719995,8.29207511 3.35691236,8.9023961 C3.64726134,10.2680462 4.29950248,11.4345944 5.135449,12.4188301 C5.2746077,12.5827081 5.45582723,12.6978146 5.65439809,12.7442153 C6.98244635,13.0545529 8.43632909,13.184707 9.96956062,13.1986961 C10.0219129,13.1991739 10.125474,13.1704336 10.1569948,13.060988 C10.1884658,12.9515425 10.1165249,12.859467 10.0631783,12.8068731 C8.4904215,11.2571687 7.60435994,10.2398381 6.49914457,8.8449638 Z" id="Fill-4" fill="#046A37"/>
                        <path d="M14.2006015,7.41931707 C14.1862829,6.65276281 15.27186,5.02283708 15.8394325,5.0167838 C16.3258168,5.01170866 16.4948059,5.37555945 16.6213861,5.68560677 C17.1323804,6.93726316 17.3558596,8.20996676 17.2677606,9.48934742 C17.253094,9.70238399 17.1763802,9.90492115 17.0456237,10.0663315 C16.1709972,11.1457394 15.0906404,12.1680053 13.8790301,13.1523378 C13.8376653,13.1859166 13.7384296,13.2298013 13.6492367,13.1665628 C13.5599942,13.1033244 13.5632755,12.9875889 13.5749094,12.9137543 C13.9568376,10.4879533 14.0326565,9.50778188 14.2006015,7.41931707 Z" id="Fill-5" fill="#046A37"/>
                        <path d="M8.93325341,1.0214461 C10.3351816,1.56204515 11.5955149,2.44085125 12.7157946,3.6541388 C12.8884628,3.84104779 12.9964487,4.08098609 13.0227989,4.33606872 C13.2770034,6.79685159 12.9660714,9.75130063 12.4269869,12.9050935 C12.4007858,13.0583269 12.2735593,13.1534507 12.1396209,13.1575633 C12.0637026,13.1586762 11.9910159,13.1340001 11.930858,13.0787451 C9.65847953,10.9917802 7.66267833,8.87297838 6.27541676,6.68411591 C6.13814732,6.46749889 6.07520523,6.21159373 6.09146279,5.95452734 C6.1892567,4.41067748 6.69309172,2.9410977 7.51770271,1.53011144 C7.73049271,1.16601873 8.10814525,0.952062856 8.50379545,0.9450955 C8.6554829,0.944031043 8.79653086,0.968707094 8.93325341,1.0214461 Z" id="Fill-6" fill="#009944"/>
                        <path d="M9.33417364,29.5075759 C9.33417364,28.8609666 8.79474104,28.3360441 8.13031916,28.3360441 C7.46589729,28.3360441 6.9265144,28.8609666 6.9265144,29.5075759 C6.9265144,30.1541852 7.46589729,30.6791077 8.13031916,30.6791077 C8.79474104,30.6791077 9.33417364,30.1541852 9.33417364,29.5075759 Z M15.3374868,30.6791077 L12.6827326,30.6791077 C12.0183107,30.6791077 11.4788781,30.1541852 11.4788781,29.5075759 C11.4788781,28.8609666 12.0183107,28.3360441 12.6827326,28.3360441 L15.3374868,28.3360441 C16.0019086,28.3360441 16.5413413,28.8609666 16.5413413,29.5075759 C16.5413413,30.1541852 16.0019086,30.6791077 15.3374868,30.6791077 Z M15.4778387,24.9888587 C15.4778387,24.3422978 16.0172713,23.8173269 16.6816932,23.8173269 C17.346115,23.8173269 17.8854979,24.3422978 17.8854979,24.9888587 C17.8854979,25.635468 17.346115,26.1604389 16.6816932,26.1604389 C16.0172713,26.1604389 15.4778387,25.635468 15.4778387,24.9888587 Z M12.1345995,26.1604389 L6.76453547,26.1604389 C6.1001136,26.1604389 5.56073071,25.635468 5.56073071,24.9888587 C5.56073071,24.3422978 6.1001136,23.8173269 6.76453547,23.8173269 L12.1345995,23.8173269 C12.7990213,23.8173269 13.338454,24.3422978 13.338454,24.9888587 C13.338454,25.635468 12.7990213,26.1603905 12.1345995,26.1604389 Z M17.7943661,21.7433775 L10.1896591,21.7433775 C9.52523719,21.7433775 8.9858543,21.2184066 8.9858543,20.5717973 C8.9858543,19.925188 9.52523719,19.4002655 10.1896591,19.4002655 L17.7943661,19.4002655 C18.458788,19.4002655 18.9981709,19.925188 18.9981709,20.5717973 C18.9981709,21.2184066 18.458788,21.7433291 17.7943661,21.7433775 Z M6.84308879,20.5717973 C6.84308879,19.925188 6.3037059,19.4002655 5.63928403,19.4002655 C4.97486216,19.4002655 4.43542955,19.925188 4.43542955,20.5717973 C4.43542955,21.2184066 4.97486216,21.7433775 5.63928403,21.7433775 C6.3037059,21.7433775 6.84308879,21.2184066 6.84308879,20.5717973 Z" id="Fill-7" fill="#D86017"/>
                    </g>
                </g>
            </g>
        </g>
    </g>
</svg>