<svg xmlns:xlink="http://www.w3.org/1999/xlink" xmlns="http://www.w3.org/2000/svg" id="Layer_1" x="0" y="0" version="1.1" viewBox="0 0 369.9 37.5" xml:space="preserve" width="369.9"  height="37.5" >
  <path d="M116.5 7.9h10c6 0 9.1 3.5 9.1 8.6 0 4.1-1.9 7.3-5.8 8.2l6.6 12.3h-5.2l-6-11.5h-4V37h-4.7V7.9zm9.2 13.9c3.4 0 5.1-1.6 5.1-5.1 0-3-1.5-5-4.9-5h-4.6v10l4.4.1zM146.2 28.2V16.9c0-6.2 4.4-9.6 10.2-9.6s10.3 2.8 10.3 9.3v11.3c0 6.5-4.6 9.6-10.2 9.6s-10.3-2.8-10.3-9.3m15.7-.1V16.5c0-3.3-2.2-5.2-5.5-5.2s-5.3 2.2-5.3 5.5v11.1c0 3.3 2 5.4 5.5 5.4 2.8.2 5.2-1.9 5.4-4.6-.1-.1-.1-.4-.1-.6M177.2 28.2V16.9c0-6.2 4.4-9.6 10.2-9.6s10.3 2.8 10.3 9.3v11.3c0 6.5-4.6 9.6-10.2 9.6s-10.3-2.8-10.3-9.3m15.7-.1V16.5c0-3.3-2.2-5.2-5.5-5.2s-5.3 2.2-5.3 5.5v11.1c0 3.3 2 5.4 5.5 5.4 2.8.2 5.2-1.9 5.4-4.6-.1-.1-.1-.4-.1-.6M214.1 11.8h-8V7.9h20.7v3.9h-7.9V37h-4.8zM234.2 34.1l2.4-3.4c2.2 1.8 5 2.8 7.9 2.8 2.7 0 4.8-1.6 4.8-3.9 0-2.5-1.9-3.7-4.1-4.6l-4.1-1.6c-3.7-1.5-5.5-4.1-5.5-7.7 0-4.5 3.4-8.2 9.2-8.2 3-.1 6 .8 8.4 2.7l-2.5 3.4c-2.2-1.5-3.8-2.4-6.2-2.4-2.6 0-4.5 1.2-4.5 3.7 0 2 1.2 3.1 3.7 4.2l3.8 1.6c4.1 1.8 6.5 4.3 6.5 7.9 0 5.4-4.5 8.8-10 8.8-3.6.2-7.1-1-9.8-3.3M269.2 11.8h-8V7.9h20.7v3.9H274V37h-4.8zM291.5 7.9h10c6 0 9.1 3.5 9.1 8.6 0 4.1-1.9 7.3-5.8 8.2l6.6 12.3h-5.2l-6-11.5h-4V37h-4.8l.1-29.1zm9.2 13.9c3.4 0 5.1-1.6 5.1-5.1 0-3-1.5-5-4.9-5h-4.6v10l4.4.1zM327.7 7.8h5.7L342 37h-4.8l-2.2-7.8h-9.3l-2.2 7.8H319l8.7-29.2zm6.3 17.7l-3.5-12.9h-.1l-3.6 12.9h7.2zM351.2 7.9h10.1c5.8 0 8.6 3.9 8.6 8.8 0 5.3-3 9.4-9.1 9.4H356V37h-4.8V7.9zm8.7 14.5c3.4 0 5.3-2 5.3-5.5 0-2.9-1.6-5.1-4.7-5.1H356v10.7l3.9-.1zM88.7 0L62.2 26.5C56 9.8 37.4 1.4 20.8 7.7 8.5 12.3.3 23.9 0 37.1h11.2c.5-11.6 10.2-20.6 21.8-20.2 10.4.4 18.9 8.4 20 18.7l-.1.1h.1c0 .4.1 1.2.1 1.2h14.2L96.6 7.8 88.7 0z" class="st0"/>
</svg>