<svg xmlns:xlink="http://www.w3.org/1999/xlink" xmlns="http://www.w3.org/2000/svg" id="a" viewBox="0 0 123 123" width="123"  height="123" ><defs><style>.b{fill:#373737;}.b,.c,.d{fill-rule:evenodd;}.c{fill:#d91965;}.d{fill:#fff;}</style></defs><path class="c" d="M7.19,77.85h29.31V44.72H3.37v29.15l18.1-18.1H8.89v-5.52H30.97v22.09h-5.52v-12.74L7.19,77.85Z"/><path class="d" d="M7.19,77.85H3.37v-3.98l18.1-18.1H8.89v-5.52H30.97v22.09h-5.52v-12.74L7.19,77.85Z"/><path class="b" d="M46.56,44.72h-4.22l4.62,6.78-4.93,7.04h4.24l2.89-4.28,2.95,4.28h4.34l-4.97-7.22,4.58-6.61h-4.28l-2.62,3.92-2.6-3.92Zm16.08,0h-3.94v13.83h3.23v-8.76l3.57,7.38h2.34l3.55-7.38,.02,8.76h3.21v-13.83h-3.94l-4,8.09-4.02-8.09Zm24.7,11.38l.95,2.45h3.86l-5.83-13.83h-3.73l-5.96,13.83h3.73l.97-2.45h6Zm-1.07-2.76h-3.84l1.94-4.93,1.9,4.93Zm14.23,1.38l2.02,3.83h4.1l-2.89-4.52c.81-.42,1.42-1.01,1.84-1.77,.42-.76,.63-1.65,.63-2.69,0-1.54-.51-2.73-1.52-3.58-1.01-.85-2.43-1.27-4.27-1.27h-6.24v13.83h3.63v-3.83h2.69Zm-.06-2.88h-2.64v-4.24h2.64c.74,0,1.31,.18,1.71,.54,.4,.36,.6,.88,.6,1.55s-.2,1.23-.6,1.6c-.4,.37-.97,.55-1.71,.55Zm19.56-7.12h-11.91v2.98h4.12v10.85h3.63v-10.85h4.16v-2.98Zm-74.05,19.4h-3.63v13.83h9.51v-3.08h-5.89v-10.75Zm18.57,13.83l-.95-2.45h-6l-.97,2.45h-3.73l5.96-13.83h3.73l5.83,13.83h-3.86Zm17.01-12.19c-.42-.53-1.02-.93-1.79-1.21-.77-.28-1.68-.42-2.72-.42h-6.6v13.83h6.86c1.08,0,2.03-.15,2.83-.46,.81-.31,1.43-.76,1.86-1.34,.44-.59,.65-1.27,.65-2.04,0-.89-.25-1.66-.76-2.29-.51-.63-1.21-1.03-2.09-1.2,.74-.2,1.32-.57,1.75-1.1,.43-.54,.64-1.17,.64-1.89s-.21-1.33-.63-1.85Zm11.05,1.46c-.84-.28-1.54-.41-2.11-.41-.45,0-.8,.08-1.06,.25-.26,.16-.39,.4-.39,.72s.11,.56,.34,.76c.22,.2,.5,.37,.83,.49,.33,.12,.82,.29,1.47,.48,.96,.28,1.76,.55,2.39,.83,.63,.28,1.17,.7,1.61,1.27,.45,.57,.67,1.32,.67,2.24s-.24,1.71-.73,2.36c-.49,.65-1.16,1.14-2.01,1.47-.85,.33-1.8,.49-2.84,.49-1.15,0-2.3-.2-3.44-.6-1.14-.4-2.13-.95-2.96-1.65l1.41-2.82c.7,.62,1.53,1.12,2.49,1.52,.96,.39,1.81,.59,2.55,.59,.54,0,.97-.1,1.28-.3,.31-.2,.47-.49,.47-.87,0-.32-.12-.58-.35-.79-.23-.21-.52-.38-.87-.5-.35-.12-.84-.27-1.48-.44-.95-.26-1.74-.53-2.36-.8-.62-.27-1.15-.68-1.6-1.22s-.66-1.27-.66-2.18c0-.85,.23-1.6,.68-2.25,.46-.64,1.1-1.14,1.94-1.49,.84-.35,1.81-.52,2.92-.52,1,0,1.99,.14,2.97,.42,.98,.28,1.84,.66,2.58,1.13l-1.37,2.88c-.74-.43-1.53-.79-2.37-1.07Zm-14.15,1.03c0,.43-.15,.77-.44,1.02-.29,.24-.69,.36-1.19,.36h-2.77v-2.68h2.77c.5-.01,.9,.1,1.19,.33,.29,.23,.44,.56,.44,.98Zm-19.78,4.5h3.84l-1.9-4.93-1.94,4.93Zm20.22,.91c0,.47-.18,.84-.55,1.1-.37,.26-.87,.39-1.51,.39h-2.77v-2.9h2.77c.63-.01,1.14,.11,1.51,.36,.37,.26,.55,.6,.55,1.04Z"/></svg>
